<?xml version="1.0" encoding="utf-8"?>
<!-- Generator: Adobe Illustrator 24.3.0, SVG Export Plug-In . SVG Version: 6.00 Build 0)  -->
<svg version="1.1" id="Layer_1" xmlns="http://www.w3.org/2000/svg" xmlns:xlink="http://www.w3.org/1999/xlink" x="0px" y="0px"
	 viewBox="0 0 1920 1080" style="enable-background:new 0 0 1920 1080;" xml:space="preserve">
<style type="text/css">
	.st0{fill:#00C897;}
	.st1{fill:#019267;stroke:#019267;stroke-width:1.0889;}
	.st2{fill:#A3AEC2;}
	.st3{fill:#EEE4C1;}
	.st4{fill:#E5DBB8;}
	.st5{fill:#F4AE8C;}
	.st6{fill:#DAD0AD;}
	.st7{fill:#AEC2CB;}
	.st8{fill:#412822;}
	.st9{fill:#A66D3B;}
	.st10{fill:#C68D57;}
	.st11{fill:#371E18;}
	.st12{fill:#181E28;}
	.st13{fill:#E09A78;}
	.st14{fill:#935927;}
	.st15{fill:#181F28;}
	.st16{fill:#A76D3B;}
	.st17{fill:#A76D3C;}
	.st18{fill:#FCF0DA;}
	.st19{fill:#D0C6A4;}
	.st20{fill:#BC834D;}
	.st21{fill:#9C7441;}
	.st22{fill:#87929D;}
	.st23{fill:#A47845;}
	.st24{fill:#E09C7B;}
	.st25{fill:#5A4A46;}
	.st26{fill:#504644;}
	.st27{fill:#A4AEC2;}
	.st28{fill:#E09A79;}
	.st29{fill:#DAD0AE;}
	.st30{fill:#544A47;}
	.st31{fill:#625851;}
	.st32{fill:#FAECD6;}
	.st33{fill:#F9E8CD;}
	.st34{fill:#F8E7CE;}
	.st35{fill:#DBD0AE;}
	.st36{fill:#59504C;}
</style>
<rect class="st0" width="1920" height="1080"/>
<path class="st1" d="M1970.79,711.11c-215.6-19.24-689.39-31.14-859.69,75.14c-212.89,132.85-541.2,187.29-661.52,167.69
	c-120.33-19.6-435.57-47.91-525.95,0c-72.3,38.33,11.33,154.76,63.96,191.42c607.07-35.39,1474.09-11.98,1510.32-11.98
	c386.02,0,515.89-54.21,505.54-141.87C1995.19,921.38,1978.24,775.35,1970.79,711.11z"/>
<g>
	<path class="st2" d="M1591.62,585.77c-3.47,1.79-6.81,3.82-10.21,5.74c-4.21,4.03-7.19,9.37-12.68,12.05
		c-2.5,1.52-5.03,2.95-8.07,3.03c-0.5-0.06-1-0.17-1.43-0.44c-4.19-2.65-8.87-15.34-7.48-20.26c5.85-1.53,11.81-1.4,17.51,0.13
		c4.09,1.09,7.89,1.86,11.92,0.3"/>
	<path class="st3" d="M1560.82,606.02c2.69-0.95,5.49-1.64,7.84-3.37c3.66-0.03,5.72,2.87,8.16,4.81c3.43,2.72,6.6,5.84,9.03,9.58
		c1.27,3.73,4.45,6.25,5.97,9.95c4.09,10.01,5.78,20.22,4.21,30.94c-0.54,3.71-0.32,6.88,2.86,9.88
		c14.86,14.05,20.7,31.76,19.52,51.85c-0.48,8.18-2.65,16.15-6.74,23.35c-1.76,3.09-1.3,5.69,0.1,8.52
		c3.29,6.65,5.06,13.86,5.07,21.11c0.01,14.12-3.96,27.07-14.09,37.53c-2.1,2.17-4.15,4.39-6.22,6.58
		c-5.61,6.01-12.91,8.58-20.72,9.9c-2.35,0.4-3.29,1.25-3.22,3.6c0.32,11.51-3.49,21.78-9.51,31.37
		c-5.95,8.65-13.34,15.74-22.45,21.02c-10.3,5.97-21.44,9.35-33.18,10.86c-2.74,0.35-5.46,1-8.26,0.79
		c-1.36-0.1-2.81,0.18-3.93-0.93c-4.25-0.47-7.82,0.38-11.47,3.19c-8.18,6.3-17.88,8.6-28.09,9.81
		c-10.51,1.24-20.92,0.73-31.13-1.15c-11.84-2.18-23.52-5.41-33.21-13.35c-3.08-2.52-4.85-6.05-7.59-8.84
		c-4.69-4.77-9.4-7.02-16.68-5.96c-12.68,1.84-25.56,1.24-38.2-1.48c-1.32-0.28-2.45-0.26-3.65,0.12c-1.74-0.85-3.72-0.84-5.49-1.57
		c-13.87-4.17-26.8-10.37-39.03-18.1c-0.67-1.32-1.94-1.89-3.11-2.63c-11.18-7.05-22.31-14.33-31.32-24.03
		c-7.34-7.9-15.28-14.88-24.18-20.84c-3.02-2.03-6.23-3.78-9.37-5.63c-1.52-0.9-2.1-1.92-1.22-3.71c2.65-5.39,5.12-10.87,7.2-16.52
		c0.95-2.58,2.1-3.63,5.22-1.77c14.55,8.66,29.09,17.39,44.44,24.6c8.51,4,16.97,8.38,26.3,10.02c4.9,0.86,10.24,1.83,14.76-1.87
		c9.34-2.91,17.44-7.92,24.54-14.6c3.49-3.28,5.14-7.16,4.96-12.1c-0.15-4.16,1.45-8.13,3-11.99c3.35-8.35,7.63-16.12,14.02-22.58
		c3.59-3.19,3.93-7.15,2.63-11.45c-1.32-4.36-3.15-8.55-5.09-12.64c-5.7-12-2.4-22.04,6.16-31.1c2.83-2.99,5.8-5.85,9.11-8.94
		c-4.86-2.09-9.59-2.8-14.21-3.86c-3.56-0.82-7.17-1.42-10.79-1.96c-3.95-0.59-7.72-1.11-10.71,2.36c-0.35-0.69,0.5-2.8-1.72-1.19
		c-4.33,3.16-7.57,7.35-10.97,11.35c-9.34,11.01-17.59,22.85-25.5,34.93c-3.03,4.63-7.77,3.76-11.99,3.05
		c-3.52-0.59-7.03-1.79-10.41-3.23c-1.95-0.83-2.28-1.51-1.3-3.25c3.52-6.24,6.82-12.61,10.5-18.76
		c6.11-10.23,12.44-20.32,18.66-30.48c0.3-0.49,0.77-1.08,0.07-1.66c0.33-2.98,2.89-4.6,4.26-6.96
		c5.49-9.46,13.27-15.32,24.42-17.13c9.19-1.49,18.29-3.68,27.51-5.07c3.16-0.47,6.06-0.93,5.97-5.14
		c-0.02-0.73,0.49-1.44,1.45-1.42c0.73,0.63,0.57,1.53,0.34,2.37c1.64-5.1,5.13-8.77,8.6-12.36c13.63-14.07,30.42-17.97,49.23-14.93
		c2.63,0.43,4.52-0.21,6.52-1.9c11.18-9.5,23.99-11.43,37.96-8.06c9.68,2.33,18.1,6.82,25.11,13.94c2.07,2.11,3.73,4.43,4.62,7.26
		c0.22,0.3,0.44,0.59,0.69,0.86c7.55,2.83,14.58,6.47,19.1,13.5c4.23,6.59,4.72,13.83,1.18,20.6c-3.39,6.47-9.67,8.99-16.93,8.59
		c-5.67-0.31-8.44-2.78-9.69-8.33c-1.01-4.5,1.81-11.35,5.51-13.25c1.94-1,3.93-1.03,5.69,0.4c1.69,1.38,1.8,3.22,1.19,5.18
		c-0.22,0.71-0.7,1.33-0.79,2.39c3.17,0.17,4.96-1.72,6.29-3.96c1.45-2.43,0.96-5-0.74-7.1c-3-3.72-6.96-5.38-11.74-4.46
		c-7.81,1.5-15.05,9.25-15.91,16.88c-0.99,8.78,3.39,16.97,11.05,20.68c17.43,8.45,36.05,0.97,42.44-17.36
		c3.13-8.98,0.88-17.19-5.36-24.3c-1.92-2.19-4.09-4.12-6.44-5.85c-1.44-1.07-2.77-2.25-2.77-4.28c0.11-2.53,0.83-4.81,2.77-6.57
		c1.3-1.1,2.81-0.79,4.31-0.66c11.78,1.05,22.04-2.27,30.44-10.78C1557.83,607.16,1559.11,606.22,1560.82,606.02z"/>
	<path class="st2" d="M1436.82,292.57c32.16,0.13,61.71,9.44,89.3,25.56c15.48,9.04,29.27,20.21,41.07,33.69
		c14.49,16.55,23.34,36,28.67,57.27c4.2,16.77,6.07,33.7,5.17,50.94c-0.45,8.57-2.33,16.93-4.49,25.22
		c-1.38,1.17-2.91,0.62-4.32,0.2c-16.78-4.93-33.94-7.31-51.38-7.92c-0.25-0.01-0.48-0.13-0.72-0.21c-1.53-2.17-0.39-4.82-1.29-7.11
		c0.29-8.07-0.83-16.09-0.97-24.16c-0.14-7.64-4.94-13.34-9.57-18.85c-2.83-3.36-6.05-6.41-9.36-9.34
		c-0.47-0.38-0.87-0.82-1.22-1.32c-7.39-12.61-9.65-26.19-7.77-40.56c-1.3,9.68-0.77,19.23,2.31,28.58c0.24,0.72,0.54,1.43,0.7,2.16
		c0.25,1.13,1.51,2.6-0.06,3.33c-1.28,0.59-2.25-0.89-3-1.85c-4.54-5.78-8.28-12.06-10.99-18.88c-3.67-9.24-6.31-18.75-6.36-24.41
		c0.64,10.08,4.61,23.57,12.19,35.93c2.17,3.54,4.53,6.96,7.49,9.92c0.97,0.97,1.86,2.08,2,3.56c-1.08,1.68-2.53,0.73-3.67,0.3
		c-10.55-3.91-20.03-9.47-27-18.57c-10.05-13.11-18.43-27.33-27.06-41.38c-0.79-1.29-1.48-2.63-2.35-3.87
		c-2.93-4.18-3.22-4.26-7.85-2.14c-1.17,0.53-2.32,1.04-3.57,0.26c-1.3-1.98,0.1-3.46,0.91-5.07c0.8-1.57,2.37-3.04,0.8-5
		c-2.11-2.65-2.07-5.93-2.43-9.01c-1.34-11.39-3.06-22.72-5.22-33.99C1436.56,294.77,1436.14,293.65,1436.82,292.57z"/>
	<path class="st2" d="M1354.99,564.95c-14.25,0.01-28.04-2.45-41.34-7.63c-5.26-2.05-8.89-5.16-11.32-10.69
		c-8.13-18.59-14.2-37.76-17.47-57.74c-6.09-37.11-3.35-73.18,13.94-107.27c5.9-11.64,13.12-22.41,21.92-32.08
		c3.05,4.46,5.24,9.41,7.94,14.07c3.98,6.86,7.87,13.77,12.01,20.54c0.91,1.48,2.04,2.92,2.01,4.81c-0.05,3.26,2.79,2.69,4.55,3.2
		c4.74,1.36,5.45,2.4,4.31,7.48c-0.36,0.35,0.17-0.02-0.21,0.31c-5.75,5.1-5.7,5.07-2.29,12.12c5.88,12.15,11.5,24.37,14.79,37.6
		c2.5,10.06,0.17,19.23-3.23,28.43c-0.35,0.95-0.98,1.78-2.08,2.04c-1.63-0.48-1.33-2.01-1.57-3.14
		c-2.03-9.79-4.28-19.54-5.88-29.42c2.07,12.1,4.68,24.1,7.28,36.1c0.76,3.45,1.11,6.97,1.37,10.48c0.23,3.12,1.46,4.57,4.68,4.46
		c2.23-0.08,4.6-0.15,6.16,2.03c0.97,3.59-0.8,6.92-0.99,10.4c-0.87,15.82-1.57,31.62,1.36,47.33c0.36,1.95,1.15,3.91,0.15,5.9
		C1365.83,567.22,1360.43,566.52,1354.99,564.95z"/>
	<path class="st4" d="M1340.5,329.74c-2.78-7.23-1.05-14.3,0.73-21.39c3.5-13.97,8.05-27.62,12.46-41.31
		c0.27-0.83,0.39-1.7,0.57-2.56c2.92,4.2,7.55,7.25,8.55,12.75c0.23,1.25,0.62,2.45,1.03,3.64c1.63,4.68,2.82,5.27,7.88,4.86
		c8.66-0.7,16.89,0.34,23.62,6.67c1.86,1.74,4.04,3.03,6.6,3.52c0.25,0.05,0.51,0.09,0.72,0.21c4.62,2.74,9.26,5.42,13.98,7.99
		c-1.29,7.82-1.31,15.82-2.91,23.58c-1.64,7.97-6.25,13.68-14.52,15.79c-16.78,4.28-33.41,5.22-49.33-3.08
		C1345.57,338.17,1341.56,335.12,1340.5,329.74z"/>
	<path class="st5" d="M1560.82,606.02c-2.96,1.92-4.98,4.87-7.84,6.95c-8.68,6.32-18.23,8.46-28.74,6.81
		c-0.55-0.09-1.17,0.28-1.76,0.43c-1.84-0.74-2.36-2.47-2.97-4.09c-1.99-5.28-3-10.79-3.66-16.37c-0.99-6.49-1.46-13.05-2.26-19.55
		c-2.01-16.3,2.58-31.25,8.61-45.98c1.98-4.09,3.69-8.31,5.48-12.49c0.54-1.26,1.07-2.58,2.23-3.47c0.96-0.49,1.97-0.4,2.93-0.07
		c13.25,4.62,26.63,8.86,39.75,13.85c0.48,0.18,0.84,0.54,1.13,0.96c-1.28,2.93-4.26,4.93-4.6,8.38
		c-4.27,6.8-9.03,13.28-12.74,20.43c-3.52,6.77-5.11,13.87-4,21.49c0.15,1.01,0.28,2-0.45,2.87c0.56,6.11,2.56,11.74,5.61,17.01
		C1558.28,604.47,1559.09,605.81,1560.82,606.02z"/>
	<path class="st5" d="M1416.27,303.94c-4.48-0.73-8.24-2.86-11.61-5.84c-2.22-1.96-5.6-1.05-7.87-3.24
		c-7.72-7.49-16.98-9.63-27.42-7.71c-2.47,0.45-4.94-0.87-5.36-3.25c-1.32-7.52-6.47-12.98-9.76-19.42
		c-0.87-6.61,0.27-12.39,6.59-16.03c1.61-2.25,3.89-3.18,6.55-3.1c2.63,0.08,4.57-1.05,6.27-2.92c1.27-1.4,2.69-2.66,4-4.03
		c4.38-4.6,9.84-6.37,15.86-4.94c12.43,2.95,23.79,8.29,33.25,17.06c4.53,4.2,5.68,11.91,3.15,17.8c-1,8.31-3.32,16.29-6.02,24.18
		c-0.63,4.24-3.78,7.13-5.68,10.7C1417.69,303.74,1417.05,304.03,1416.27,303.94z"/>
	<path class="st6" d="M1312.61,796.33c-6.89-1.77-13.76-3.61-20.67-5.3c-10.27-2.52-18.95-7.91-26.93-14.64
		c-13.58-11.46-24.54-25.26-35.3-39.25c-1.58-2.05-1.79-3.44,0.42-5.25c3.31-2.71,6.36-5.74,9.44-8.71c1.3-1.26,2.36-1.6,3.87-0.28
		c8.72,7.65,18.02,14.57,27.79,20.76c9.43,5.98,18.94,12,30.24,14.09c5.37,0.99,10.76,0.62,16.16,0.61c1.25,0,1.68-0.94,2.36-1.63
		c5.01,0.73,9.93-0.38,14.89-0.76c2.22-0.17,4.38-1.15,6.66-0.49c1.87,1.78,0.16,3.31-0.53,4.7c-5.31,10.6-10.48,21.28-15.88,31.84
		c-1.05,2.05-1.16,4.8-3.89,5.73C1318.22,798.12,1315.32,797.78,1312.61,796.33z"/>
	<path class="st6" d="M1363.99,639.95c-0.21,0.31-0.64,0.66-0.59,0.92c1.1,5.44-2.51,6.09-6.47,6.62
		c-11.56,1.52-22.93,3.98-34.25,6.76c-5.37,1.32-9.19,4.29-12.48,8.47c-3.34,4.23-5.95,9.02-9.81,12.84
		c-6.01,2.24-12.11,4.25-17.98,6.79c-5.2,2.26-9.34,1.54-13.32-2.51c-2.77-2.81-5.19-5.8-7.18-9.17c-0.77-1.3-1.07-2.29,0.55-3.47
		c14.15-10.28,28.2-20.7,42.34-31c8.44-6.15,16.88-12.31,25.52-18.17c4.93-3.34,9.32-7.8,15.67-8.66c0.48-0.07,0.87-0.85,1.3-1.29
		c6.49,0.57,13.02,0.78,19.44,2.01c1.6,0.31,3.24,0.47,4.64,1.41c1.17,1.49,0.23,2.96-0.26,4.27c-2.53,6.76-4.27,13.72-5.59,20.81
		C1365.28,637.8,1365.07,639.09,1363.99,639.95z"/>
	<path class="st2" d="M1416.27,303.94c0.5-0.31,1-0.61,1.5-0.92c1.53,0.16,1.65,1.42,1.77,2.5c1.32,12.37,3.91,24.58,4.93,36.99
		c-0.72,2.12-1.6,3.94,1.25,5.65c5.51,3.31,5.39,3.52,2.97,9.77c-8.73,5.25-17.77,9.96-26.71,14.83
		c-8.73,4.75-17.5,9.43-26.13,14.38c-2.26,1.3-4.55,2.79-7.4,2.3c-1.09-0.27-2.08-0.79-3.15-1.12c-3.94-1.22-4.92-2.73-4.31-6.93
		c0.28-1.93,0.7-3.73-1.54-4.76c-2.31-1.59-3.11-4.24-4.48-6.48c-6.2-10.11-12.09-20.41-18.09-30.64c-0.82-1.41-1.75-2.81-1.67-4.56
		c1.76-1.74,3.53-3.47,5.29-5.21c6.47,10.61,16.76,13.86,28.31,15.27c10.29,1.25,20.25,0.06,30.13-2.49
		c9.5-2.45,13.2-9.37,14.37-18.56C1414.16,317.28,1413.79,310.39,1416.27,303.94z"/>
	<path class="st7" d="M1539.68,476.84c10.43-0.76,20.62,1.09,30.87,2.57c8.83,1.27,17.33,3.87,25.99,5.83
		c5.04,2.4,5.79,3.49,4.43,10.63c-1.79,9.39-4.94,18.37-9.18,26.99c-1.95,3.96-4.89,4.65-8.63,3.92c-1.61-0.31-3.19-0.67-4.83-0.58
		c-1.79,0.67-3.46-0.04-5.16-0.42c-13.96-3.16-27.58-7.5-41.23-11.79c-4.16-1.12-4.42-4.78-4.3-7.88c0.35-8.53,1.5-16.99,5.35-24.81
		c0.73-1.47,1.67-2.81,2.97-3.84C1537.08,476.59,1538.23,475.77,1539.68,476.84z"/>
	<path class="st8" d="M1495.24,893.38c20.02-0.39,38.5-5.31,54.32-18.25c4.91-4.02,8.7-9.02,12.79-13.79
		c3.35-1.89,7.1-0.83,10.64-1.4c5.06-0.82,10.1-1.56,14.98-3.19c1.29-0.43,2.64-0.92,3.93,0.06c2.45,4.84,1.87,9.86,1,14.94
		c-0.27,1.55-1.18,3.06-0.59,4.72c-0.05,2.86-1.53,4.42-4.13,5.63c-6.67,3.1-12.52,7.42-17.76,12.63
		c-6.45,6.43-13.9,11.63-21.38,16.75c-6.08,4.16-13.18,5.15-20.26,4.7c-9.01-0.57-18.11-0.68-26.97-2.87
		c-3.92-0.97-7.73-2.24-11.46-3.74c-1.5-0.6-3.16-1.37-2.22-3.6C1489.28,901.08,1491.46,896.77,1495.24,893.38z"/>
	<path class="st4" d="M1429.93,268.32c0-1.9-0.25-3.83,0.03-5.68c1.2-7.82-3.47-12.27-9.18-15.93c-8.16-5.24-16.7-9.77-26.23-12.06
		c-6.22-1.49-11.72-0.38-16.19,4.49c-1.11,1.21-2.4,2.25-3.46,3.5c-2.14,2.52-4.47,4.24-8.09,3.75c-2.16-0.29-4.06,1.06-5.94,2.07
		c4.05-9.77,8.37-19.37,13.91-28.43c6.81-11.14,11.56-13.58,24.53-11.53c11.18,1.77,22.24,4.08,32.85,8.15
		c3.76,1.44,7.38,3.09,10.62,5.63c3.02,2.37,3.82,5.39,2.85,8.71c-0.67,2.3,0.12,3.56,1.58,4.93c1.01,0.95,2.02,1.93,2.84,3.03
		c3.16,4.25,2.67,6.59-2.04,8.87c-2.83,1.37-3.49,2.54-1.24,5.31c3.83,4.72,2.8,8.53-2.75,11.11
		C1439.53,266.31,1434.72,267.31,1429.93,268.32z"/>
	<path class="st9" d="M1342.05,756.02c-5.43,0.68-10.85,1.53-16.3,1.95c-1.88,0.15-4.47,1.95-5.76-1.24
		c4.19-22.86,8.38-45.72,12.57-68.58c0.2-1.11,0.33-2.23,0.49-3.35c0.41-3.23,2.66-3.89,5.37-3.78c11.11,0.48,21.67,3.59,32.46,6.39
		c-0.81,2.05-2.46,2.63-3.63,3.67c-3.67,3.28-7.17,6.7-10.15,10.63c-5.41,7.12-7.29,14.77-3.74,23.35
		c2.21,5.34,4.46,10.68,6.38,16.13c1.61,4.55,0.85,8.71-3.29,11.78C1351.87,755.08,1347.18,756.59,1342.05,756.02z"/>
	<path class="st9" d="M1371.45,611.69c-7.6-0.56-15.06-2.5-22.74-2.21c-0.96,0.04-1.26-0.62-1.43-1.41
		c2.5-13.48,4.99-26.95,7.49-40.43c1.72,2.12,3.86,2.28,6.42,1.84c5.25-0.9,5.46-0.72,8.13,3.96c0.73,1.28,1.8,1.65,3.13,1.7
		c6.71,0.24,13.31-0.71,19.89-1.87c3.12-0.55,3.3-2.62,2.51-5.12c-0.03-0.25-0.06-0.63,0.09-0.7c2.9-1.26,5.01-3.46,6.95-5.85
		c5.47,1.13,10.74-0.58,15.97-1.53c9.63-1.74,19.16-4.08,28.14-8.2c1.01-0.46,2.1-0.87,3.27-0.79c1.5,1.18,0.63,2.55,0.19,3.78
		c-1.38,3.86-4.03,6.6-7.63,8.54c-7.28,3.92-15.24,5.98-23.04,8.48c-7.21,2.31-14.32,4.86-21.1,8.3
		c-11.55,5.86-18.57,15.59-23.43,27.22C1373.6,609,1373.3,610.87,1371.45,611.69z"/>
	<path class="st10" d="M1423.79,343.3c-1.76-12.35-3.52-24.7-5.27-37.05c-0.16-1.1,0.09-2.28-0.75-3.22
		c1.54-3.81,4.02-7.06,6.13-10.53c0.97-0.03,1.93-0.05,2.9-0.08c3.29-0.28,6.58-0.48,9.86,0.11c0,0,0.16,0.03,0.16,0.03
		c2.78,9.44,3.79,19.2,5.2,28.88c0.67,4.6,1.15,9.22,1.76,13.82c0.18,1.38,0.7,2.65,1.87,3.53c-0.41,0.88-0.81,1.76-1.74,2.24
		c-6.43,2-12.84,4.09-19.57,4.91C1423.09,345.28,1423.28,344.32,1423.79,343.3z"/>
	<path class="st10" d="M1335.21,334.95c7.25,12.28,14.5,24.57,21.75,36.85c0.83,1.4,1.67,2.79,2.5,4.19
		c0.67,0.67,1.29,1.36,0.92,2.43c-4.52,3.73-9.33,7.08-13.99,10.63c-0.8,0.61-1.69,1.07-2.74,1.09c-0.81-0.11-1.42-0.46-1.64-1.3
		c-4.54-7.94-9.19-15.82-13.57-23.85c-2.75-5.05-6.22-9.76-7.7-15.45C1324.77,343.89,1329.66,339.09,1335.21,334.95z"/>
	<path class="st9" d="M1591.9,856.8c-8.4,2.67-16.92,4.66-25.79,4.68c-1.25,0-2.51-0.1-3.76-0.15c3.9-7.33,7.61-14.72,8.82-23.11
		c0.47-3.27,0.45-6.52,0.34-9.79c-0.04-1.18-0.17-2.36,1.51-2.44c8.77-0.39,16.09-4.43,23.13-9.19c0.09-0.06,0.25-0.03,0.37-0.04
		c-0.14,9.8-0.43,19.6-0.35,29.39C1596.2,850.44,1596.16,854.39,1591.9,856.8z"/>
	<path class="st9" d="M1551.92,586.17c-3.03-12.31,1.7-22.7,8.08-32.67c2.37-3.7,4.81-7.37,7.24-11.04
		c0.43-0.65,0.62-1.82,1.88-1.08c4.1,14.04,7.7,28.2,10.69,42.51c0.2,0.95,0.09,2.09,1.38,2.43c-0.76,0.41-1.58,0.72-2.25,1.23
		c-2,1.51-3.57,1.73-6.24,0.5C1566.14,585.04,1558.92,586.11,1551.92,586.17z"/>
	<path class="st11" d="M1280.69,856.05c0.83,0.22,1.76,0.28,2.48,0.7c11.73,6.88,24.09,12.37,36.92,16.82
		c-2.93,2.37-6.47,3.3-10.03,4.01c-15.85,3.14-31.21,1.75-45.85-5.4c-1.67-0.82-3.44-1.68-3.82-3.85c1.22-5.26,4.67-8.08,9.78-9.3
		C1273.7,858.17,1277.18,857.04,1280.69,856.05z"/>
	<path class="st12" d="M1488.14,905.97c0.12,1.44,0.94,2.07,2.27,2.62c8.89,3.66,18.21,5.63,27.73,5.81
		c5.84,0.11,11.58,1.21,17.6,0.46c7.13-0.89,12.7-4.03,18.23-8.05c7.02-5.1,13.66-10.62,19.92-16.62c3.74-3.59,8.14-6.26,12.75-8.48
		c2.54-1.22,4.73-2.44,5.66-5.24c1.25,4.24,0.67,8.42-0.52,12.56c-0.42,1.46-1.69,2.16-2.94,2.78c-2.7,1.35-5.51,2.51-8.13,4.02
		c-2.89,1.67-4.79,1.78-4.78-2.54c-4.83,2.56-8.56,5.85-11.86,9.72c-8.5,9.99-18.64,16.34-32.3,17.26
		c-14.18,0.95-27.62-1.07-40.69-6.31c-1.16-0.46-2.34-0.99-3.35-1.71C1484.28,909.79,1484.4,908.35,1488.14,905.97z"/>
	<path class="st13" d="M1532.29,513.24c12.16,3.15,23.97,7.57,36.24,10.35c3.3,0.75,6.54,1.73,9.81,2.6
		c-1.54,2.27-3.08,4.54-4.62,6.81c-8.53-2.03-16.48-5.76-24.84-8.28c-6.32-1.9-12.34-4.72-18.83-6.07
		C1529.33,516.24,1530.67,514.68,1532.29,513.24z"/>
	<path class="st14" d="M1395,567.86c2.5,0.57,1.45,2.57,1.51,4.02c0.05,1.33-0.94,1.86-2.2,2.12c-7.75,1.6-15.56,2.41-23.49,2.29
		c-2.38-0.04-2.79-1.78-2.84-3.24c-0.09-2.74-1.56-3.1-3.68-2.86c-1.86,0.21-3.71,0.47-5.57,0.75c-2.56,0.38-4.18-0.35-3.97-3.29
		c0.08-0.9,0.15-1.8,0.23-2.7c5.26-0.1,10.54,0.26,15.76-0.66c5.94,4.91,12.91,3.17,19.62,3.03
		C1391.96,567.28,1393.59,566.55,1395,567.86z"/>
	<path class="st15" d="M1260.38,868.32c6.25,4.84,13.42,7.32,21.18,8.32c4.69,0.61,9.34,1.62,14.11,1.49
		c7.51-0.19,14.93-0.86,21.83-4.26c0.73-0.36,1.72-0.22,2.58-0.31c1.77,0.56,4.04-0.06,5.13,2.15c-16.35,7.29-33.13,8.99-50.43,3.92
		c-4.86-1.42-9.4-3.56-13.72-6.2C1258.59,871.92,1257.87,870.39,1260.38,868.32z"/>
	<path class="st16" d="M1312.61,796.33c3.03-0.56,5.88,1.09,8.89,0.72c3.64-0.77,7.21,0.09,10.79,0.5c1.22,0.14,3.03,0.25,2.19,2.45
		c-6.29,5.74-13.33,10.3-21.32,13.3c-1.12,0.42-2.36,1.79-3.74,0.35C1310.48,807.88,1311.55,802.1,1312.61,796.33z"/>
	<path class="st17" d="M1585.84,617.04c-4.78-4.2-8.91-9.14-14.34-12.6c-0.95-0.6-1.9-1.19-2.85-1.79c2.85-2.57,6.67-4,8.19-8.16
		c0.5-1.37,2.99-2.01,4.57-2.99C1582.89,600.02,1584.37,608.53,1585.84,617.04z"/>
	<path class="st5" d="M1436.66,292.53c-3.29-0.04-6.57-0.07-9.86-0.11C1430.1,291.59,1433.39,291.42,1436.66,292.53z"/>
	<path class="st18" d="M1371.45,611.69c4.99-12.64,11.2-24.32,23.75-31.23c6.77-3.73,13.94-6.42,21.24-8.85
		c8.12-2.7,16.49-4.68,24.19-8.57c4.94-2.5,8.13-6.25,8.93-11.84c0.1-0.15,0.2-0.31,0.3-0.46c9.12-4.01,18.34-7.84,27.01-12.74
		c11.11-6.29,21.81-13.21,30.31-22.99c1.9-2.51,4.21-4.63,6.49-6.78c1.07-1.01,2.27-2.17,3.91-0.82c2.86,8.54,5.84,17.05,5.62,26.25
		c-2.19,6.65-4.41,13.3-6.58,19.96c-3.44,10.55-2.23,21.31-1.35,32.03c0.39,4.74,1.09,9.45,1.65,14.17
		c-0.69,1.62-2.18,2.39-3.54,3.25c-7.4,4.64-12.51,11.04-15.21,19.39c-0.53,1.64-0.99,3.39-2.39,4.61
		c-2.75-7.22-8.56-11.4-14.8-15.28c-7.57-4.7-15.91-7.11-24.62-7.33c-9.13-0.23-18.29,1.31-25.11,8.06
		c-4.28,4.24-8.76,3.63-13.72,2.99c-15.36-1.97-29.05,1.79-40.81,12.11c-4.85,4.26-8.72,9.31-12.12,14.83
		c-0.96-0.81-0.38-1.73-0.59-2.5C1365.18,630.19,1368.04,620.87,1371.45,611.69z"/>
	<path class="st6" d="M1423.62,820c5.36-1.09,10.66-2.28,16.02-3.19c2.16-0.37,3.71,1.48,5.33,2.56c6.34,4.23,11.83,9.2,14.74,16.62
		c3.82,9.74,1.01,18.32-4.51,26.22c-9.03,12.93-24.04,14.89-36.6,9.9c-9.74-3.86-15.16-11.86-14.34-21.24
		c0.9-10.4,8.53-18.31,18.33-19.67c4.83-0.67,10.47,2.36,12.53,6.67c1.48,3.11,0.73,5.89-1.19,8.48c-1.99,2.69-4.2,3.32-8.82,2.54
		c0.79-1.18,1.48-2.35,2.31-3.41c0.88-1.11,1.31-2.15,0.22-3.35c-1.14-1.26-2.28-2.3-4.24-1.67c-4.47,1.44-7.31,7.46-6.32,13.62
		c0.59,3.65,4.55,6.49,8.9,6.65c6.79,0.24,12.7-1.6,15.75-8.05c3.69-7.8,1.92-17.02-3.2-22.49c-3.63-3.87-7.72-6.8-12.77-8.42
		C1424.99,821.5,1424,821.31,1423.62,820z"/>
	<path class="st6" d="M1408.47,658.2c4.76-1.02,9.51-2.11,14.3-3.02c2.02-0.39,3.86,0.19,5.67,1.42
		c8.27,5.66,15.39,12.09,17.69,22.51c1.29,5.85-0.55,11.07-3.01,15.98c-6.17,12.33-16.32,18.64-30.2,17.59
		c-8.88-0.67-16.47-4.4-21.37-12.35c-5.14-8.35-2.06-20.49,6.26-26.95c5.65-4.39,11.32-4.86,17.59-2.01
		c3.86,1.76,5.16,5.26,5.07,8.96c-0.09,3.82-3.39,5.7-6.47,7.21c-0.99,0.49-2.61,0.77-3.46-0.49c-0.72-1.08,0.47-1.77,1.02-2.57
		c0.95-1.4,2.71-2.95,0.8-4.57c-1.93-1.63-4.33-2.08-6.56-0.23c-3.43,2.84-5.11,10.18-3.43,14.31c1.54,3.77,6.13,5.36,10.18,5.02
		c6.43-0.54,12.17-2.89,14.54-9.52c2.72-7.62,1.93-14.81-3.89-21.03c-4.12-4.4-9-7.52-14.82-9.26
		C1408.41,658.87,1408.44,658.54,1408.47,658.2z"/>
	<path class="st6" d="M1553.14,695.6c5.16-0.98,10.32-1.94,15.47-2.98c0.94-0.19,1.64-0.1,2.48,0.36
		c9.53,5.18,16.87,12.32,19.77,23.07c1.43,5.29,0.03,10.52-2.21,15.4c-3.96,8.64-10.25,14.8-19.43,17.79
		c-13.85,4.52-32.53-2.41-35.33-18.78c-0.93-5.45,1.11-10.33,4.11-14.55c4.26-5.99,10.07-9.37,17.84-8.46
		c4.17,0.49,7.02,2.68,8.79,6.25c1.3,2.61,1.41,5.36-0.67,7.81c-2.27,2.68-4.89,4.27-8.81,3c0.7-1.16,1.31-2.2,1.95-3.22
		c1.06-1.65,0.84-3.01-0.66-4.32c-1.55-1.35-3.1-1.58-4.81-0.47c-4.3,2.8-6.42,10.5-4.34,15.27c0.87,2,2.2,3.21,4.32,3.85
		c11.57,3.5,21.61-4.02,21.67-15.33c0.05-10.52-6.97-17.86-16.05-21.98c-1.44-0.65-2.88-1.3-4.32-1.95
		C1553,696.1,1553.07,695.85,1553.14,695.6z"/>
	<path class="st6" d="M1388.14,777.66c-0.13-0.93,0.68-1.29,1.15-1.82c1.64-1.86,2.03-3.95,0.25-5.73
		c-1.76-1.76-3.89-1.39-5.85,0.05c-3.28,2.42-5.06,9.54-3.54,14.29c1.09,3.41,3.97,4.63,9.21,5.02
		c11.52,0.85,18.53-9.19,16.58-20.04c-1.46-8.13-6.21-12.86-12.76-16.56c-2.37-1.34-4.96-2.3-8.38-3.85
		c5.28-1.05,9.84-1.75,14.28-2.9c4.24-1.1,7.24,0.96,10.23,3.28c6.23,4.83,12.16,10.05,13.89,18.19c2.34,11-1.1,20.12-9.33,27.81
		c-5.54,5.18-12.07,7.38-19.29,8.36c-14.28,1.94-28.31-10.39-27.46-24.64c0.65-10.97,12.04-22.52,25.07-17.64
		c4.4,1.65,7.04,6.72,5.84,11.02C1396.97,776.3,1392.98,778.38,1388.14,777.66z"/>
	<path class="st6" d="M1465.1,718.69c5.49-1.07,10.1-1.67,14.54-2.89c5.55-1.52,8.81,2.32,12.22,5.1c4.34,3.54,8.37,7.46,10.5,13.1
		c3.92,10.42,1.48,19.32-5.02,27.79c-5.14,6.71-11.96,10.36-20.08,11.36c-11.43,1.41-26.23-4.17-29.51-17.82
		c-2.93-12.16,7.36-27.37,22.11-25.1c4.38,0.67,8.19,4.39,8.53,8.77c0.38,4.77-1.74,7.58-6.73,9.04c-1.13,0.33-2.37,0.81-3.14-0.26
		c-0.84-1.17,0.6-1.72,1.2-2.38c1.66-1.82,2.38-3.67,0.29-5.56c-2.07-1.88-4.52-1.36-6.13,0.29c-2.77,2.83-4.41,6.46-4.35,10.51
		c0.07,4.76,3.39,8.06,8.03,8.42c7.6,0.6,14.14-1.1,17.59-8.71c3.22-7.1,1.71-13.79-2.5-19.97
		C1478.6,724.42,1472.3,721.6,1465.1,718.69z"/>
	<path class="st6" d="M1516.78,801.53c5.25-1.01,10.5-2.02,15.75-3.04c1.99-0.38,3.34,0.95,4.8,1.85
		c7.23,4.47,13.11,10.23,16.21,18.3c3.59,9.34,0.39,17.66-4.98,25.1c-6.37,8.83-15.33,13.06-26.35,12.39
		c-12.12-0.74-23.18-7.16-24.52-21c-0.8-8.3,3.26-15.01,10.37-19.55c5.33-3.41,10.84-3.73,16.4-0.46c3.09,1.81,5.29,6.34,4.53,9.29
		c-0.87,3.37-4.64,6.62-7.85,6.66c-0.71,0.01-1.7-0.03-2.08-0.47c-0.62-0.71,0.28-1.31,0.72-1.88c1.41-1.86,3.03-3.91,0.56-5.9
		c-2.18-1.76-4.56-0.91-6.58,0.65c-2.81,2.16-4.56,9.43-3.29,13.34c1.11,3.43,5.01,5.73,9.76,5.67c8.71-0.11,16.43-5.68,16.76-16.42
		c0.35-11.28-8.4-18.7-16.65-22.27c-1.13-0.49-2.31-0.86-3.46-1.29C1516.83,802.17,1516.8,801.85,1516.78,801.53z"/>
	<path class="st6" d="M1519.96,626.16c-0.06,2.68,2.25,3.47,3.88,4.66c9.71,7.09,14.57,18.48,11.23,29.05
		c-3.91,12.41-14.42,22.89-29.15,22.68c-6.95-0.1-12.94-1.95-18.68-5.79c-8.71-5.83-11.62-21.42-2.56-30.62
		c6.94-7.04,14.1-8.75,20.91-4.69c3.93,2.35,5.87,6.89,4.51,10.6c-1.28,3.49-5.43,5.62-9.92,5.03c-0.45-1.49,1.25-1.63,1.68-2.61
		c0.85-1.99,1.51-3.98-0.56-5.45c-1.81-1.28-3.78-1.12-5.51,0.46c-3.36,3.08-6.08,9.07-2.89,15.53c1.48,2.99,7.39,4.59,12.32,3.58
		c14.82-3.03,16.22-19.37,9.55-28.28c-4.6-6.15-10.54-10.24-18.1-11.87c-0.29-0.06-0.49-0.52-0.74-0.8c1.5-1.2,3.3-0.93,5.02-0.97
		C1507.28,626.54,1513.64,627.01,1519.96,626.16z"/>
	<path class="st19" d="M1334.47,800.01c-0.19-1.94-1.75-1.35-2.84-1.47c-3.4-0.37-6.83-0.48-10.14-1.48c1.86-1.55,1.98-4,3-5.98
		c5.93-11.64,11.72-23.36,17.55-35.05c4.8-1.01,9.6-2.02,14.4-3.03c-7.93,9.02-13.57,19.25-16.25,31.02
		c-0.19,0.85-0.5,1.76-0.38,2.59C1340.64,792.13,1338.33,796.36,1334.47,800.01z"/>
	<path class="st2" d="M1495.92,627.65c0.03-0.22-0.02-0.41-0.15-0.58c2.93-12.29,9.76-21.54,21.14-27.25
		c0.99,7.03,2.04,14.05,5.56,20.4"/>
	<path class="st20" d="M1368.61,389.01c6.27-1.42,11.24-5.48,16.76-8.37c14.36-7.53,28.59-15.33,42.87-23.02
		c1.6,1.73,2.87,3.77,5.15,4.82c1.33,0.61,1.84,2,2.32,3.33c0.51,1.42,0.87,2.91,1.68,4.21c1.67,2.68,3.91,3.67,5.9,2.62
		c2.97-1.57,4.19-4.21,3.04-7.08c-1.03-2.57-1.53-4.91,0.08-7.54c1.42-2.31,0.85-4.54-1.34-6.37c-0.94-0.78-2.71-1.14-2.17-3.04
		c1.84,0.42,3.17-0.73,4.44-1.67c2.79-2.09,4.76-0.9,6.28,1.5c4.04,6.4,7.83,12.96,11.96,19.3c7.29,11.17,13.66,23.04,23.1,32.64
		c7.03,7.16,15.83,11.55,25.37,14.45c1.8-0.47,3.12,0.62,4.53,1.42c0.31,0.27,0.62,0.54,0.93,0.82c2.64,5,2.74,10.66,4.08,16
		c1.37,5.48,2.46,11.03,3.65,16.56c-3.88,7.83-8.88,14.86-15.12,20.98c-1.5,1.34-2.8,3.09-5.23,2.39c-0.25-0.34-0.42-0.71-0.53-1.12
		c-0.61-6.5,0.35-13.04-0.57-19.52c-0.75-3.83-1.13-7.75-2.62-11.4c-2.15-5.27-7.08-6.18-11.04-2.06c-1.68,1.75-2.76,3.9-3.59,6.17
		c-2.06,5.63-2.88,11.46-3.04,17.43c-0.11,4.29-0.9,4.94-5.08,3.86c-11.83-3.06-23.6-6.35-35.57-8.79c-1.84-0.38-3.69-0.9-5.59-0.33
		c-1.27,0.42-2.16,1.48-3.37,2.03c-8.88-0.47-12.98,5.07-15.6,12.47c-0.08,0.23-0.24,0.44-0.37,0.66c-0.43,0.63-1,1.11-1.6,1.56
		c-3.72,3.31-4.23,5.56-2.04,9.91c3.88,7.7,10.42,13.12,16.42,19c1.11,1.09,2.9,1.9,1.71,3.99c-0.36,0.37-0.74,0.78-1.22,0.86
		c-8.75,1.43-17.5,3.01-26.42,1.59c-1.92-1.75-1.22-3.94-0.95-6.03c0.94-7.16-0.53-8.94-7.62-10.09
		c-6.19-1.01-12.29-0.84-18.42,0.31c-3.49,0.65-6.59,1.77-8.06,5.42c-0.29,0.71-0.84,1.26-1.66,1.41c-2.22-0.17-4.48-0.67-6.66-0.45
		c-3.39,0.34-4.28-1.36-4.57-4.25c-0.39-3.95-1-7.88-1.51-11.81c0.66-1.21-0.1-2.96,1.45-3.83c4.33-10.51,6.7-20.85,3.43-32.56
		c-3.6-12.88-9.26-24.7-14.9-36.62c-3.28-6.94-3.1-7.72,3.88-11.21c2.12,1.33,4.17,2.66,6.75,3.15c2.47,0.46,3.81,2.78,5.55,4.4
		c3.27,3.05,5.7,3.49,7.88,1.35c2.19-2.15,2.19-5.77-0.38-8.49c-1.91-2.03-2.85-4.1-2.03-6.83
		C1369.32,391.71,1368.3,390.4,1368.61,389.01z"/>
	<path class="st9" d="M1511.74,470.08c0.49-2.42,2.82-3.44,4.26-5.01c3.71-4.07,6.24-8.81,9.08-13.39c0.42-0.68,0.81-1.27,1.68-1.32
		c0.52,0.03,1.04,0.17,1.33,0.58c4.38,6.2,9.23,12.12,11.66,19.49c0.59,2.14,1.34,4.29-0.06,6.41c-2.9-0.07-4.27,2.02-5.32,4.16
		c-4.24,8.66-5.82,17.86-5.47,27.48c0.09,2.53,1.2,3.93,3.4,4.76c-0.75,1.8-1.5,3.61-2.25,5.41c-2.38,4.95-3.87,10.32-6.85,15
		c-2.06-8.82-4.12-17.63-6.18-26.45c-1.01-1.43,0.21-2.33,0.83-3.34c1.44-2.37,3.03-4.66,4.17-7.19c0.54-1.21,1.3-2.46,0.41-3.98
		c-3.22,1.37-3.73,5.88-7.56,6.38c-0.3-0.21-0.52-0.48-0.66-0.82c-0.53-2.91,1.56-4.61,3.08-6.56c2.58-3.33,5.74-6.27,7.48-10.74
		c-2.33-0.01-3.12,1.6-4.32,2.51c-2.86,2.17-4.35,5.84-7.91,7.24c-0.28-0.23-0.49-0.51-0.62-0.85c-0.5-2.02,0.8-3.27,1.93-4.63
		c2.85-3.41,5.51-6.94,7.19-11.17c-3.77,1.07-5.71,4.27-8.33,6.61c-1.06,0.94-1.93,2.69-3.61,0.8c-0.26-0.48-0.38-1-0.38-1.54
		c0.18-2.23,1.75-3.76,2.84-5.53C1512.42,472.96,1513.23,471.59,1511.74,470.08z"/>
	<path class="st21" d="M1442.88,348.57c0.84,0.73,1.6,1.57,2.53,2.16c3,1.91,3.65,4.75,1.96,7.46c-1.59,2.55-1.22,4.57-0.17,6.97
		c1.53,3.47-0.07,6.86-3.93,8.7c-2.22,1.06-5.76-0.41-6.93-3.55c-1.42-3.79-2.48-7.55-6.64-9.37c-1.24-0.54-1.34-2.04-1.45-3.32
		c2.3-4.65,0.59-7.46-3.92-9.43c-2.4-1.05-3.06-2.96-0.53-4.88c0.11,0.82-0.06,1.71,0.61,2.39c6.32,1.85,8.5,4.84,7.27,9.94
		c-0.9,1.88-0.63,3.38,1.35,4.38c0.67,0.34,1.46,0.67,1.8,1.31c1.83,3.41,4.07,1.85,6.18,0.51c2.08-1.33,2.91-3.69,4.08-5.71
		c0.65-1.12-0.3-2.14-1.18-2.89c-1.34-1.14-2.72-2.23-3.26-4.02c-0.53-3.63,0.71-6.53,3.57-8.76c0.08-0.9,0.41-1.57,1.43-1.64
		c1.48,1.83-0.01,3.25-0.7,4.74C1444.19,345.19,1442.58,346.48,1442.88,348.57z"/>
	<path class="st22" d="M1518.56,416.21c-1.65-0.04-3.18-0.43-4.53-1.42c-5.41-6.92-11.05-13.69-14.65-21.83
		c-4.55-10.3-7.42-21.03-8.05-32.3c-0.06-1.07-0.82-3.05,0.92-3.12c1.59-0.07,1.24,1.86,1.28,3.05
		c0.51,17.71,6.79,33.31,17.25,47.38c0.53,0.71,0.91,1.53,1.84,1.97c-4.4-12.36-5.44-24.66-2.25-37.34
		C1508.9,387.98,1510.54,402.72,1518.56,416.21z"/>
	<path class="st7" d="M1370.01,500.26c2.14-8.38,9.32-7.95,15.61-8.7c5.49-0.66,11.01-0.1,16.38,1.31c4.31,1.13,5.43,2.77,5.17,7.28
		c-0.17,2.87-0.46,5.73-0.69,8.6c0.57,0.74,0.7,1.6,0.63,2.5c-1.32,15.54-2.36,31.1-4.11,46.6c-0.11,1.37,0.06,2.83-1.24,3.82
		c-0.03,4.5-3.43,5.31-6.75,6.21c-5.19,0.8-10.41,1.05-15.67,1.05c-3.81,0-6.85-0.98-8.58-4.62c-3.77-15.59-2.91-31.47-2.95-47.3
		C1367.78,511.31,1369.66,505.88,1370.01,500.26z"/>
	<path class="st23" d="M1368.61,389.01c1.59,1.09,1.96,2.8,1.3,4.32c-1.14,2.62-0.12,4.3,1.75,5.9c2.01,1.72,2.5,4.02,2.15,6.51
		c-0.32,2.29-1.62,3.91-3.79,4.78c-2.28,0.91-4.21,0.15-5.86-1.41c-3.06-2.89-5.58-6.5-10.45-6.62c-1.62-0.04-1.92-1.8-2.59-2.97
		c0.1-5.48,0.09-5.42-5.3-6.69c-2.03-0.48-5.23-0.11-3.83-4c0.52,0.28,1.04,0.57,1.56,0.85c4.14,0.72,8.69,0.6,10.74,5.51
		c0.5,1.21,1.5,0.49,2.26,0.15c2.74-1.26,5.33-2.78,8.22-4.7c-2.25-1.52-5.41-1.94-5.4-5.2c0-2.46-0.79-5.04,0.85-7.32
		c-0.26-0.71-0.52-1.43-0.78-2.14c2.43-0.14,3.02,1.35,2.91,3.37c-0.31,6.22-0.32,6.21,5.09,8.72
		C1367.9,388.28,1368.23,388.7,1368.61,389.01z"/>
	<path class="st22" d="M1358.72,479.92c-0.48,1.28-0.97,2.55-1.45,3.83c-2.35-13.26-5.82-26.31-7.16-39.77
		c2.72,3.28,2.38,7.38,3.25,11.13C1355.26,463.35,1356.39,471.76,1358.72,479.92z"/>
	<path class="st24" d="M1375.58,299.11c1.27-0.46,1.71,0.28,2.18,0.81c6.14,6.74,13.8,8.84,22.6,7.46c0.85-0.13,1.88-0.64,2.05,0.72
		c0.13,1.03-0.81,1.09-1.57,1.15c-8.1,0.63-15.9,0.05-22.34-5.75C1377.21,302.34,1375.78,301.23,1375.58,299.11z"/>
	<path class="st25" d="M1385.38,270.36c1.47,0.17,2.81,0.59,2.57,2.17c-0.24,1.55-1.6,2.06-3.11,2c-1.29-0.05-2.3-0.75-2.24-1.99
		C1382.67,270.88,1384.05,270.44,1385.38,270.36z"/>
	<path class="st26" d="M1409.91,284.6c-1.32-0.22-2.53-0.55-2.38-2.01c0.17-1.63,1.41-2.26,2.95-2.28c1.28-0.01,2.28,0.48,2.19,1.93
		C1412.55,283.99,1411.19,284.37,1409.91,284.6z"/>
	<path class="st14" d="M1401.76,561.65c0.09-1.16,0.18-2.32,0.28-3.49c0.69-0.87,1.68-1.01,2.69-1.14
		c13.76-1.77,26.93-5.81,39.91-10.56c0.24-0.09,0.47-0.19,0.7-0.27c4.36-1.53,5.31-0.78,5.01,3.97c-0.17,0.39-0.38,0.76-0.61,1.12
		l-0.18-0.08c-7.56,4-15.69,6.34-23.95,8.38c-6.69,1.65-13.55,2.31-20.28,3.67C1403.93,563.53,1402.17,563.89,1401.76,561.65z"/>
	<path class="st2" d="M1444.22,340.44c-0.99,3.02-3.74,5.49-2.81,9.1c0.14,0.35,0.36,0.87,0.13,1.05c-3.2,2.54-6.27,5.39-10.83,4.92
		c1.77-3.05,0.39-5.12-2.09-6.89c-1.39-1-3.19-1.4-4.22-2.93C1430.89,343.48,1437.5,341.74,1444.22,340.44z"/>
	<path class="st27" d="M1360.23,378.13c0.01,2.76-0.37,5.59,0.14,8.26c0.61,3.22,4.57,1.93,6.84,4.17
		c-4.55,2.52-8.85,4.9-13.61,7.53c0.22-5.37-3.04-6.61-7.11-6.99c-1.1-0.1-2.27-0.28-2.93-1.41c4.37-3.16,8.73-6.35,13.13-9.47
		C1357.8,379.42,1359.05,378.82,1360.23,378.13z"/>
	<path class="st28" d="M1449.73,550.44c-0.17-4.79-0.13-4.67-4.66-3.02c-13.97,5.08-28.06,9.7-43.04,10.74
		c1.48-16.48,2.96-32.95,4.44-49.43c8.39,0.34,16.68-0.93,25.01-1.55c1.14-0.09,2.19-0.49,2.96-1.42c4.93-1.9,10.17-2.74,15.12-4.64
		c12.27-4.71,23.21-11.49,32.97-20.27c3.2-2.88,5.45-6.63,8.73-9.42c1.25-1.06,2.34-3.19,4.39-1.77c2.04,1.41,1.62,3.56,0.74,5.49
		c-1.94,4.27-4.72,8.04-7.27,11.94c-0.82,1.26-1.75,2.46-2.07,4.16c3.08-1.72,5.5-4.22,7.67-6.94c2.77-3.47,6.04-6.42,9.15-9.55
		c0.88-0.89,1.84-1.76,3.26-1.65c1.53-1.01,3.06-2.03,4.59-3.04c3.01-0.02,2.53,1.53,1.53,3.36c-1.23,2.26-3.27,4.05-3.95,6.65
		c-2.96,4.87-7.04,8.83-11.08,13.97c4.37-4.49,7.49-8.94,11.38-12.68c2.18,0.3,2.54-1.88,3.77-2.86c2.15-1.71,3.74-4.08,6.17-5.49
		c0.89-0.52,1.85-1.02,2.74-0.1c0.83,0.85,0.08,1.69-0.31,2.38c-2.17,3.83-4.74,7.39-7.66,10.68c-1.02,1.14-2.07,2.22-2.02,3.89
		c-2.28,2.12-3.73,4.96-6.01,6.84c2.46-1.53,3.31-4.93,6.27-6.21c3.1-3.25,6.14-6.57,9.34-9.72c0.88-0.87,2.15-2.23,3.55-0.97
		c1.27,1.15-0.07,2.33-0.61,3.33c-1.84,3.44-4.52,6.27-6.97,9.26c-1.4,1.71-3.27,3.17-3.2,5.72c-0.87,0.69-1.47,1.59-2.04,2.53
		c-0.35,0.36,0.35,0.66-0.05,0.35c0.68-0.81,1.23-1.77,2.28-2.19c2.8-1.64,3.95-4.84,6.4-6.82c0.57-0.46,1.04-1.31,1.85-1.04
		c1.13,0.37,0.77,1.48,0.71,2.28c-0.3,4.51-3.25,7.78-5.51,11.35c-0.53,0.84-1.32,1.51-1.33,2.61c-3.86,1.85-6.25,5.34-9.16,8.25
		c-9.28,8.42-20.31,14.03-31.42,19.47c-7.02,3.44-14.11,6.77-21.39,9.64c-2.14,0.84-3.83,1.86-3.92,4.48
		C1451.09,549.74,1450.79,550.57,1449.73,550.44z"/>
	<path class="st29" d="M1449.73,550.44c-0.15-5.04,3.6-6.34,7.31-7.87c13.86-5.71,27.37-12.14,40.13-20.09
		c3.62-2.25,6.69-5.34,10.68-7.02c-4.5,6.23-10.7,10.64-16.87,14.89c-12.78,8.8-26.56,15.82-41.25,20.94
		C1449.73,551,1449.73,550.72,1449.73,550.44z"/>
	<path class="st18" d="M1507.15,473.12c-6.15,5.26-11.21,11.6-16.98,17.24c-1.31,1.28-3.32,3.76-4.41,2.79
		c-1.86-1.65,0.69-3.51,1.66-5.11c2.21-3.67,4.66-7.2,6.92-10.84c0.72-1.16,1.16-2.5,1.71-3.77c0.58-1.34,0.24-2.69-0.82-3.4
		c-1.3-0.88-2.01,0.62-2.69,1.37c-6.15,6.86-12.47,13.52-20.15,18.76c-10.73,7.32-22.33,12.62-34.99,15.56
		c-0.98,0.23-1.96,0.52-2.95,0.04c-5.17-5.13-10.84-9.78-15.27-15.62c-1.36-1.79-2.68-3.67-3.71-5.66
		c-2.57-4.98-2.03-7.42,2.16-11.29c1.57,0.26,2.66,1.35,3.85,2.25c7.19,5.4,14.92,6.78,23.34,3.13c-8.03,3.49-15.52,2.31-22.52-2.64
		c-1.31-0.93-2.74-1.85-3.05-3.65c0.53-2.61,1.89-4.85,3.15-7.14c2.96-5.37,7.37-7.55,13.4-6.33c1.7,0.14,2.23-0.94,2.46-2.35
		c1.66-0.98,3.35-0.65,5.12-0.29c12.58,2.52,24.97,5.81,37.32,9.24c2.92,0.81,3.9,0.45,3.81-2.85c-0.18-6.2,0.78-12.31,3.01-18.15
		c1.42-3.72,3.37-7.08,7.28-8.75c3.56-1.53,6.44-0.59,8.33,2.77c2.34,4.17,2.88,8.81,3.41,13.45c0.57,5.73,0.08,11.47,0.27,17.21
		c0.04,1.35-0.35,2.75,0.35,4.05L1507.15,473.12z"/>
	<path class="st30" d="M1419.25,472.28c7.61,7.15,16.18,9.45,26.06,5.16c0.77-0.33,1.77-1.2,2.3-0.12c0.71,1.45-0.93,1.49-1.68,1.85
		c-9.42,4.6-19.94,2.35-28.3-5.99C1418.17,472.89,1418.71,472.58,1419.25,472.28z"/>
	<path class="st28" d="M1507.16,473.12c-1.4-1.81-0.61-3.88-0.63-5.83c-0.08-5.14,0-10.28,0.01-15.43
		c1.37,4.14,0.47,8.41,0.66,12.61C1507.31,467.36,1507.18,470.24,1507.16,473.12z"/>
	<path class="st31" d="M1438.26,456.46c0.44,1.14,1.42,2.46,0.12,3.39c-0.83,0.6-1.81-0.42-2.58-1.04
		C1436.31,457.7,1437.12,456.9,1438.26,456.46z"/>
	<path class="st32" d="M1509.63,481.38c-2.87,5.83-7.79,9.85-12.52,14.07c3.42-5.64,7.3-10.91,12.21-15.36
		C1509.42,480.52,1509.53,480.95,1509.63,481.38z"/>
	<path class="st33" d="M1512.58,490.53c-2.17,3.31-4.82,6.19-8.06,8.52c2.37-3.25,3.65-7.42,7.81-9.16
		C1512.4,490.1,1512.49,490.32,1512.58,490.53z"/>
	<path class="st34" d="M1514.88,498.83c-0.47,1.99-1.91,3.13-3.98,4.51c0.65-2.63,0.83-4.89,3.79-5.2
		C1514.73,498.38,1514.79,498.61,1514.88,498.83z"/>
	<path class="st20" d="M1430.71,355.51c3.85-1.48,7.65-3.06,10.71-5.98c0.24,0.29,0.46,0.59,0.71,0.86
		c4.86,5.26,4.92,5.3,1.25,11.03c-1.05,1.64-3.4,1.49-4.8,2.71c-2.79,2.43-2.82-0.7-3.84-1.83c-0.6-0.66-1.24-1.19-2.12-1.49
		C1429.8,359.87,1429.31,358.02,1430.71,355.51z"/>
	<path class="st20" d="M1446.17,369.32c0.03-2.26-1.87-3.31-3.05-4.97C1446.44,364.63,1446.68,365.01,1446.17,369.32z"/>
	<path class="st20" d="M1369.34,400.53c2.3,0.58,3.94,1.67,3.55,5.02C1371.64,403.46,1370.79,401.76,1369.34,400.53z"/>
	<path class="st35" d="M1495.47,443.03c3.17,6.58,1.48,12.49-0.3,18.37c-0.58,1.91-1.32,3.77-2.09,5.62
		c-0.86,2.06-2.37,2.31-4.25,1.36c-2.07-1.04-1.12-2.47-0.5-3.83C1491.38,457.8,1494.16,450.96,1495.47,443.03z"/>
	<path class="st36" d="M1463.05,466.91c0.24,0.33,0.72,0.68,0.76,1.08c0.34,3.21,2.67,4.66,5.14,6.01c0.52,0.29,1.24,0.54,0.99,1.35
		c-0.24,0.79-0.91,0.84-1.51,0.54c-3-1.49-5.67-3.32-6.46-6.89C1461.79,468.16,1461.57,467.21,1463.05,466.91z"/>
</g>
</svg>
