<?xml version="1.0" encoding="utf-8"?>
<!-- Generator: Adobe Illustrator 24.3.0, SVG Export Plug-In . SVG Version: 6.00 Build 0)  -->
<svg version="1.1" id="Layer_1" xmlns="http://www.w3.org/2000/svg" xmlns:xlink="http://www.w3.org/1999/xlink" x="0px" y="0px"
	 viewBox="0 0 1445 1088" style="enable-background:new 0 0 1445 1088;" xml:space="preserve">
<style type="text/css">
	.st0{fill:#00C897;}
	.st1{fill:#A3AEC2;}
	.st2{fill:#EEE4C1;}
	.st3{fill:#E5DBB8;}
	.st4{fill:#F4AE8C;}
	.st5{fill:#DAD0AD;}
	.st6{fill:#AEC2CB;}
	.st7{fill:#412822;}
	.st8{fill:#A66D3B;}
	.st9{fill:#C68D57;}
	.st10{fill:#371E18;}
	.st11{fill:#181E28;}
	.st12{fill:#E09A78;}
	.st13{fill:#935927;}
	.st14{fill:#181F28;}
	.st15{fill:#A76D3B;}
	.st16{fill:#A76D3C;}
	.st17{fill:#FCF0DA;}
	.st18{fill:#D0C6A4;}
	.st19{fill:#BC834D;}
	.st20{fill:#9C7441;}
	.st21{fill:#87929D;}
	.st22{fill:#A47845;}
	.st23{fill:#E09C7B;}
	.st24{fill:#5A4A46;}
	.st25{fill:#504644;}
	.st26{fill:#A4AEC2;}
	.st27{fill:#E09A79;}
	.st28{fill:#DAD0AE;}
	.st29{fill:#544A47;}
	.st30{fill:#625851;}
	.st31{fill:#FAECD6;}
	.st32{fill:#F9E8CD;}
	.st33{fill:#F8E7CE;}
	.st34{fill:#DBD0AE;}
	.st35{fill:#59504C;}
</style>
<circle class="st0" cx="685.28" cy="579.97" r="304"/>
<g>
	<path class="st1" d="M861.54,550.92c-4.19,2.17-8.24,4.62-12.35,6.94c-5.09,4.88-8.69,11.33-15.34,14.57
		c-3.02,1.84-6.08,3.57-9.76,3.66c-0.61-0.08-1.21-0.2-1.73-0.53c-5.07-3.2-10.73-18.54-9.04-24.49c7.07-1.85,14.27-1.69,21.17,0.15
		c4.94,1.32,9.54,2.25,14.41,0.37"/>
	<path class="st2" d="M824.3,575.41c3.25-1.15,6.63-1.99,9.48-4.08c4.43-0.04,6.91,3.47,9.87,5.81c4.15,3.29,7.98,7.06,10.91,11.58
		c1.54,4.51,5.38,7.55,7.21,12.03c4.94,12.1,6.99,24.44,5.09,37.41c-0.65,4.48-0.39,8.31,3.46,11.95
		c17.97,16.98,25.03,38.4,23.6,62.69c-0.58,9.89-3.2,19.53-8.15,28.23c-2.12,3.74-1.57,6.88,0.12,10.3
		c3.98,8.04,6.12,16.76,6.13,25.52c0.01,17.07-4.79,32.73-17.04,45.38c-2.54,2.62-5.02,5.31-7.52,7.96
		c-6.79,7.26-15.61,10.38-25.05,11.96c-2.84,0.48-3.98,1.51-3.9,4.35c0.39,13.91-4.21,26.33-11.49,37.92
		c-7.19,10.46-16.13,19.04-27.14,25.42c-12.45,7.22-25.92,11.31-40.12,13.13c-3.31,0.43-6.61,1.21-9.99,0.95
		c-1.64-0.12-3.39,0.21-4.75-1.12c-5.14-0.57-9.46,0.46-13.86,3.86c-9.89,7.61-21.62,10.4-33.96,11.86
		c-12.71,1.5-25.29,0.88-37.64-1.39c-14.32-2.64-28.43-6.54-40.15-16.14c-3.72-3.05-5.86-7.32-9.18-10.69
		c-5.67-5.77-11.37-8.49-20.17-7.21c-15.33,2.22-30.9,1.5-46.18-1.79c-1.6-0.34-2.96-0.32-4.42,0.15c-2.1-1.03-4.5-1.01-6.64-1.9
		c-16.77-5.05-32.41-12.54-47.19-21.88c-0.81-1.6-2.34-2.29-3.77-3.18c-13.51-8.52-26.97-17.33-37.86-29.05
		c-8.88-9.56-18.48-17.99-29.24-25.2c-3.66-2.45-7.53-4.57-11.33-6.81c-1.84-1.08-2.54-2.32-1.47-4.49
		c3.2-6.52,6.19-13.14,8.7-19.97c1.15-3.11,2.54-4.39,6.32-2.14c17.59,10.47,35.17,21.03,53.73,29.75
		c10.29,4.83,20.51,10.14,31.8,12.11c5.93,1.04,12.38,2.21,17.85-2.26c11.3-3.51,21.09-9.57,29.67-17.65
		c4.22-3.97,6.21-8.66,5.99-14.63c-0.18-5.03,1.75-9.83,3.62-14.5c4.06-10.09,9.22-19.49,16.95-27.3c4.34-3.86,4.75-8.64,3.18-13.84
		c-1.6-5.27-3.81-10.34-6.16-15.28c-6.89-14.51-2.9-26.65,7.45-37.6c3.42-3.62,7.01-7.08,11.01-10.81
		c-5.87-2.53-11.59-3.39-17.18-4.67c-4.3-0.99-8.66-1.72-13.04-2.37c-4.77-0.71-9.34-1.34-12.95,2.85c-0.43-0.84,0.6-3.39-2.08-1.43
		c-5.24,3.82-9.16,8.89-13.26,13.73c-11.3,13.31-21.26,27.62-30.82,42.22c-3.67,5.6-9.39,4.54-14.49,3.69
		c-4.26-0.71-8.49-2.17-12.59-3.9c-2.36-1-2.76-1.82-1.58-3.93c4.25-7.55,8.25-15.25,12.69-22.69
		c7.38-12.36,15.04-24.57,22.56-36.85c0.37-0.6,0.93-1.3,0.09-2c0.4-3.6,3.49-5.57,5.15-8.41c6.64-11.43,16.04-18.52,29.53-20.71
		c11.11-1.8,22.11-4.45,33.26-6.13c3.82-0.57,7.33-1.13,7.21-6.22c-0.02-0.88,0.59-1.74,1.75-1.72c0.89,0.77,0.69,1.85,0.41,2.86
		c1.99-6.17,6.2-10.61,10.4-14.94c16.47-17.01,36.78-21.73,59.52-18.05c3.18,0.52,5.47-0.25,7.88-2.3
		c13.51-11.48,29-13.81,45.9-9.75c11.71,2.82,21.88,8.24,30.35,16.85c2.5,2.55,4.51,5.36,5.59,8.78c0.26,0.36,0.53,0.72,0.84,1.04
		c9.12,3.43,17.63,7.82,23.09,16.32c5.12,7.96,5.7,16.72,1.42,24.9c-4.1,7.83-11.69,10.87-20.47,10.38
		c-6.85-0.38-10.2-3.36-11.71-10.07c-1.22-5.43,2.18-13.72,6.67-16.02c2.35-1.2,4.75-1.25,6.88,0.49c2.04,1.67,2.17,3.9,1.44,6.27
		c-0.26,0.86-0.84,1.61-0.95,2.89c3.83,0.21,5.99-2.08,7.61-4.79c1.75-2.93,1.16-6.05-0.89-8.58c-3.63-4.5-8.41-6.51-14.2-5.4
		c-9.44,1.82-18.2,11.18-19.24,20.41c-1.19,10.62,4.1,20.52,13.35,25c21.07,10.21,43.58,1.18,51.31-20.99
		c3.79-10.86,1.07-20.79-6.48-29.38c-2.32-2.64-4.95-4.98-7.78-7.08c-1.74-1.29-3.35-2.72-3.35-5.17c0.13-3.06,1-5.81,3.35-7.94
		c1.57-1.32,3.39-0.96,5.21-0.79c14.25,1.27,26.64-2.74,36.8-13.03C820.69,576.78,822.23,575.64,824.3,575.41z"/>
	<path class="st1" d="M674.39,196.44c38.89,0.16,74.61,11.41,107.97,30.9c18.71,10.93,35.39,24.44,49.65,40.73
		c17.52,20.01,28.22,43.52,34.66,69.24c5.08,20.28,7.34,40.75,6.24,61.58c-0.55,10.36-2.82,20.46-5.43,30.48
		c-1.67,1.42-3.51,0.74-5.22,0.24c-20.29-5.96-41.04-8.84-62.12-9.57c-0.3-0.01-0.59-0.15-0.87-0.26c-1.85-2.62-0.47-5.83-1.56-8.59
		c0.35-9.76-1-19.46-1.18-29.21c-0.17-9.24-5.97-16.13-11.57-22.79c-3.42-4.07-7.32-7.75-11.31-11.3c-0.57-0.46-1.06-1-1.47-1.6
		c-8.94-15.24-11.67-31.66-9.4-49.03c-1.57,11.7-0.94,23.24,2.79,34.55c0.29,0.87,0.65,1.72,0.85,2.61
		c0.31,1.36,1.83,3.15-0.07,4.02c-1.54,0.71-2.71-1.08-3.63-2.24c-5.49-6.98-10.01-14.58-13.29-22.82
		c-4.44-11.17-7.63-22.67-7.69-29.51c0.77,12.19,5.57,28.49,14.74,43.44c2.63,4.28,5.47,8.41,9.05,12c1.17,1.17,2.25,2.51,2.42,4.3
		c-1.31,2.03-3.06,0.88-4.44,0.37c-12.75-4.73-24.21-11.45-32.64-22.45c-12.15-15.85-22.28-33.04-32.71-50.02
		c-0.95-1.56-1.79-3.18-2.84-4.68c-3.54-5.05-3.9-5.15-9.49-2.58c-1.41,0.65-2.8,1.26-4.32,0.32c-1.57-2.39,0.11-4.18,1.11-6.13
		c0.97-1.9,2.87-3.67,0.96-6.04c-2.55-3.21-2.5-7.17-2.94-10.89c-1.61-13.77-3.69-27.47-6.31-41.09
		C674.08,199.1,673.56,197.76,674.39,196.44z"/>
	<path class="st1" d="M575.46,525.75c-17.23,0.01-33.9-2.96-49.98-9.22c-6.36-2.48-10.75-6.24-13.68-12.93
		c-9.83-22.47-17.16-45.65-21.13-69.81c-7.36-44.87-4.05-88.47,16.85-129.69c7.13-14.07,15.86-27.1,26.5-38.79
		c3.68,5.4,6.34,11.38,9.6,17.01c4.81,8.3,9.51,16.65,14.52,24.83c1.1,1.79,2.46,3.53,2.43,5.82c-0.05,3.95,3.38,3.25,5.51,3.86
		c5.73,1.64,6.59,2.9,5.21,9.04c-0.44,0.42,0.2-0.03-0.26,0.38c-6.95,6.16-6.89,6.13-2.77,14.65c7.11,14.69,13.9,29.46,17.88,45.46
		c3.02,12.16,0.2,23.24-3.9,34.37c-0.42,1.14-1.18,2.15-2.51,2.47c-1.97-0.58-1.61-2.43-1.89-3.79
		c-2.45-11.84-5.17-23.63-7.11-35.57c2.5,14.63,5.66,29.13,8.8,43.64c0.92,4.17,1.34,8.43,1.66,12.67c0.28,3.77,1.76,5.53,5.65,5.39
		c2.69-0.1,5.57-0.18,7.45,2.46c1.17,4.34-0.96,8.36-1.2,12.58c-1.05,19.12-1.9,38.23,1.64,57.22c0.44,2.35,1.39,4.72,0.19,7.13
		C588.56,528.49,582.03,527.65,575.46,525.75z"/>
	<path class="st3" d="M557.93,241.39c-3.36-8.75-1.27-17.29,0.88-25.86c4.24-16.89,9.73-33.39,15.07-49.94
		c0.32-1,0.47-2.06,0.69-3.09c3.53,5.08,9.13,8.77,10.34,15.42c0.27,1.51,0.74,2.96,1.25,4.41c1.97,5.66,3.41,6.37,9.52,5.87
		c10.47-0.85,20.42,0.41,28.56,8.07c2.24,2.11,4.88,3.67,7.98,4.26c0.3,0.06,0.62,0.11,0.88,0.26c5.58,3.31,11.2,6.56,16.9,9.66
		c-1.56,9.46-1.58,19.13-3.51,28.5c-1.98,9.64-7.55,16.53-17.55,19.09c-20.29,5.18-40.39,6.31-59.64-3.72
		C564.06,251.58,559.22,247.89,557.93,241.39z"/>
	<path class="st4" d="M824.3,575.41c-3.57,2.33-6.02,5.89-9.48,8.41c-10.49,7.64-22.04,10.22-34.75,8.23
		c-0.67-0.1-1.42,0.34-2.13,0.52c-2.22-0.9-2.85-2.98-3.59-4.94c-2.4-6.39-3.62-13.04-4.42-19.79c-1.19-7.85-1.77-15.77-2.74-23.64
		c-2.43-19.71,3.11-37.78,10.41-55.59c2.39-4.95,4.46-10.04,6.62-15.09c0.66-1.53,1.29-3.12,2.69-4.19
		c1.17-0.59,2.38-0.48,3.54-0.08c16.02,5.58,32.2,10.72,48.06,16.74c0.58,0.22,1.01,0.65,1.37,1.16c-1.54,3.55-5.15,5.96-5.56,10.13
		c-5.16,8.22-10.91,16.06-15.4,24.7c-4.25,8.18-6.18,16.77-4.84,25.98c0.18,1.22,0.33,2.42-0.55,3.47
		c0.67,7.38,3.1,14.19,6.79,20.57C821.23,573.53,822.21,575.16,824.3,575.41z"/>
	<path class="st4" d="M649.55,210.2c-5.42-0.89-9.96-3.46-14.03-7.06c-2.68-2.37-6.77-1.27-9.51-3.92
		c-9.33-9.06-20.53-11.64-33.15-9.32c-2.99,0.55-5.98-1.05-6.48-3.92c-1.6-9.09-7.82-15.69-11.8-23.48
		c-1.05-7.99,0.33-14.98,7.97-19.39c1.94-2.72,4.7-3.85,7.91-3.75c3.18,0.1,5.52-1.28,7.58-3.53c1.54-1.69,3.25-3.22,4.83-4.87
		c5.29-5.56,11.9-7.7,19.17-5.97c15.02,3.57,28.76,10.02,40.2,20.63c5.48,5.08,6.86,14.39,3.81,21.52
		c-1.21,10.05-4.02,19.7-7.28,29.24c-0.76,5.12-4.57,8.62-6.87,12.93C651.25,209.95,650.49,210.3,649.55,210.2z"/>
	<path class="st5" d="M524.22,805.49c-8.33-2.14-16.64-4.36-24.99-6.4c-12.42-3.04-22.91-9.56-32.56-17.7
		c-16.42-13.85-29.67-30.54-42.68-47.45c-1.91-2.48-2.17-4.15,0.51-6.35c4-3.28,7.69-6.93,11.41-10.53
		c1.57-1.52,2.85-1.94,4.68-0.34c10.54,9.25,21.78,17.61,33.6,25.1c11.41,7.23,22.9,14.51,36.56,17.03
		c6.49,1.2,13.01,0.75,19.54,0.74c1.52,0,2.03-1.14,2.86-1.97c6.06,0.88,12.01-0.45,18-0.92c2.68-0.21,5.29-1.39,8.05-0.59
		c2.26,2.15,0.2,4-0.64,5.68c-6.42,12.82-12.67,25.73-19.19,38.5c-1.27,2.48-1.4,5.8-4.7,6.93
		C531,807.65,527.49,807.25,524.22,805.49z"/>
	<path class="st5" d="M586.34,616.43c-0.25,0.37-0.78,0.8-0.71,1.11c1.34,6.57-3.04,7.37-7.83,8c-13.98,1.84-27.72,4.81-41.41,8.18
		c-6.49,1.6-11.11,5.18-15.09,10.24c-4.03,5.12-7.2,10.9-11.86,15.53c-7.26,2.71-14.64,5.13-21.74,8.21
		c-6.29,2.73-11.29,1.86-16.1-3.03c-3.34-3.4-6.27-7.01-8.68-11.09c-0.93-1.57-1.3-2.77,0.66-4.2
		c17.11-12.43,34.1-25.03,51.19-37.48c10.21-7.44,20.41-14.89,30.86-21.97c5.96-4.04,11.27-9.43,18.95-10.47
		c0.58-0.08,1.05-1.02,1.57-1.56c7.85,0.69,15.74,0.94,23.51,2.43c1.93,0.37,3.91,0.57,5.61,1.71c1.41,1.8,0.28,3.57-0.32,5.17
		c-3.06,8.18-5.16,16.59-6.76,25.16C587.9,613.83,587.64,615.38,586.34,616.43z"/>
	<path class="st1" d="M649.55,210.2c0.6-0.37,1.21-0.74,1.81-1.11c1.85,0.19,2,1.71,2.14,3.02c1.6,14.96,4.73,29.72,5.97,44.72
		c-0.87,2.57-1.94,4.76,1.51,6.83c6.66,4.01,6.51,4.26,3.59,11.81c-10.56,6.35-21.48,12.05-32.29,17.93
		c-10.56,5.74-21.16,11.4-31.59,17.38c-2.74,1.57-5.5,3.37-8.95,2.78c-1.31-0.33-2.52-0.95-3.81-1.35c-4.77-1.48-5.95-3.3-5.21-8.38
		c0.34-2.34,0.85-4.51-1.87-5.76c-2.79-1.92-3.76-5.13-5.41-7.83c-7.5-12.22-14.62-24.68-21.87-37.05c-1-1.7-2.11-3.39-2.01-5.51
		c2.13-2.1,4.26-4.2,6.39-6.3c7.83,12.83,20.26,16.76,34.22,18.46c12.44,1.52,24.48,0.08,36.43-3.01
		c11.49-2.97,15.96-11.33,17.38-22.44C646.99,226.32,646.54,217.99,649.55,210.2z"/>
	<path class="st6" d="M798.74,419.23c12.6-0.91,24.94,1.32,37.33,3.1c10.67,1.54,20.95,4.68,31.42,7.05
		c6.09,2.9,7.01,4.22,5.36,12.85c-2.17,11.35-5.97,22.21-11.09,32.63c-2.36,4.79-5.92,5.62-10.44,4.74
		c-1.94-0.38-3.85-0.81-5.84-0.71c-2.16,0.81-4.19-0.05-6.24-0.51c-16.88-3.82-33.35-9.07-49.84-14.25
		c-5.02-1.35-5.35-5.78-5.19-9.52c0.42-10.32,1.81-20.54,6.47-29.99c0.88-1.78,2.02-3.4,3.59-4.64
		C795.6,418.92,796.99,417.94,798.74,419.23z"/>
	<path class="st7" d="M745.01,922.82c24.2-0.47,46.54-6.42,65.67-22.07c5.93-4.85,10.52-10.91,15.46-16.67
		c4.05-2.28,8.59-1,12.87-1.7c6.12-0.99,12.21-1.89,18.11-3.86c1.55-0.52,3.19-1.11,4.75,0.07c2.96,5.85,2.26,11.92,1.2,18.07
		c-0.32,1.87-1.43,3.69-0.72,5.71c-0.06,3.46-1.85,5.34-4.99,6.8c-8.06,3.75-15.14,8.96-21.47,15.27
		c-7.8,7.77-16.81,14.06-25.84,20.26c-7.35,5.04-15.94,6.22-24.49,5.68c-10.89-0.69-21.89-0.82-32.6-3.47
		c-4.74-1.17-9.34-2.71-13.86-4.52c-1.81-0.73-3.82-1.66-2.68-4.35C737.81,932.13,740.44,926.92,745.01,922.82z"/>
	<path class="st3" d="M666.05,167.13c0-2.29-0.3-4.63,0.04-6.87c1.45-9.46-4.2-14.83-11.1-19.26c-9.87-6.33-20.19-11.81-31.72-14.58
		c-7.52-1.81-14.17-0.45-19.58,5.43c-1.34,1.46-2.9,2.72-4.19,4.23c-2.59,3.04-5.4,5.12-9.78,4.53c-2.61-0.35-4.91,1.28-7.18,2.5
		c4.9-11.81,10.12-23.42,16.82-34.38c8.23-13.47,13.97-16.42,29.65-13.93c13.52,2.14,26.88,4.93,39.71,9.85
		c4.54,1.74,8.93,3.73,12.84,6.8c3.65,2.87,4.61,6.51,3.44,10.53c-0.81,2.78,0.14,4.3,1.91,5.96c1.22,1.14,2.44,2.33,3.43,3.67
		c3.82,5.13,3.23,7.96-2.47,10.73c-3.42,1.66-4.22,3.07-1.5,6.42c4.64,5.71,3.38,10.31-3.32,13.43
		C677.67,164.7,671.85,165.91,666.05,167.13z"/>
	<path class="st8" d="M559.8,756.75c-6.57,0.82-13.12,1.85-19.71,2.36c-2.28,0.18-5.4,2.35-6.97-1.49
		c5.07-27.64,10.14-55.27,15.2-82.91c0.25-1.34,0.39-2.7,0.59-4.05c0.49-3.91,3.22-4.71,6.5-4.57c13.43,0.58,26.2,4.34,39.24,7.73
		c-0.97,2.48-2.97,3.17-4.39,4.44c-4.44,3.96-8.67,8.1-12.28,12.86c-6.54,8.61-8.82,17.86-4.53,28.23
		c2.67,6.46,5.39,12.92,7.72,19.5c1.95,5.5,1.03,10.53-3.97,14.25C571.68,755.62,566.01,757.44,559.8,756.75z"/>
	<path class="st8" d="M595.35,582.27c-9.18-0.67-18.21-3.02-27.49-2.67c-1.16,0.04-1.52-0.76-1.73-1.7
		c3.02-16.29,6.04-32.58,9.06-48.88c2.07,2.56,4.67,2.75,7.77,2.22c6.35-1.09,6.6-0.87,9.83,4.79c0.88,1.55,2.18,2,3.78,2.06
		c8.11,0.29,16.09-0.86,24.05-2.26c3.77-0.67,3.99-3.16,3.04-6.19c-0.03-0.3-0.07-0.77,0.11-0.84c3.51-1.52,6.05-4.18,8.41-7.07
		c6.62,1.36,12.98-0.71,19.31-1.85c11.65-2.11,23.16-4.93,34.02-9.91c1.22-0.56,2.53-1.05,3.95-0.96c1.82,1.42,0.76,3.08,0.23,4.56
		c-1.67,4.67-4.87,7.98-9.22,10.33c-8.81,4.74-18.43,7.23-27.85,10.25c-8.72,2.8-17.31,5.88-25.5,10.03
		c-13.97,7.08-22.45,18.85-28.33,32.91C597.95,579,597.59,581.27,595.35,582.27z"/>
	<path class="st9" d="M658.63,257.78c-2.13-14.93-4.25-29.86-6.37-44.8c-0.19-1.33,0.11-2.76-0.91-3.89
		c1.86-4.6,4.86-8.53,7.41-12.73c1.17-0.03,2.34-0.06,3.5-0.1c3.98-0.34,7.95-0.58,11.92,0.14c0,0,0.19,0.04,0.2,0.04
		c3.36,11.41,4.58,23.21,6.28,34.92c0.81,5.56,1.38,11.15,2.13,16.71c0.22,1.67,0.84,3.2,2.27,4.27c-0.49,1.07-0.98,2.13-2.11,2.7
		c-7.77,2.42-15.53,4.95-23.66,5.93C657.79,260.18,658.02,259.02,658.63,257.78z"/>
	<path class="st9" d="M551.54,247.68c8.76,14.85,17.53,29.7,26.29,44.56c1,1.69,2.02,3.38,3.02,5.06c0.82,0.81,1.56,1.64,1.11,2.93
		c-5.47,4.5-11.28,8.56-16.92,12.85c-0.97,0.74-2.04,1.3-3.31,1.32c-0.97-0.13-1.72-0.56-1.99-1.58
		c-5.49-9.6-11.12-19.13-16.41-28.83c-3.33-6.1-7.52-11.8-9.31-18.68C538.92,258.5,544.83,252.69,551.54,247.68z"/>
	<path class="st8" d="M861.87,878.6c-10.15,3.23-20.45,5.63-31.18,5.66c-1.52,0-3.03-0.12-4.55-0.18c4.72-8.87,9.2-17.8,10.67-27.94
		c0.57-3.96,0.55-7.88,0.41-11.84c-0.05-1.43-0.21-2.86,1.82-2.95c10.6-0.48,19.46-5.36,27.97-11.11c0.11-0.07,0.3-0.03,0.45-0.05
		c-0.17,11.85-0.52,23.69-0.42,35.54C867.08,870.91,867.02,875.68,861.87,878.6z"/>
	<path class="st8" d="M813.54,551.4c-3.66-14.88,2.05-27.44,9.77-39.5c2.87-4.48,5.82-8.91,8.75-13.35c0.52-0.79,0.76-2.2,2.27-1.31
		c4.96,16.97,9.31,34.09,12.92,51.4c0.24,1.15,0.1,2.53,1.66,2.94c-0.92,0.49-1.91,0.88-2.72,1.49c-2.42,1.82-4.31,2.09-7.54,0.6
		C830.74,550.04,822.01,551.34,813.54,551.4z"/>
	<path class="st10" d="M485.62,877.68c1,0.27,2.13,0.34,2.99,0.85c14.18,8.32,29.12,14.96,44.64,20.33
		c-3.54,2.87-7.82,3.99-12.13,4.85c-19.16,3.8-37.73,2.12-55.44-6.53c-2.02-0.99-4.16-2.03-4.62-4.65
		c1.47-6.36,5.65-9.77,11.82-11.25C477.18,880.25,481.38,878.89,485.62,877.68z"/>
	<path class="st11" d="M736.43,938.04c0.14,1.74,1.14,2.5,2.75,3.17c10.75,4.43,22.01,6.81,33.53,7.02c7.07,0.13,14,1.46,21.28,0.55
		c8.63-1.08,15.36-4.88,22.04-9.73c8.49-6.16,16.52-12.84,24.08-20.1c4.53-4.34,9.84-7.57,15.42-10.25
		c3.08-1.48,5.72-2.96,6.84-6.33c1.51,5.13,0.81,10.18-0.63,15.18c-0.51,1.77-2.04,2.61-3.55,3.36c-3.27,1.63-6.67,3.03-9.82,4.86
		c-3.49,2.02-5.79,2.15-5.78-3.07c-5.84,3.09-10.35,7.07-14.34,11.76c-10.27,12.07-22.54,19.76-39.05,20.86
		c-17.14,1.15-33.39-1.3-49.2-7.63c-1.4-0.56-2.83-1.19-4.05-2.06C731.76,942.66,731.91,940.92,736.43,938.04z"/>
	<path class="st12" d="M789.81,463.24c14.71,3.81,28.97,9.15,43.81,12.52c3.99,0.9,7.91,2.09,11.86,3.14
		c-1.86,2.74-3.72,5.49-5.58,8.23c-10.31-2.45-19.93-6.97-30.04-10.01c-7.64-2.3-14.92-5.71-22.77-7.34
		C786.22,466.86,787.85,464.98,789.81,463.24z"/>
	<path class="st13" d="M623.83,529.27c3.02,0.7,1.75,3.11,1.82,4.86c0.06,1.61-1.13,2.25-2.66,2.57c-9.37,1.93-18.82,2.91-28.4,2.77
		c-2.88-0.04-3.37-2.16-3.43-3.91c-0.1-3.32-1.88-3.75-4.45-3.46c-2.25,0.26-4.49,0.57-6.73,0.9c-3.1,0.46-5.05-0.42-4.8-3.98
		c0.09-1.09,0.18-2.18,0.27-3.27c6.36-0.12,12.74,0.31,19.05-0.8c7.18,5.94,15.61,3.83,23.72,3.66
		C620.15,528.57,622.12,527.68,623.83,529.27z"/>
	<path class="st14" d="M461.07,892.52c7.56,5.86,16.23,8.85,25.61,10.06c5.67,0.73,11.3,1.95,17.06,1.81
		c9.08-0.23,18.05-1.04,26.39-5.15c0.89-0.44,2.08-0.26,3.12-0.37c2.14,0.68,4.89-0.07,6.2,2.6c-19.76,8.82-40.06,10.87-60.97,4.74
		c-5.87-1.72-11.36-4.3-16.59-7.5C458.91,896.88,458.03,895.03,461.07,892.52z"/>
	<path class="st15" d="M524.22,805.49c3.66-0.68,7.1,1.31,10.74,0.88c4.4-0.94,8.72,0.11,13.04,0.6c1.47,0.17,3.66,0.3,2.64,2.97
		c-7.61,6.94-16.12,12.46-25.77,16.08c-1.35,0.51-2.86,2.16-4.52,0.43C521.64,819.46,522.93,812.47,524.22,805.49z"/>
	<path class="st16" d="M854.55,588.73c-5.78-5.08-10.77-11.05-17.34-15.23c-1.14-0.73-2.29-1.44-3.44-2.16
		c3.44-3.11,8.06-4.84,9.9-9.86c0.61-1.66,3.61-2.43,5.52-3.61C850.98,568.15,852.77,578.44,854.55,588.73z"/>
	<path class="st4" d="M674.19,196.4c-3.97-0.04-7.95-0.09-11.92-0.14C666.26,195.26,670.24,195.05,674.19,196.4z"/>
	<path class="st17" d="M595.35,582.27c6.03-15.28,13.54-29.4,28.71-37.76c8.19-4.51,16.85-7.76,25.68-10.7
		c9.81-3.26,19.93-5.66,29.24-10.37c5.98-3.02,9.83-7.55,10.8-14.31c0.12-0.19,0.25-0.37,0.37-0.56
		c11.02-4.84,22.17-9.47,32.66-15.41c13.44-7.6,26.36-15.97,36.64-27.8c2.3-3.04,5.09-5.6,7.84-8.19c1.3-1.22,2.74-2.62,4.73-0.99
		c3.46,10.32,7.06,20.61,6.79,31.74c-2.65,8.04-5.33,16.08-7.96,24.13c-4.16,12.75-2.69,25.76-1.63,38.73
		c0.47,5.73,1.32,11.42,2,17.13c-0.83,1.96-2.63,2.89-4.28,3.93c-8.95,5.61-15.13,13.35-18.39,23.45c-0.64,1.98-1.2,4.1-2.89,5.57
		c-3.32-8.73-10.35-13.79-17.9-18.47c-9.16-5.68-19.23-8.6-29.77-8.86c-11.04-0.28-22.11,1.58-30.36,9.75
		c-5.18,5.13-10.59,4.38-16.59,3.61c-18.57-2.39-35.12,2.17-49.34,14.64c-5.87,5.15-10.54,11.26-14.65,17.93
		c-1.16-0.98-0.46-2.1-0.71-3.03C587.78,604.63,591.23,593.36,595.35,582.27z"/>
	<path class="st5" d="M658.43,834.1c6.48-1.32,12.89-2.76,19.36-3.86c2.61-0.45,4.48,1.79,6.45,3.1
		c7.66,5.12,14.3,11.13,17.82,20.09c4.62,11.78,1.22,22.15-5.45,31.7c-10.92,15.63-29.06,18-44.25,11.97
		c-11.77-4.67-18.32-14.33-17.34-25.68c1.09-12.57,10.31-22.13,22.16-23.78c5.84-0.81,12.66,2.85,15.15,8.06
		c1.79,3.76,0.88,7.12-1.44,10.25c-2.4,3.25-5.08,4.01-10.66,3.07c0.96-1.43,1.79-2.84,2.8-4.12c1.06-1.35,1.58-2.6,0.26-4.06
		c-1.38-1.52-2.75-2.78-5.12-2.01c-5.41,1.74-8.84,9.02-7.64,16.47c0.71,4.41,5.5,7.85,10.76,8.04c8.21,0.29,15.36-1.94,19.05-9.74
		c4.46-9.43,2.33-20.58-3.87-27.19c-4.38-4.68-9.33-8.22-15.44-10.19C660.08,835.92,658.89,835.7,658.43,834.1z"/>
	<path class="st5" d="M640.11,638.5c5.76-1.23,11.5-2.55,17.28-3.65c2.45-0.47,4.67,0.23,6.85,1.72c10,6.85,18.61,14.62,21.39,27.21
		c1.56,7.07-0.67,13.39-3.64,19.32c-7.46,14.91-19.72,22.54-36.51,21.27c-10.74-0.81-19.92-5.32-25.83-14.93
		c-6.21-10.1-2.49-24.77,7.57-32.59c6.83-5.3,13.68-5.87,21.26-2.43c4.67,2.12,6.24,6.36,6.13,10.83c-0.11,4.62-4.1,6.89-7.82,8.72
		c-1.2,0.59-3.16,0.93-4.18-0.59c-0.87-1.3,0.57-2.14,1.23-3.11c1.15-1.7,3.28-3.57,0.96-5.52c-2.34-1.97-5.23-2.51-7.93-0.28
		c-4.14,3.43-6.18,12.3-4.15,17.3c1.86,4.56,7.41,6.48,12.3,6.07c7.78-0.66,14.72-3.49,17.58-11.51c3.29-9.21,2.34-17.9-4.7-25.43
		c-4.98-5.32-10.88-9.09-17.92-11.2C640.04,639.3,640.08,638.9,640.11,638.5z"/>
	<path class="st5" d="M815.02,683.7c6.24-1.19,12.48-2.34,18.7-3.61c1.14-0.23,1.99-0.12,3,0.43c11.52,6.26,20.4,14.89,23.9,27.89
		c1.72,6.4,0.04,12.72-2.67,18.62c-4.79,10.44-12.39,17.89-23.49,21.51c-16.75,5.47-39.32-2.92-42.71-22.7
		c-1.13-6.59,1.34-12.49,4.97-17.6c5.15-7.24,12.17-11.33,21.57-10.22c5.04,0.59,8.48,3.24,10.63,7.55c1.57,3.16,1.7,6.48-0.81,9.44
		c-2.74,3.24-5.92,5.16-10.66,3.62c0.85-1.4,1.58-2.67,2.36-3.89c1.28-1.99,1.01-3.64-0.8-5.22c-1.87-1.63-3.75-1.91-5.81-0.57
		c-5.19,3.39-7.77,12.7-5.24,18.47c1.06,2.41,2.66,3.87,5.22,4.65c13.99,4.23,26.13-4.87,26.2-18.54
		c0.06-12.71-8.43-21.6-19.41-26.58c-1.74-0.79-3.48-1.57-5.22-2.36C814.84,684.31,814.93,684,815.02,683.7z"/>
	<path class="st5" d="M615.54,782.91c-0.15-1.12,0.82-1.55,1.39-2.2c1.98-2.25,2.45-4.77,0.3-6.92c-2.12-2.13-4.71-1.69-7.07,0.06
		c-3.97,2.92-6.12,11.53-4.28,17.27c1.32,4.12,4.79,5.6,11.14,6.07c13.93,1.03,22.4-11.11,20.04-24.23
		c-1.77-9.83-7.51-15.55-15.43-20.02c-2.87-1.62-6-2.78-10.13-4.65c6.39-1.27,11.9-2.11,17.26-3.5c5.13-1.33,8.76,1.16,12.37,3.97
		c7.53,5.84,14.7,12.15,16.79,21.99c2.83,13.3-1.34,24.33-11.28,33.62c-6.7,6.26-14.59,8.92-23.32,10.11
		c-17.27,2.34-34.22-12.57-33.2-29.79c0.79-13.27,14.56-27.22,30.31-21.33c5.32,1.99,8.51,8.12,7.06,13.33
		C626.2,781.27,621.38,783.79,615.54,782.91z"/>
	<path class="st5" d="M708.58,711.62c6.64-1.29,12.21-2.02,17.58-3.5c6.71-1.84,10.65,2.81,14.77,6.16
		c5.25,4.28,10.12,9.01,12.69,15.83c4.74,12.6,1.79,23.35-6.07,33.6c-6.22,8.12-14.47,12.52-24.28,13.73
		c-13.82,1.7-31.71-5.05-35.68-21.54c-3.54-14.71,8.9-33.09,26.73-30.35c5.29,0.81,9.9,5.31,10.32,10.61
		c0.46,5.77-2.1,9.16-8.14,10.93c-1.36,0.4-2.87,0.97-3.79-0.31c-1.02-1.42,0.72-2.08,1.45-2.88c2-2.19,2.87-4.43,0.35-6.72
		c-2.5-2.28-5.46-1.65-7.41,0.35c-3.34,3.42-5.33,7.81-5.26,12.71c0.08,5.75,4.09,9.74,9.71,10.18c9.19,0.72,17.09-1.33,21.26-10.53
		c3.89-8.58,2.07-16.68-3.02-24.15C724.9,718.56,717.29,715.14,708.58,711.62z"/>
	<path class="st5" d="M771.05,811.78c6.35-1.22,12.7-2.44,19.04-3.67c2.4-0.47,4.04,1.14,5.8,2.23c8.74,5.4,15.85,12.37,19.6,22.13
		c4.34,11.29,0.47,21.36-6.02,30.35c-7.7,10.67-18.54,15.79-31.85,14.97c-14.65-0.89-28.02-8.66-29.65-25.39
		c-0.97-10.03,3.94-18.15,12.54-23.64c6.45-4.12,13.11-4.5,19.83-0.55c3.73,2.19,6.4,7.67,5.48,11.24c-1.05,4.08-5.62,8.01-9.5,8.06
		c-0.86,0.01-2.06-0.04-2.52-0.57c-0.74-0.85,0.34-1.58,0.87-2.28c1.71-2.25,3.66-4.72,0.68-7.14c-2.63-2.13-5.51-1.1-7.96,0.78
		c-3.4,2.61-5.51,11.4-3.98,16.13c1.34,4.14,6.05,6.92,11.8,6.85c10.53-0.13,19.86-6.87,20.26-19.86
		c0.42-13.64-10.15-22.6-20.13-26.92c-1.36-0.59-2.79-1.04-4.18-1.56C771.12,812.55,771.09,812.16,771.05,811.78z"/>
	<path class="st5" d="M774.9,599.75c-0.07,3.24,2.72,4.2,4.69,5.64c11.74,8.57,17.61,22.34,13.58,35.12
		c-4.73,15-17.44,27.67-35.25,27.42c-8.4-0.12-15.65-2.36-22.59-7c-10.53-7.05-14.05-25.89-3.09-37.01
		c8.39-8.51,17.05-10.58,25.27-5.67c4.75,2.84,7.09,8.33,5.45,12.82c-1.55,4.23-6.57,6.79-11.99,6.08
		c-0.55-1.81,1.52-1.97,2.03-3.16c1.03-2.4,1.82-4.81-0.68-6.59c-2.18-1.55-4.57-1.36-6.67,0.56c-4.06,3.72-7.36,10.97-3.5,18.77
		c1.78,3.61,8.93,5.55,14.89,4.33c17.92-3.66,19.61-23.42,11.54-34.2c-5.56-7.43-12.74-12.37-21.88-14.35
		c-0.35-0.08-0.6-0.63-0.89-0.96c1.82-1.45,3.99-1.13,6.07-1.17C759.58,600.22,767.26,600.78,774.9,599.75z"/>
	<path class="st18" d="M550.65,809.93c-0.23-2.35-2.12-1.63-3.43-1.78c-4.11-0.45-8.26-0.58-12.25-1.79
		c2.25-1.88,2.4-4.83,3.62-7.24c7.18-14.07,14.17-28.24,21.22-42.38c5.8-1.22,11.6-2.45,17.4-3.67
		c-9.58,10.91-16.4,23.27-19.65,37.5c-0.23,1.03-0.6,2.13-0.46,3.13C558.1,800.41,555.31,805.53,550.65,809.93z"/>
	<path class="st1" d="M745.84,601.56c0.04-0.26-0.02-0.5-0.18-0.71c3.54-14.86,11.8-26.04,25.56-32.94
		c1.2,8.51,2.46,16.99,6.72,24.66"/>
	<path class="st19" d="M591.92,313.04c7.58-1.71,13.58-6.62,20.26-10.12c17.37-9.11,34.56-18.54,51.83-27.84
		c1.93,2.09,3.47,4.55,6.22,5.83c1.6,0.74,2.23,2.42,2.8,4.03c0.61,1.72,1.05,3.52,2.03,5.09c2.02,3.24,4.73,4.44,7.13,3.17
		c3.59-1.9,5.07-5.09,3.67-8.56c-1.25-3.11-1.85-5.94,0.1-9.12c1.71-2.79,1.02-5.49-1.62-7.7c-1.14-0.95-3.27-1.38-2.62-3.68
		c2.23,0.51,3.84-0.88,5.37-2.02c3.38-2.52,5.75-1.08,7.59,1.82c4.89,7.73,9.47,15.67,14.46,23.33
		c8.81,13.51,16.52,27.86,27.92,39.47c8.5,8.65,19.13,13.96,30.67,17.47c2.18-0.56,3.77,0.76,5.48,1.71
		c0.37,0.33,0.75,0.66,1.12,0.99c3.19,6.05,3.31,12.89,4.93,19.34c1.66,6.62,2.97,13.34,4.41,20.02
		c-4.69,9.47-10.73,17.96-18.29,25.37c-1.81,1.62-3.39,3.74-6.33,2.89c-0.3-0.41-0.51-0.86-0.64-1.35
		c-0.74-7.86,0.42-15.77-0.68-23.6c-0.9-4.63-1.36-9.37-3.17-13.79c-2.6-6.37-8.56-7.47-13.35-2.49c-2.03,2.12-3.34,4.71-4.34,7.46
		c-2.5,6.8-3.49,13.86-3.67,21.07c-0.13,5.18-1.09,5.98-6.14,4.67c-14.3-3.7-28.53-7.67-43.01-10.62c-2.23-0.45-4.46-1.09-6.76-0.4
		c-1.54,0.51-2.62,1.79-4.07,2.45c-10.74-0.56-15.69,6.13-18.86,15.08c-0.1,0.28-0.29,0.53-0.45,0.79c-0.52,0.76-1.2,1.34-1.93,1.89
		c-4.49,4-5.12,6.72-2.47,11.98c4.69,9.31,12.6,15.86,19.85,22.98c1.34,1.31,3.51,2.29,2.06,4.82c-0.43,0.44-0.89,0.94-1.48,1.04
		c-10.58,1.73-21.16,3.64-31.95,1.92c-2.32-2.12-1.48-4.77-1.15-7.29c1.14-8.66-0.64-10.81-9.21-12.2
		c-7.49-1.22-14.86-1.02-22.27,0.37c-4.22,0.79-7.97,2.14-9.75,6.55c-0.35,0.86-1.02,1.52-2.01,1.7c-2.69-0.21-5.42-0.81-8.06-0.54
		c-4.1,0.42-5.18-1.65-5.52-5.14c-0.47-4.77-1.2-9.52-1.83-14.28c0.8-1.46-0.12-3.58,1.75-4.63c5.24-12.7,8.1-25.21,4.15-39.36
		c-4.35-15.57-11.2-29.86-18.01-44.28c-3.96-8.39-3.75-9.33,4.69-13.56c2.56,1.61,5.04,3.22,8.17,3.81
		c2.98,0.56,4.61,3.36,6.71,5.32c3.95,3.68,6.89,4.22,9.53,1.63c2.65-2.6,2.64-6.97-0.46-10.26c-2.31-2.45-3.44-4.96-2.46-8.25
		C592.78,316.3,591.54,314.73,591.92,313.04z"/>
	<path class="st8" d="M764.96,411.05c0.59-2.93,3.41-4.16,5.14-6.06c4.48-4.92,7.55-10.65,10.98-16.19
		c0.51-0.82,0.98-1.53,2.03-1.59c0.63,0.04,1.26,0.21,1.61,0.7c5.3,7.49,11.16,14.65,14.1,23.56c0.71,2.59,1.62,5.19-0.08,7.75
		c-3.51-0.08-5.16,2.45-6.43,5.03c-5.13,10.47-7.03,21.6-6.61,33.22c0.11,3.06,1.45,4.75,4.11,5.75c-0.91,2.18-1.82,4.36-2.73,6.55
		c-2.88,5.99-4.68,12.47-8.28,18.14c-2.49-10.66-4.98-21.32-7.47-31.97c-1.22-1.73,0.26-2.82,1-4.04c1.74-2.86,3.66-5.63,5.04-8.7
		c0.65-1.46,1.57-2.97,0.49-4.82c-3.89,1.65-4.51,7.11-9.13,7.72c-0.36-0.25-0.63-0.58-0.8-0.99c-0.64-3.52,1.89-5.57,3.72-7.93
		c3.12-4.02,6.94-7.58,9.04-12.99c-2.82-0.01-3.77,1.94-5.22,3.04c-3.46,2.62-5.26,7.06-9.57,8.75c-0.34-0.28-0.59-0.62-0.75-1.03
		c-0.6-2.44,0.97-3.95,2.34-5.59c3.45-4.12,6.66-8.39,8.69-13.5c-4.56,1.29-6.9,5.16-10.07,7.99c-1.28,1.14-2.33,3.25-4.37,0.96
		c-0.32-0.58-0.45-1.21-0.46-1.86c0.22-2.7,2.11-4.55,3.43-6.68C765.78,414.54,766.77,412.89,764.96,411.05z"/>
	<path class="st20" d="M681.71,264.15c1.01,0.88,1.94,1.9,3.06,2.61c3.62,2.31,4.42,5.74,2.36,9.02c-1.93,3.08-1.48,5.52-0.2,8.42
		c1.85,4.2-0.09,8.29-4.76,10.52c-2.68,1.28-6.96-0.5-8.38-4.3c-1.72-4.58-3-9.13-8.03-11.33c-1.5-0.65-1.62-2.46-1.75-4.01
		c2.78-5.62,0.71-9.02-4.73-11.4c-2.9-1.27-3.7-3.58-0.64-5.9c0.14,0.99-0.08,2.07,0.74,2.89c7.64,2.23,10.28,5.85,8.79,12.02
		c-1.09,2.27-0.76,4.09,1.64,5.3c0.81,0.41,1.77,0.81,2.18,1.58c2.21,4.12,4.92,2.23,7.47,0.61c2.52-1.6,3.52-4.46,4.93-6.91
		c0.78-1.36-0.36-2.59-1.43-3.5c-1.62-1.38-3.29-2.7-3.94-4.86c-0.64-4.38,0.85-7.89,4.32-10.59c0.09-1.09,0.49-1.9,1.73-1.98
		c1.79,2.21-0.01,3.93-0.85,5.73C683.3,260.07,681.35,261.62,681.71,264.15z"/>
	<path class="st21" d="M773.21,345.92c-1.99-0.05-3.85-0.52-5.48-1.72c-6.54-8.37-13.36-16.55-17.71-26.39
		c-5.5-12.45-8.97-25.42-9.74-39.05c-0.07-1.3-1-3.69,1.11-3.78c1.92-0.08,1.51,2.25,1.55,3.69c0.61,21.41,8.21,40.27,20.86,57.29
		c0.64,0.86,1.1,1.85,2.22,2.38c-5.32-14.94-6.57-29.81-2.72-45.15C761.53,311.8,763.51,329.62,773.21,345.92z"/>
	<path class="st6" d="M593.61,447.54c2.59-10.14,11.27-9.61,18.87-10.52c6.64-0.79,13.31-0.12,19.81,1.58
		c5.22,1.36,6.57,3.35,6.25,8.8c-0.2,3.47-0.55,6.93-0.84,10.4c0.69,0.9,0.85,1.93,0.76,3.02c-1.59,18.78-2.86,37.6-4.97,56.33
		c-0.13,1.66,0.07,3.42-1.5,4.61c-0.03,5.43-4.15,6.42-8.17,7.51c-6.28,0.97-12.59,1.27-18.95,1.27c-4.6,0-8.28-1.18-10.37-5.59
		c-4.55-18.85-3.52-38.05-3.57-57.18C590.92,460.9,593.19,454.34,593.61,447.54z"/>
	<path class="st22" d="M591.92,313.04c1.92,1.32,2.38,3.38,1.58,5.23c-1.37,3.17-0.15,5.2,2.11,7.14c2.43,2.08,3.03,4.86,2.6,7.87
		c-0.39,2.77-1.95,4.73-4.58,5.78c-2.76,1.1-5.09,0.18-7.09-1.7c-3.7-3.49-6.75-7.86-12.63-8.01c-1.96-0.05-2.32-2.18-3.13-3.59
		c0.12-6.63,0.11-6.56-6.41-8.09c-2.46-0.58-6.32-0.13-4.63-4.83c0.63,0.34,1.26,0.68,1.89,1.03c5.01,0.88,10.51,0.73,12.98,6.67
		c0.61,1.46,1.82,0.6,2.74,0.18c3.31-1.52,6.44-3.36,9.94-5.68c-2.72-1.83-6.54-2.34-6.53-6.28c0-2.98-0.96-6.09,1.03-8.84
		c-0.31-0.86-0.63-1.72-0.94-2.59c2.93-0.17,3.65,1.63,3.52,4.07c-0.38,7.51-0.39,7.5,6.16,10.54
		C591.06,312.16,591.46,312.66,591.92,313.04z"/>
	<path class="st21" d="M579.96,422.95c-0.58,1.54-1.17,3.09-1.75,4.63c-2.84-16.03-7.04-31.81-8.66-48.08
		c3.29,3.96,2.88,8.93,3.92,13.45C575.77,402.92,577.15,413.09,579.96,422.95z"/>
	<path class="st23" d="M600.35,204.35c1.54-0.56,2.06,0.34,2.64,0.98c7.42,8.15,16.68,10.68,27.32,9.02
		c1.03-0.16,2.27-0.77,2.47,0.87c0.16,1.24-0.98,1.32-1.89,1.39c-9.79,0.76-19.22,0.06-27.01-6.95
		C602.31,208.25,600.59,206.92,600.35,204.35z"/>
	<path class="st24" d="M612.2,169.6c1.77,0.21,3.39,0.72,3.1,2.62c-0.29,1.88-1.93,2.49-3.76,2.42c-1.56-0.07-2.78-0.9-2.71-2.4
		C608.92,170.22,610.59,169.69,612.2,169.6z"/>
	<path class="st25" d="M641.85,186.81c-1.6-0.26-3.06-0.66-2.88-2.43c0.2-1.97,1.71-2.74,3.56-2.75c1.54-0.01,2.76,0.58,2.65,2.34
		C645.05,186.08,643.4,186.53,641.85,186.81z"/>
	<path class="st13" d="M631.99,521.76c0.11-1.41,0.22-2.81,0.33-4.22c0.83-1.05,2.03-1.22,3.25-1.38
		c16.64-2.15,32.56-7.02,48.25-12.76c0.28-0.1,0.56-0.23,0.85-0.33c5.28-1.85,6.42-0.94,6.06,4.8c-0.21,0.47-0.45,0.92-0.74,1.35
		l-0.22-0.1c-9.14,4.84-18.97,7.67-28.96,10.14c-8.09,2-16.38,2.79-24.52,4.43C634.62,524.04,632.5,524.47,631.99,521.76z"/>
	<path class="st1" d="M683.33,254.32c-1.2,3.65-4.52,6.64-3.4,11c0.17,0.42,0.43,1.05,0.15,1.27c-3.87,3.07-7.58,6.52-13.1,5.95
		c2.14-3.68,0.47-6.19-2.52-8.34c-1.68-1.2-3.86-1.7-5.1-3.54C667.21,257.99,675.2,255.89,683.33,254.32z"/>
	<path class="st26" d="M581.79,299.89c0.01,3.34-0.45,6.76,0.16,9.98c0.74,3.9,5.52,2.34,8.27,5.04c-5.5,3.04-10.7,5.92-16.46,9.1
		c0.26-6.49-3.67-7.99-8.6-8.45c-1.33-0.12-2.75-0.34-3.54-1.71c5.29-3.82,10.55-7.67,15.87-11.45
		C578.85,301.45,580.36,300.72,581.79,299.89z"/>
	<path class="st27" d="M690,508.21c-0.21-5.79-0.16-5.64-5.63-3.65c-16.89,6.14-33.93,11.73-52.04,12.99
		c1.79-19.92,3.58-39.84,5.37-59.76c10.14,0.41,20.17-1.12,30.24-1.88c1.38-0.1,2.65-0.59,3.58-1.71c5.96-2.29,12.3-3.31,18.29-5.61
		c14.83-5.69,28.06-13.89,39.86-24.51c3.87-3.48,6.58-8.02,10.55-11.39c1.51-1.28,2.82-3.85,5.3-2.14c2.46,1.7,1.96,4.31,0.9,6.63
		c-2.34,5.16-5.7,9.72-8.79,14.43c-1,1.52-2.11,2.97-2.5,5.03c3.72-2.08,6.65-5.1,9.27-8.39c3.35-4.19,7.3-7.77,11.06-11.54
		c1.07-1.07,2.23-2.13,3.94-1.99c1.85-1.23,3.7-2.45,5.55-3.68c3.64-0.02,3.06,1.85,1.85,4.07c-1.49,2.74-3.96,4.9-4.77,8.04
		c-3.58,5.88-8.51,10.68-13.39,16.89c5.29-5.43,9.06-10.81,13.76-15.33c2.64,0.37,3.08-2.28,4.56-3.46c2.6-2.07,4.52-4.93,7.46-6.63
		c1.08-0.62,2.23-1.24,3.32-0.12c1,1.03,0.09,2.05-0.38,2.88c-2.63,4.63-5.73,8.94-9.26,12.91c-1.23,1.38-2.5,2.68-2.44,4.7
		c-2.76,2.56-4.51,6-7.27,8.27c2.98-1.85,4-5.96,7.58-7.5c3.75-3.93,7.43-7.94,11.29-11.75c1.07-1.05,2.6-2.7,4.29-1.18
		c1.54,1.39-0.08,2.81-0.74,4.03c-2.23,4.16-5.46,7.58-8.43,11.2c-1.7,2.07-3.95,3.84-3.87,6.91c-1.05,0.84-1.78,1.93-2.47,3.05
		c-0.43,0.44,0.43,0.79-0.06,0.42c0.83-0.98,1.48-2.14,2.76-2.64c3.39-1.99,4.78-5.85,7.74-8.24c0.69-0.55,1.25-1.58,2.24-1.26
		c1.37,0.44,0.93,1.79,0.86,2.76c-0.37,5.45-3.93,9.4-6.66,13.72c-0.64,1.02-1.59,1.83-1.61,3.15c-4.66,2.24-7.55,6.46-11.08,9.97
		c-11.22,10.18-24.56,16.96-37.98,23.53c-8.49,4.15-17.06,8.18-25.86,11.65c-2.58,1.02-4.63,2.25-4.74,5.41
		C691.64,507.36,691.28,508.36,690,508.21z"/>
	<path class="st28" d="M690,508.21c-0.18-6.09,4.35-7.66,8.84-9.51c16.76-6.91,33.09-14.68,48.52-24.28
		c4.38-2.73,8.08-6.46,12.91-8.49c-5.44,7.53-12.94,12.87-20.39,18c-15.45,10.64-32.11,19.12-49.87,25.31
		C690,508.89,690,508.55,690,508.21z"/>
	<path class="st17" d="M759.41,414.73c-7.44,6.36-13.56,14.02-20.53,20.84c-1.58,1.55-4.01,4.54-5.33,3.37
		c-2.25-2,0.84-4.24,2.01-6.17c2.68-4.44,5.64-8.7,8.37-13.1c0.87-1.41,1.4-3.03,2.07-4.56c0.7-1.62,0.29-3.25-0.99-4.11
		c-1.57-1.06-2.44,0.75-3.25,1.66c-7.44,8.3-15.07,16.35-24.36,22.68c-12.98,8.85-27,15.26-42.31,18.82
		c-1.19,0.28-2.37,0.63-3.56,0.05c-6.25-6.2-13.1-11.83-18.46-18.89c-1.65-2.17-3.24-4.43-4.48-6.85c-3.1-6.02-2.45-8.98,2.61-13.65
		c1.9,0.31,3.21,1.63,4.66,2.72c8.69,6.52,18.04,8.2,28.22,3.79c-9.71,4.22-18.76,2.79-27.23-3.2c-1.59-1.12-3.31-2.23-3.69-4.41
		c0.65-3.15,2.28-5.86,3.81-8.63c3.57-6.49,8.91-9.13,16.21-7.66c2.06,0.17,2.7-1.14,2.97-2.84c2-1.18,4.05-0.79,6.19-0.36
		c15.21,3.05,30.19,7.02,45.12,11.17c3.53,0.98,4.72,0.54,4.6-3.45c-0.21-7.5,0.94-14.89,3.64-21.94c1.72-4.5,4.07-8.56,8.8-10.58
		c4.3-1.84,7.79-0.71,10.07,3.35c2.83,5.04,3.48,10.65,4.12,16.26c0.69,6.93,0.1,13.87,0.33,20.8c0.05,1.63-0.42,3.32,0.43,4.89
		L759.41,414.73z"/>
	<path class="st29" d="M653.14,413.72c9.2,8.65,19.57,11.43,31.51,6.24c0.93-0.4,2.14-1.45,2.79-0.14c0.86,1.76-1.12,1.8-2.03,2.24
		c-11.39,5.56-24.11,2.84-34.21-7.24C651.84,414.45,652.49,414.08,653.14,413.72z"/>
	<path class="st27" d="M759.42,414.73c-1.69-2.19-0.73-4.69-0.77-7.04c-0.09-6.22,0-12.43,0.01-18.65
		c1.65,5.01,0.57,10.16,0.79,15.25C759.61,407.76,759.45,411.25,759.42,414.73z"/>
	<path class="st30" d="M676.13,394.59c0.54,1.37,1.72,2.98,0.15,4.1c-1.01,0.72-2.18-0.51-3.12-1.26
		C673.77,396.09,674.74,395.12,676.13,394.59z"/>
	<path class="st31" d="M762.41,424.72c-3.47,7.04-9.42,11.91-15.13,17.01c4.13-6.82,8.82-13.19,14.76-18.57
		C762.16,423.68,762.29,424.2,762.41,424.72z"/>
	<path class="st32" d="M765.98,435.77c-2.62,4.01-5.82,7.48-9.74,10.3c2.87-3.93,4.41-8.97,9.44-11.07
		C765.77,435.26,765.87,435.52,765.98,435.77z"/>
	<path class="st33" d="M768.76,445.81c-0.56,2.41-2.31,3.79-4.82,5.45c0.79-3.18,1-5.91,4.58-6.28
		C768.58,445.27,768.65,445.55,768.76,445.81z"/>
	<path class="st19" d="M666.99,272.55c4.66-1.79,9.25-3.7,12.94-7.22c0.29,0.35,0.55,0.71,0.86,1.05c5.88,6.36,5.95,6.4,1.51,13.34
		c-1.27,1.98-4.11,1.8-5.8,3.28c-3.37,2.94-3.41-0.85-4.65-2.21c-0.72-0.8-1.49-1.44-2.56-1.8
		C665.9,277.82,665.31,275.57,666.99,272.55z"/>
	<path class="st19" d="M685.69,289.24c0.04-2.73-2.26-4-3.69-6.01C686.02,283.57,686.3,284.03,685.69,289.24z"/>
	<path class="st19" d="M592.8,326.96c2.78,0.7,4.76,2.02,4.3,6.07C595.58,330.51,594.55,328.46,592.8,326.96z"/>
	<path class="st34" d="M745.29,378.35c3.83,7.95,1.79,15.1-0.36,22.21c-0.7,2.31-1.6,4.56-2.53,6.79c-1.03,2.49-2.86,2.79-5.13,1.65
		c-2.5-1.26-1.35-2.98-0.61-4.63C740.35,396.21,743.71,387.94,745.29,378.35z"/>
	<path class="st35" d="M706.09,407.23c0.29,0.39,0.87,0.82,0.92,1.3c0.41,3.88,3.22,5.63,6.22,7.26c0.63,0.35,1.5,0.65,1.2,1.63
		c-0.28,0.95-1.1,1.02-1.83,0.66c-3.62-1.8-6.86-4.01-7.8-8.33C704.57,408.73,704.3,407.59,706.09,407.23z"/>
</g>
</svg>
