<?xml version="1.0" encoding="utf-8"?>
<!-- Generator: Adobe Illustrator 24.3.0, SVG Export Plug-In . SVG Version: 6.00 Build 0)  -->
<svg version="1.1" id="Layer_1" xmlns="http://www.w3.org/2000/svg" xmlns:xlink="http://www.w3.org/1999/xlink" x="0px" y="0px"
	 viewBox="0 0 1920 1080" style="enable-background:new 0 0 1920 1080;" xml:space="preserve">
<style type="text/css">
	.st0{fill:#019267;stroke:#019267;stroke-width:1.0897;}
	.st1{fill:#FFFFFF;}
	.st2{fill:#A5C8FE;}
	.st3{fill:#E76061;}
	.st4{fill:#FECECE;}
	.st5{fill:#E8CFBC;}
	.st6{fill:#280A54;}
	.st7{fill:#FEC38F;}
	.st8{fill:#230751;}
	.st9{fill:#230850;}
	.st10{fill:#E75F5F;}
	.st11{fill:#E8CFBB;}
	.st12{fill:#270B54;}
	.st13{fill:#270953;}
	.st14{fill:#240952;}
	.st15{fill:#E1E1E1;}
	.st16{fill:#260953;}
	.st17{fill:#250952;}
	.st18{fill:#351C5E;}
	.st19{fill:#250951;}
	.st20{fill:#240951;}
	.st21{fill:#E7CFBB;}
	.st22{fill:#270B53;}
	.st23{fill:#A5C8FC;}
	.st24{fill:#270A54;}
	.st25{fill:#260A53;}
	.st26{fill:#270C53;}
	.st27{fill:#250B52;}
	.st28{fill:#260C53;}
	.st29{fill:#260B52;}
	.st30{fill:#270C54;}
	.st31{fill:#270D54;}
	.st32{fill:#260B54;}
	.st33{fill:#270D53;}
	.st34{fill:#2D1357;}
	.st35{fill:#2B1255;}
	.st36{fill:#2C1357;}
	.st37{fill:#270E54;}
	.st38{fill:#321356;}
	.st39{fill:#A1C1F1;}
	.st40{fill:#A8C4F3;}
	.st41{fill:#F7F9FC;}
	.st42{fill:#FDFDFD;}
	.st43{fill:#290E54;}
	.st44{fill:#2D0F55;}
	.st45{fill:#F2EFF1;}
	.st46{fill:#2E1055;}
	.st47{fill:#2E1257;}
	.st48{fill:#E7CEBB;}
	.st49{fill:#FBF8F5;}
	.st50{fill:#331457;}
	.st51{fill:#FDFDFC;}
	.st52{fill:#FDC390;}
	.st53{fill:#32165A;}
	.st54{fill:#FDC490;}
	.st55{fill:#230950;}
	.st56{fill:#250A51;}
	.st57{fill:#250A52;}
	.st58{fill:#341656;}
	.st59{fill:#260C52;}
	.st60{fill:#2A1056;}
	.st61{fill:#2B1157;}
	.st62{fill:#280C53;}
	.st63{fill:#250954;}
	.st64{fill:#270A52;}
	.st65{fill:#250A54;}
	.st66{fill:#FEFEFD;}
	.st67{fill:#3E1E5A;}
</style>
<path class="st0" d="M2248.43,574.47c-263.72-26.26-843.35-43.64-1052.11,96.89C935.39,847.01,533.51,918.2,386.37,891.78
	c-147.15-26.42-532.74-65.05-643.49-1.75c-88.6,50.65,13.31,205.48,77.57,254.33c742.87-44.96,1803.58-11,1847.91-10.88
	c472.29,1.28,631.37-70.25,619.03-186.66C2277.51,853.69,2257.3,659.78,2248.43,574.47z"/>
<path class="st1" d="M151.21,862.93l-1.84,2.82c0,0,3.04,18.93,9.09,19.78c6.04,0.85,18.46,9.15,18.46,9.15l13.94-6.45l13.84-0.73
	l20.31-7.84l4.44-6.9h2.5c0,0,21.22,3.61,40.04,3.62s41.54-4.94,41.54-4.94l3.24-0.72l17.25,3.89l19.77,11.91l26.98-5.53
	c0,0,11.74-9.2,15.68-16.73s3.25-23.85,3.25-23.85s15.32-9.44,17.69-29.02s-14.09-35.24-14.09-35.24l-2.24-8.43
	c0,0-4.74-26.47-21.86-31.61c-17.12-5.14-26.21-9.35-30.82-6.32c-4.61,3.03-1.1-0.93-1.1-0.93l0.7-4.21l-21.34,7.57
	c0,0-2.24-8.23-6.45-9.55c-4.21-1.32-9.75-3.29-9.75-3.29s-4.62-12.94-10.54-13.43c-5.92-0.5-7.11-4.59-24.63,6.27
	c0,0-11.98,2.82-16.73,6.51c-4.74,3.69-8.71,13.16-8.71,13.16l-1.04,13.71v-2.5l-1.08-1.88l-1.2-1.56l-9.76-3.82l-9.64,2.17
	l-4.32,1.22l-8.16,1.71l-6.76-1.27l-7.92,4.96l-3.56-9.56l-3.03-4.86l-10.69-6.95l-11.17-12.59l-15.19-7.85l-6.94-8.04l-8.56-1.97
	l-5.5-0.43c0,0-8.68-6.81-17.53-6.16s-10.3,5.48-10.3,5.48s-4.74-2.18-9.35-2.19c-4.61-0.01-9.86,9.31-10.01,10.95
	c-0.15,1.64-8.14,1.81-8.14,1.81s-4.63,1.96-4.57,7.44c0.06,5.48,5.2,11.66,5.2,11.66s7.51,1.59,8.96,0.8
	c1.45-0.79,3.56-1.79,3.56-1.79l10.36,7.51l14.28-1.83l10.91-8.99l-2.99,14.86l-9.26,18.69l-4.61,11.86c0,0-1.32,21.47,12.38,29.63
	c13.7,8.17,18.97-3.82,18.97-3.82l-14.88,1.22c0,0-11.91,20.92-3.45,32.63"/>
<path class="st2" d="M247.42,670.48c-2.63,4.47-2.43,9.74-4.06,14.49c-2.83,8.25-0.38,16.44,0.33,24.65
	c0.54,6.24,2.06,12.38,1.91,18.68c-1.78,1.23-3.14,0.17-3.83-1.18c-3.36-6.57-10.01-8.43-15.89-11.41
	c-0.68-0.35-1.43-0.58-2.14-0.86c-6.88-2.68-12.77-5.9-13.91-14.52c-0.58-4.44-3.02-8.72-6.88-11.7c-4.15-4.4-7.21-9.64-10.59-14.58
	c-5.98-8.76-12.35-17.25-18.19-26.11c-1.3-1.97-2.6-3.93-0.87-6.31c0.59-0.76,1.24-1.47,1.77-2.28
	c8.69-11.07,12.22-24.18,14.94-37.63c2.67-13.23,6.15-26.29,8.35-39.61c0.75-4.52,1.72-9.03,0.89-13.75
	c-0.78-4.44-2.61-8.28-5.06-11.96c-0.83-1.25-2.08-2.35-1.83-4.1c3.01-0.05,6.03-0.11,9.04-0.16c5.49,2.13,7.04,7.11,7.67,12.04
	c1.5,11.83,0.37,23.53-3.47,34.88c-2.53,2.58-2.46,6.11-3.33,9.29c-0.65,2.35-1.04,4.77-1.33,7.21c1.16-3.4,2.04-6.87,2.81-10.38
	c0.38-1.72,0.34-3.64,1.92-4.9c1.14-0.47,2.27-0.22,3.39,0.04c12.19,2.85,24.4,5.62,36.65,8.2c1,0.21,2,0.46,2.86,1.04
	c1.61,1.88,0.46,3.93,0.24,5.88c-0.26,2.38-0.78,4.74-0.94,7.14c0.74-4.6,2.67-9.05,1.7-13.87c0.95-6.08,2.25-12.1,3.16-18.19
	c0.6-4.01-1.13-7.91,0.11-11.82c2.48-0.81,4.85-0.34,7.19,0.6c3.48,5.02,2.54,10.71,1.8,16.04c-1.62,11.69-3.65,23.31-4.62,35.09
	c-0.54,6.63-1.04,13.27-2.01,19.85c0.03,2.44-0.67,4.71-1.59,6.93c-0.66,1.6-0.82,3.14,0.16,4.67c-0.89,7.91-3.06,15.56-4.95,23.25
	c-0.64,1.38-0.71,2.88-0.93,4.36C247.82,669.86,247.65,670.19,247.42,670.48z"/>
<path class="st3" d="M192.37,532.3c7.37,7.98,9.43,17.35,7.48,27.86c-3.59,19.29-7.88,38.43-12.58,57.48
	c-2.05,8.29-6.17,15.75-11.67,22.37c-0.39,0.07-0.89,0.14-1.11-0.12c-3.49-3.93-7.85-2.73-12.16-2.18
	c-7.47,0.95-14.64,2.72-20.87,7.24c4.83-2.67,9.91-4.67,15.32-5.82c3.41-0.73,6.87-0.99,10.31-1.38c1.34-0.15,3.23-0.32,3.65,1.34
	c0.49,1.97-1.57,2.02-2.78,2.44c-8.35,2.88-16.06,6.9-22.76,12.73c-0.84,0.73-1.64,1.74-3.01,1.18c-0.33-0.93-0.66-1.87-0.98-2.8
	c-0.12-0.22-0.21-0.58-0.39-0.63c-4.12-1.27-6.02-4.24-6.51-8.34c-1.16-0.81-2.33-1.62-3.49-2.44c0.65-2.3,2.76-2.95,4.56-3.8
	c7.37-3.47,14.88-6.48,23.28-6.01c0.5,0.03,1.02,0,1.66-0.61c-4.14-1-7.93,0.1-11.65,1.03c-3.73,0.94-7.38,2.22-10.89,3.87
	c-1.68,0.79-3.62,2.16-5.07-0.26c-1.52-2.53-0.31-4.41,1.86-5.85c5.05-3.35,10.72-5.02,16.64-5.7c6.49-0.74,12.84,0.21,18.93,2.6
	c1.94,0.76,4.27,1.55,1.74,4.26c-0.63,0.68-0.57,1.42,0.32,1.88c0.65,0.33,1.1,0.1,1.61-0.49c2.19-2.52,2.2-3.36-0.67-5.53
	c-1.95-1.47-1.37-3.09-0.7-4.81c2.94-7.55,6.03-15.04,9.01-22.57c0.24-0.6,0.49-1.19,0.61-2.66c-3.78,8.32-6.51,16.23-9.79,23.91
	c-1.79,4.2-2.56,4.82-6.95,3.95c-9.74-1.93-19.18-1.5-28.21,3.06c-0.99,0.5-2.08,1.14-3.25,0.31c5.03-12.69,5.39-26.34,8.15-39.5
	c1.84-8.79,3.62-17.6,5.5-26.38c1.91-8.97,7.09-15.04,14.78-19.62C171.62,536.77,181.56,533.3,192.37,532.3z"/>
<path class="st4" d="M299.87,518.81c-2.94,4.6-4.8,9.88-8.61,13.95c-0.7,0.75-1.2,1.73-2,2.32c-3.75,2.75-5.76,6.25-5.16,11.01
	c-2.26-0.69-1.06-2.87-1.82-4.21c-0.43,7.79-0.44,7.83-8.44,6.8c-2.2-0.28-4.05,0.28-5.77,1.57c-2.57,1.92-5.27,3.7-7.74,5.72
	c-2.8,2.29-5.22,1.94-7.99,0.06c-5.73-3.89-10.6-8.41-12.39-15.48c0.14,3.44,1.48,6.27,3.75,8.69c1.04,1.11,2.29,2.11,2.38,3.83
	c-1.62,3.48-2.07,7.03-1.4,10.87c0.75,4.32-2.07,6.72-6.51,5.88c-4.68-0.88-8.21-3.84-11.27-7.09
	c-7.01-7.44-12.86-15.73-16.42-25.44c-0.53-1.44-1.15-2.9-0.46-4.47l-0.01,0.04c4.91-4.02,10.71-6.61,16.29-9.4
	c5.14-2.57,8.69-6.14,11.11-11.18c0.99-2.05,1.94-4.31,5.15-3.23c4.34,1.45,5.15,2.37,4.89,6.4c-0.22,3.36-0.31,6.71,2.19,9.6
	c-3.97-7.31-1.54-13.23,4.1-18.13c5.7-4.96,12.31-3.2,15.02,3.86c0.68,1.77,1.37,1.91,2.76,1.02c2.38-1.53,4.7-3.15,7.07-4.68
	c1.53-0.99,3.04-1.28,4.68-0.24c5.09,3.26,10.21,6.45,15.26,9.76C299.32,517.13,299.97,517.76,299.87,518.81z"/>
<path class="st5" d="M120.48,949.17c3.62-3.86,3.72-9.11,5.25-13.76c5.62-17.05,6.96-34.97,10.04-52.53
	c0.38-2.17,0.97-3.34,3.24-3.27c4.21-2.12,8.64-0.89,12.99-0.91c1.94,0.34,3,1.86,4.16,3.19c3.2,3.66,7.04,6.3,11.8,7.44
	c2.49,0.6,4.03,2.11,4.73,4.52c0.89,3.04,2.48,5.92,2.15,9.25c-2.01,7.14-3.75,14.35-5.59,21.54c-0.75,2.91-0.95,6.14-3.7,8.19
	c-5.87,1.15-11.79,0.12-16.93,0.53c4.13,0.03,9.01-0.06,13.89,0.03c4.7,0.09,5.36,1.03,4.17,5.68c-0.67,2.61-1.46,5.19-2.23,7.78
	c-0.67,2.26-2.18,3.42-4.53,3.43c-12.08,0.1-24.17,0.06-36.25,0.02C122.49,950.3,121.37,950.02,120.48,949.17z"/>
<path class="st6" d="M299.87,518.81c-5.69-3.7-11.41-7.37-17.06-11.14c-1.3-0.87-2.21-0.68-3.42,0.14
	c-3.38,2.3-6.85,4.47-10.26,6.67c-0.3-0.33-0.59-0.5-0.6-0.7c-0.39-4.17-1.95-7.62-6.43-8.52c-4.41-0.89-7.71,1.38-10.31,4.67
	c-3.88,4.93-4.05,9.04-0.83,14.56c0.55,0.94,1.81,2.04,0.29,2.9c-1.34,0.76-1.98-0.68-2.62-1.61c-2.48-3.6-3.28-7.53-1.92-11.72
	c1.15-3.54-2.17-2.7-3.53-3.63c-1.23-0.84-3.03-2.14-3.97,0.51c-2.94,8.33-9.77,12.43-17.22,15.88c-4.05,1.88-7.55,4.85-11.97,6.01
	c-1.41-2.1,0.37-2.6,1.68-3.33c5.96-3.3,11.9-6.64,17.89-9.88c1.65-0.89,2.64-2.24,3.77-3.67c7.24-9.17,9.19-20.36,12.18-31.14
	c1.67-6.02,5.25-9.49,11.54-10.19c4.73-0.53,9.44-1.29,14.16-1.92c4.52-0.6,8.26,0.7,11.43,4.14c6.55,7.09,13.29,14.01,19.95,21
	c4.16,4.36,5.83,4.84,11.08,2.21c2.03-1.02,2.61,0.41,3.43,1.29c3.71,3.96,4.06,10.49,0.93,14.99c-3.24,4.65-9.48,6.44-14.77,4.19
	C302.12,520.03,301.01,519.39,299.87,518.81z"/>
<path class="st3" d="M254.34,631.02c1.57-16.6,2.41-33.27,5.48-49.72c1.39-7.42,2.73-14.99-0.53-22.36
	c0.13-0.36,0.38-0.56,0.77-0.58c2.96,2.45,5.77,5.11,8.92,7.3c5.26,3.66,7.48,8.75,8.47,14.86c2.28,13.96,3.19,28.04,4.34,42.1
	c0.94,11.51,1.6,23.04,2.38,34.56c-0.96,1.1-2.3,1.05-3.55,1.02c-10.93-0.28-20.61,2.97-28.97,10.07c-0.49,0.42-1.08,0.68-1.73,0.78
	c-1.85-0.38-2.13-1.72-2.01-3.31c1.76-7.99,3.51-15.98,5.27-23.97c0.25-4.68,2.47-8.83,3.67-13.25c2.99-11.06,5.3-22.24,6.77-33.59
	c0.11-0.84,0.46-1.74-0.49-2.85c-0.4,10.31-2.61,20.02-5.03,29.66C257.32,624.94,257.57,628.74,254.34,631.02z"/>
<path class="st7" d="M326.04,946.1c0.01-0.51,0.01-1.02,0.02-1.53c0.68-0.5,1.7-0.35,2.26-1.19c-0.73-0.28-1.63,0.44-2.23-0.37
	c0.16-6.22-0.69-12.48,0.63-18.66c2.11,3,0.59,6.34,0.99,9.23c-0.25-3.11,2.12-6.75-1-9.88c-0.06-0.25-0.06-0.5,0-0.75
	c2.64-1.93,0.52-4.28,0.56-6.45c0.07-2.67-0.53-5.39,0.59-7.98c2.9-0.62,6.59,1.95,6.64,5.37c0.06,4.25,1.05,8.73-1.37,12.75
	c-0.44,0.73-0.4,1.43-0.14,2.21c2.07,6.24,1.5,12.68,1.48,18.14c-0.08-4.14,0.61-9.26-0.55-14.31c-0.23-1.02-0.32-2.1,0.16-3.03
	c1.26-2.46,1.68-5.07,1.87-7.8c0.16-2.39,1.37-4.47,4.14-3.96c2.7,0.49,3.36,2.78,2.53,5.12c-1.09,3.06,0.01,6.78-2.85,9.32
	c-0.44,0.39-0.33,1.25-0.15,1.87c1.39,4.61,0.13,8.82-1.87,12.93c-1.15,2.38,0.32,4.19,1.32,6.11c0.58,1.85,1.87,2.59,3.77,2.59
	c9.73,0.02,19.46-0.03,29.2,0.02c2.88,0.02,3.03-1.25,2.43-3.64c-1.56-6.2-3.95-12.17-5.04-18.5c0.55-2.47,0.01-4.84-0.67-7.19
	c-2.9-9.99-5.79-19.97-8.63-29.97c-0.57-2-1.76-3.34-3.35-4.52c-5.98-4.44-12.11-8.68-17.95-13.31c-1.26-1-3.58-1.71-2.51-4.09
	c0.74-1.66,4.75-2.02,6.61-0.46c2.88,2.41,5.99,4.39,9.26,6.19c4.31,1.1,8.36,3.55,13.08,2.56c3.61,0.62,7.14,0.2,10.64-0.79
	c4.85-1.37,5.28-0.89,7.62,3.68c2.54,4.97,3.44,10.08,3.17,15.59c-0.21,4.34-0.26,8.72,0.47,13.05c-1.45,13.83,2.24,26.93,5.61,40.1
	c0.6,2.35,2.02,2.47,3.96,2.46c11.7-0.05,23.4-0.04,35.1,0c1.25,0,2.57-0.37,3.76,0.39c-0.85,1.48-2.33,1.45-3.73,1.45
	c-31.07-0.06-62.13,0.23-93.19-0.12c-2.73-0.91-5.57-0.78-8.39-0.74c-2.82,0.04-4.01-0.92-3.12-3.93
	C327.94,951.29,328.48,948.45,326.04,946.1z"/>
<path class="st7" d="M90.42,720.36c0.74-0.48,1.49-0.97,2.23-1.45c1.74,0.04,2.2,1.6,3.05,2.65c7.58,9.35,18.56,9.25,25.67-0.47
	c1.94-2.66,4.07-3.75,7.31-4.05c8.32-0.78,16.68-0.99,24.96-2.07c0.51-0.07,1.03-0.1,1.54-0.09c2.09,0.05,4.49-0.01,4.9,2.65
	c0.46,2.94-2.14,3.11-4.09,3.51c-4.79,0.98-9.64,1.63-14.46,2.47c-4.66,0.81-9.35,1.49-13.97,2.53c4.98-0.14,9.75-1.67,14.68-2.13
	c0.9-0.08,1.77-0.33,2.68-0.32c0.91,0.01,1.98-0.01,2.38,0.9c0.52,1.17-0.47,1.92-1.27,2.52c-5.05,3.76-10.8,5.26-17.43,5.19
	c1.85,0.78,3.83,0.01,5.05,1.53c0.25,0.86,0.43,1.74,0.76,2.56c0.89,2.18,0.79,3.16-2.1,3.76c-5.56,1.16-8.73,5.18-9.47,10.75
	c-0.26,1.95-0.86,2.81-2.71,3.47c-6.01,2.15-8.26,5.97-7.63,12.39c-5.46,0.38-10.38,2.79-15.56,4.17c-1.89,0.5-2.81,2.13-3.66,3.75
	c-0.84,1.62-1.85,3.09-3.56,3.92c-0.95,0.46-2.01,0.87-2.9,0.12c-1.12-0.94-0.15-1.91,0.35-2.7c2.23-3.48,3.92-7.21,5.27-11.11
	c-1.89,3.21-3.1,6.8-5.38,9.79c-1.42,1.87-2.42,4.62-5.66,3.21c-2.42-1.05-3.83-4.67-3.16-7.62c0.58-2.56,2.39-4.52,3.33-6.89
	c-0.27-0.22-0.41-0.12-0.65,0.13c-1.07,1.11-1.45,3.56-3.59,2.75c-1.93-0.73-1.86-2.88-1.92-4.69c-0.08-2.38,0.77-4.52,1.61-6.69
	C81.47,743.32,86.6,732.09,90.42,720.36z"/>
<path class="st4" d="M173.96,642.02c-1.57,2-0.31,3.48,0.82,5.09c9.09,12.95,18.14,25.91,27.19,38.88c0.51,0.73,0.9,1.54,1.35,2.32
	c6.32,9.74,9.6,20.24,8.63,31.99c-0.54,6.64-1.99,8.1-8.58,7.38c-6.36-0.7-10.34-4.59-13.31-9.86c-1.65-3.39-1.39-7.06-1.58-10.67
	c1.49-4.39,0.34-8.73-0.09-13.35c-0.9,0.88-0.54,1.91-1.12,2.57c-0.61,0.73-1.34,0.47-2.06,0.25c-2.67-1.29-3.88-4.01-5.88-5.97
	c-8.59-8.44-17.06-17-25.59-25.5c-1.46-1.45-2.84-2.94-3.79-4.79c-1.12-1.66-2.5-3.06-4.21-4.11c-0.09-1.32,0.75-2.14,1.64-2.87
	c6.7-5.53,14.24-9.47,22.66-11.64C171.27,641.43,172.75,640.69,173.96,642.02z"/>
<path class="st4" d="M283.52,704.26c-4.56-4.65-10.23-7.82-15.47-11.56c-0.23-2.35,1.46-3.8,2.83-5.15
	c5.04-4.95,10.49-9.38,17-12.32c1.03-0.46,2.06-1.14,3.26-0.44c6.51,6.15,13.02,12.3,19.53,18.46c5.03,4.76,10.07,9.52,15.08,14.31
	c0.76,0.73,1.54,1.36,2.63,1.47c0.66,1.75,1.95,2.91,3.45,3.99c4.37,3.13,8.81,6.14,13.2,9.25c2.09,1.48,2.98,3.13,1.57,5.49
	c-3.88,6.49-6.89,13.42-10.45,20.08c-0.5,0.95-0.83,2.25-2.38,2.08c-2.71-3.25-4.93-6.78-6.21-10.85c-0.51-2.25-0.12-4.6-0.91-6.84
	c-2.05-5.86-5.98-9.8-11.83-11.76c-2.1-0.7-3.42-1.84-4.28-3.97c-3.96-9.77-13.07-14.44-23.36-12.19
	C285.95,704.56,284.72,705.32,283.52,704.26z"/>
<path class="st2" d="M149.95,660.37c7.24,6.27,13.56,13.46,20.39,20.15c5.11,5,10.03,10.19,15.04,15.3c-0.2,2.1-2.02,1.55-3.22,1.87
	c-3.76,0.99-5.8,3-6.28,6.4c-0.39,2.78,1.4,5.8,4.31,7.56c3.27,1.98,7.23,2.74,9.93,5.7c2.57,8.05,11.65,13.08,20,11.08
	c0.74-0.18,1.43-0.53,2.22-0.51c4.63,1.85,8.69,4.82,13.35,6.64c1.12,0.44,2.4,1.26,1.32,2.91c-3.78,0.39-7.26-0.52-10.82-1.8
	c-5.84-2.09-11.86-2.75-17.85-0.3c-1.83-0.26-2.22-1.96-3.02-3.17c-3.7-5.55-8.91-8.54-15.43-9.52c-1.5-0.22-2.77,0.01-3.95,0.9
	c-2.93-7.08-8.08-11.69-15.41-13.91c-1.22-1.41-1.35-3.27-2.04-4.9c-3.16-7.39-8.69-11.37-16.76-11.79
	c-1.47-0.08-3.12,0.33-4.2-1.18c3.98-0.15,4.73-2.35,4.87-6.07C142.72,676.69,145.85,668.35,149.95,660.37z"/>
<path class="st3" d="M210.04,532.8c4.08,12.77,11.14,23.59,21.22,32.44c2.18,1.92,4.69,3.2,7.52,3.69c3.78,0.66,5.64-1.24,4.94-4.98
	c-0.73-3.88-1.24-7.68,2.03-10.78c3.39,0.63,5.82,2.58,7.58,5.46c1.8,10.48-0.6,20.56-2.97,30.63c-0.33,0.74-0.83,1.17-1.69,0.97
	c-14.33-3.19-28.65-6.38-42.98-9.57c-0.87-0.16-0.95-0.82-0.94-1.52c2.69-10.04,4.27-20.21,3.89-30.66
	c-0.24-6.47-2.62-11.86-7.22-16.34C204.29,532.36,207.16,532.58,210.04,532.8z"/>
<path class="st8" d="M328.36,908.25c-0.24,2.97-0.56,5.94-0.13,8.92c-0.9,1.26,0.75,3.5-1.61,4.2c-1.88-0.88-1.35-2.58-1.32-4.05
	c0.19-8.73,0.37-17.47,0.71-26.2c0.09-2.2-0.58-3.87-1.8-5.65c-3.05-4.42-6.73-8.43-9.04-13.32c-0.5-1.07-0.91-0.97-1.66-0.74
	c-25.64,8.05-51.68,7.26-77.84,3.44c-4.49-0.1-3.91,3.42-4.4,6.18c-0.95,15.64-6.45,30.02-12.24,44.33c-2.32,5.74-2.3,5.69,4.02,5.8
	c2.11,0.03,4.42-0.65,6.23,1.15c0.14,0.22,0.28,0.45,0.42,0.67c0.29,1.73-0.87,2.18-2.2,2.45c-1.12,0.23-2.28,0.28-3.41,0.18
	c-4.24-0.38-8.25,0.26-11.96,2.42c-2.7-1.09-1.73-3.08-1.07-4.85c3.57-9.65,7.25-19.27,10.96-28.86c3.25-8.4,3.08-17.44,5.26-26.71
	c-6.6,6.22-13.66,10.24-22.31,10.91c-1.76,0.14-2.25,1.38-1.56,2.74c4.14,8.19,1.22,16.12-0.8,24.06c-2.19,8.6-4.03,17.29-6.3,25.87
	c-0.53,1.99-0.71,4.55-3.8,4.5c-2.37-1.58-1.14-3.72-0.69-5.57c2.97-12.3,5.65-24.67,8.77-35.4c-3.2,8.7-6.37,18.99-11.36,28.59
	c-0.79,0.38-1.56,0.38-2.33-0.05c-1.65-2.15-0.41-4.2,0.36-6.17c3.67-9.47,7.41-18.91,10.9-28.44c2.01-5.49,1.23-7.59-3.5-10.92
	c-0.65-0.46-1.16-1.02-0.97-1.92c0.87-1.49,2.23-0.89,3.46-0.8c19.86,1.39,35.17-11.69,36.94-31.57c0.1-1.12-0.17-2.82,1.3-2.78
	c1.84,0.05,1.3,1.91,1.26,3.08c-0.22,6.17-2.31,11.79-5.59,17.48c27.02,5.11,53.59,5.82,80.03-1.63c0.15-1.5-1.17-1.61-1.81-2.28
	c-0.7-0.74-1.79-1.43-0.83-2.55c1.01-1.16,1.84-0.04,2.6,0.55c4.79,3.67,10.08,6.1,16.12,6.84c10.65,1.3,19.78-1.84,27.51-9.21
	c0.28-0.27,0.51-0.59,0.82-0.82c0.83-0.61,1.46-2.37,2.73-1.16c1.39,1.32-0.19,2.29-1,3.16c-2.74,2.94-5.94,5.29-9.53,7.12
	c-1.02,0.52-2.04,1.03-3.38,1.7c1.94,1.85,3.79,3.32,5.88,4.53c1.09,0.63,2.39,1.2,1.96,2.89c-3.73,0.57-5.99-2.12-8.14-4.24
	c-2.63-2.6-5.03-2.24-8.17-0.83c7.32,5.44,14.37,10.75,21.5,15.95c1.94,1.42,3.21,3.01,3.87,5.42c2.93,10.75,6.07,21.44,9.12,32.15
	c0.41,1.43,1.29,2.92-0.26,4.25c-2.7,0.06-2.88-2.2-3.39-3.93c-2.76-9.37-5.54-18.73-8.03-28.17c-1.05-3.99-3.06-6.99-6.59-9.01
	c-5.1-3.7-10.17-7.45-15.13-11.34c-3.4-2.67-6.84-4.93-11.38-5.05c-1.51-0.04-3.05-0.45-4.58-1.07c0.21,0.82,0.68,1.41,1.16,1.86
	c9.04,8.37,7.37,19.26,7.07,29.83C329.2,906.94,328.87,907.64,328.36,908.25z"/>
<path class="st7" d="M193.68,885.8c0.18,0.64,0.5,1.17,1.16,1.41c4.72,1.72,6.5,5.33,4.72,10.13c-3.87,10.43-7.87,20.8-11.8,31.2
	c-0.53,1.4-1.45,2.77-0.73,4.39c0.93,2.86-0.86,5.12-1.72,7.56c-0.46,1.31-1.09,2.57-1.59,3.87c-0.75,1.48-1.25,3.04-1.65,4.65
	c-0.39,1.03-0.92,2-1.24,3.06c-1.33,2.06-0.98,5.06-3.57,6.42c-5.38,0.39-10.75,0.77-16.1-0.23c-1.49-1.12-0.19-1.84,0.39-2.66
	c1.21-0.93,1.52-2.33,1.91-3.68c4.22-14.52,8.16-29.11,12.3-43.65c0.7-2.45,0.71-4.75-0.18-7.13c-0.91-2.4-1.53-4.89-2.14-7.38
	c-0.43-1.77-0.3-3.35,1.81-4.01c4.47-0.14,8.51-1.39,11.8-4.57c0.96-0.61,1.96-0.69,2.99-0.2
	C191.25,885.26,192.47,885.53,193.68,885.8z"/>
<path class="st5" d="M211.68,937.51c4.19-4.25,9.55-2.38,14.48-2.78c1.37-0.11,3.3,0.74,3.53-1.75c5.62,1.46,10.9,3.46,14.21,8.7
	c1.49,2.35,1.92,5.28,4.03,7.28c-0.49,1.34,0.16,2.51,0.54,3.72c1.61,5.11,0.9,6.08-4.62,6.14c-4.89,0.05-9.77,0.01-14.66,0.01
	c-6.04,0-12.09,0-18.13,0c-2.23,0-4.38-0.24-6.09-1.89c-0.95-0.97-0.8-2.16-0.35-3.21c2.05-4.8,3.65-9.77,5.5-14.65
	C210.41,938.33,210.88,937.75,211.68,937.51z"/>
<path class="st9" d="M333.76,749.91c4.09-7.81,8.13-15.66,12.33-23.41c1-1.85-0.02-2.42-1.21-3.24
	c-5.17-3.57-10.31-7.18-15.46-10.78c-1.25-0.87-2.91-1.64-1.04-3.46c7.2,4.01,13.61,9.18,20.42,13.78c2.93,1.98-0.9,3.78-0.29,6.03
	c7.81-0.99,15.57-0.1,22.94,2.71c14.92,5.69,26.09,15.23,30.54,31.24c0.21,0.74,0.56,1.54,0.44,2.25c-1,6.29,2.39,10.34,6.17,14.96
	c11.09,13.59,13.32,29.11,6.21,45.19c-7.16,16.2-20.18,24.81-37.86,26.29c-0.64,0.05-1.29,0.06-1.93,0.03
	c-0.82-0.04-1.61-0.31-1.63-1.25c-0.02-0.91,0.71-1.27,1.54-1.35c2.3-0.22,4.64-0.25,6.9-0.67c20.99-3.96,35.16-21.93,34.06-43.11
	c-1.06-20.54-17.59-37.17-38.57-38.88c-1.38-0.11-3.95,0.71-3.82-1.29c0.15-2.23,2.72-1.16,4.22-1.14
	c4.02,0.06,7.88,1.07,11.67,2.37c3.63,1.25,6.97,3.12,10.62,5.43c0.6-6.59-1.15-12.08-4.14-17.24
	c-9.04-15.61-29.18-25.29-47.38-22.97c-1.87,0.24-2.62,1.22-3.35,2.66c-2.84,5.61-5.72,11.2-8.64,16.77
	c-0.49,0.94-0.71,2.58-2.28,2.07C332.48,752.32,333.83,750.93,333.76,749.91z"/>
<path class="st10" d="M292.33,666.79c-0.97,0.53-2.25,0.59-2.74,1.83c-3.83,2.11-8.19,2.76-12.21,4.34
	c-5.84,2.28-11.61,4.67-15.73,9.74c6.74-5.93,14.79-9.17,23.32-11.45c0.74-0.2,1.47-0.45,2.24-0.56c0.96-0.13,1.84,0.02,2.31,0.95
	c0.57,1.12-0.39,1.59-1.06,2.15c-0.3,0.25-0.64,0.44-0.98,0.61c-8.09,4-14.5,10.08-20.58,16.58c-0.73,0.78-1.24,2.07-2.72,1.72
	c-0.52-0.8-1.04-1.6-1.56-2.4c-0.07-0.1-0.13-0.29-0.21-0.3c-4.46-0.43-7.15-2.86-8.17-7.19c-1.17-0.66-2.35-1.32-3.52-1.99
	c-0.09-2.03,1.63-2.75,2.84-3.73c6.87-5.59,14.6-9.48,23.26-11.49c-6.08,0.5-11.42,3.04-16.58,6.03c-1.67,0.97-3.23,2.1-4.81,3.2
	c-1.54,1.07-3.11,2.15-4.6-0.04c-1.33-1.95-1.43-3.83,0.51-5.47c5.67-4.81,12-8.3,19.35-9.9c5.38-1.17,10.72-1.05,16.06,0.05
	c1.98,0.41,4,1.02,2.35,3.81c-0.77,1.29-0.05,1.84,1.14,2.18C291.04,665.69,292.07,665.65,292.33,666.79z"/>
<path class="st11" d="M229.28,932.31c-4.48,0-8.96,0-14.11,0c6.77-17.22,14.07-33.77,15.31-52.04c0.88-1.61,2.07-1.6,3.43-0.64
	c0.13,0.01,0.26,0.02,0.38,0.02c8.32,0.17,8.05,0.1,5.92,8.46C236.44,902.81,232.18,917.39,229.28,932.31z"/>
<path class="st12" d="M204.69,956.15c2.07,1.08,4.24,1.37,6.59,1.34c10.75-0.1,21.5-0.04,32.24-0.04c5.41,0,5.4,0,3.57-4.97
	c-0.49-1.33-1.83-2.92,0.84-3.52c0.45,0.6,1.2,1.16,1.3,1.82c0.95,6.22,4.83,7.18,10.41,6.78c7.04-0.51,14.15-0.18,21.22-0.07
	c1.3,0.02,3.7-1.02,3.61,1.37c-0.07,1.88-2.31,1.07-3.57,1.07c-53.79,0.04-107.58,0.03-161.37,0.03c-13.9,0-27.8,0.02-41.69-0.03
	c-1.4-0.01-3.85,0.87-2.97-2.29c2.78-0.69,5.61-0.28,8.42-0.3c7.84-0.07,15.68-0.24,23.51,0.04c7.46,0.26,14.83-0.96,22.26-0.92
	c2.22,0.01,3.9-1.09,5.46-2.5c1.82-1.65,3.96-2.25,5.94-0.64c4.05,3.27,8.7,3.35,13.51,3.23c2.27-0.06,4.64-0.49,6.81,0.71
	c5.81,0.33,11.61,0.37,17.42-0.03c2.99-1.32,6.14-0.51,9.21-0.72C193.19,956.55,198.95,956.69,204.69,956.15z"/>
<path class="st13" d="M175.24,889.77c-1.26,1.3-1.63,2.68-0.77,4.42c3.5,7.09,2.85,14.05,0.41,21.51
	c-3.99,12.2-7.02,24.72-10.52,37.09c-0.39,1.37-0.19,3.25-2.28,3.6c-2.24-1.02-1.45-2.52-0.96-3.93
	c-6.44,0.58-13.23,0.45-19.98,0.16c-4.98-0.22-9.93,0.52-14.89,0.12c-1.76-0.14-3.62,0.22-5.12-1.09c-0.96-0.63-1.13-1.47-0.65-2.47
	c12.85-0.05,25.7-0.2,38.55-0.09c2.79,0.02,4.14-0.69,4.7-3.52c0.7-3.5,1.86-6.9,2.95-10.8c-6.77,0-13.26,0.04-19.74-0.04
	c-1.26-0.02-3.41,0.8-3.5-1.19c-0.09-2.11,2.1-1.32,3.33-1.34c6.42-0.1,12.85-0.08,19.28-0.11c2.39-2.78,2.4-6.39,3.32-9.66
	c1.84-6.49,3.91-12.92,5.03-19.6c-0.24-0.86-0.51-1.71-0.72-2.58c-1.3-5.44-2.89-10.13-9.75-11.38c-4.89-0.89-8-5.32-11-9.22
	c-3.11-2.76-3.86-6.49-4.07-10.35c-0.09-1.61,0.03-3.44,2.41-3.55c1.17,0.76,0.92,1.98,1.06,3.11c1.43,10.98,8.46,18.04,19.48,19.62
	C173.04,888.65,174.45,888.41,175.24,889.77z"/>
<path class="st14" d="M133.66,733.73c-1.8-0.06-3.6-0.08-5.39-0.21c-1.12-0.08-2.69-0.08-2.57-1.63c0.13-1.68,1.68-1.11,2.77-1.05
	c7.7,0.45,12.97-1.25,19.31-6.68c-3.66,0.56-6.42,0.97-9.18,1.4c-2.79,0.44-5.57,1.07-8.38,1.32c-1.93,0.17-5.04,2.19-5.53-0.54
	c-0.36-2.04,3.25-1.57,5.12-1.9c9.11-1.64,18.24-3.12,27.36-4.66c1.1-0.19,2.52,0,2.36-1.77c-0.16-1.76-1.21-2.25-2.94-2.11
	c-10.25,0.85-20.51,1.63-30.76,2.4c-1.13,0.08-1.77,0.52-2.43,1.49c-9.15,13.55-22.3,13.15-30.75-0.89
	c-0.26-1.77-0.54-3.54-0.77-5.31c-0.11-0.84,0.16-1.64,1.06-1.77c0.9-0.13,1.33,0.5,1.42,1.4c0.09,0.89,0.24,1.78,0.43,2.66
	c1.49,6.75,7.32,11.18,14.33,10.91c6.43-0.25,11.83-5.13,12.94-11.65c0.2-1.17-0.35-3.04,1.32-3.2c1.97-0.2,1.28,1.67,1.52,2.83
	c0.38,1.85,1.88,0.9,2.82,0.83c9.61-0.68,19.22-1.36,28.8-2.27c2.94-0.28,4.75,0.53,5.46,3.41c0.73,2.96-0.21,4.93-3.29,5.88
	c-4.66,1.44-9.06,3.37-12.92,6.52C142.31,731.98,137.89,732.7,133.66,733.73z"/>
<path class="st15" d="M227.01,737.46c0.04-1.93-1.58-1.99-2.81-2.56c-4.14-1.89-8.31-3.74-11.92-6.6c-0.83-0.83-0.71-1.86-0.59-2.89
	c0.45-3.68,1.16-7.33,1.31-11.05c0.09-2.26,1.27-3.43,3.55-2.41c6.65,3,13.2,6.25,19.64,9.66c2.72,1.44,4.68,4.31,5.29,7.67
	c-0.34,1.43-1.05,2.57-2.51,3.09c-2.66-0.63,3.46,3.65,1.24,1.63c1.84,4.37-2.2,0.18,0.99,2.63c-1.83,0.58-3.91-0.56-5.61,0.84
	c-1.7,1.37-2.8,0.23-3.79-0.98c-1.28-1.56,0.99,2.29-0.57,0.37c0.24,2.6-0.27-1.79-1.04,0.66
	C229.12,737.5,228.07,737.48,227.01,737.46z"/>
<path class="st16" d="M133.86,627.83c10.69-5.6,21.85-7.23,33.56-3.91c2.39,0.68,2.78-0.87,3.42-2.5c3.1-7.89,6.27-15.75,9.41-23.63
	c0.19-0.48,0.35-0.97,0.56-1.44c0.42-0.93,0.81-2.16,2.15-1.55c1.33,0.61,0.64,1.69,0.26,2.64c-2.99,7.52-5.97,15.04-8.95,22.56
	c-0.24,0.6-0.4,1.24-0.72,1.78c-1.42,2.43-1.28,4.04,1.84,4.97c2.83,0.85,3.88,2.35,0.36,4.04c-0.42,0.2-1.05,0.62-1.06,0.94
	c-0.01,1.09,2.02,2.93-0.84,2.83c-1.52-0.06-3.62-0.74-4.19-2.32c-0.78-2.13,1.87-1.89,2.78-2.92c0.09-0.1,0.16-0.2,0.48-0.63
	c-9.82-4.33-19.68-5.33-29.87-1.96c-3.06,1.01-5.89,2.51-8.72,4.06c-2.31,1.26-1.79,2.82-0.93,4.5c1.05,2.07,2.17,0.21,3.04-0.18
	c6.73-3.01,13.6-5.45,21.08-5.66c0.9-0.03,1.8,0.02,2.7,0.07c1.04,0.06,2.29,0.11,2.29,1.47c-0.01,1.44-1.27,1.35-2.31,1.29
	c-9.49-0.6-17.9,2.8-26.09,7.02c-1.13,0.59-2.21,1.29-3.31,1.94c-0.96,0.48-2.22,0.28-1.89-0.77c0.94-3.02,1.48-5.83,0.83-9.1
	C129.4,629.63,132.64,629.29,133.86,627.83z"/>
<path class="st17" d="M90.42,720.36c1.75,1.5,0.19,2.91-0.29,4.15c-4.2,10.78-8.54,21.5-12.82,32.24c-1.22,3.06-1.67,6.09,0.38,9.15
	c1.56-0.98,1.97-2.55,2.88-3.73c0.61-0.79,1.13-2.05,2.36-1.17c1.14,0.82,0.33,1.82-0.22,2.7c-0.89,1.42-1.73,2.86-2.65,4.26
	c-0.89,1.35-1.25,2.87-1.08,4.41c0.25,2.27,1.16,4.54,3.4,5.22c2.2,0.66,2.78-1.84,3.74-3.19c2.24-3.16,3.7-6.75,5.14-10.33
	c0.36-0.91,0.75-2.22,2.11-1.6c1.31,0.6,0.63,1.7,0.26,2.66c-1.75,4.58-3.82,8.98-6.98,13.24c3.42-0.11,4.98-2.16,6-4.65
	c0.96-2.37,2.55-3.59,5.01-4.23c3.98-1.03,7.89-2.34,11.8-3.6c1.25-0.4,2.44-1.07,3.07,0.77c-0.22,1.53-1.57,1.47-2.6,1.81
	c-3.05,0.99-6.07,2.1-9.18,2.87c-3.01,0.75-5.14,2.03-6.59,5.07c-2.03,4.25-6.4,5.82-10.7,4.63c-4.41-1.22-7.04-4.67-7.11-9.35
	c-0.02-1.13,0.43-2.28-0.34-3.36c-3.3-4.62-2.54-9.29-0.49-14.21c4.13-9.94,7.98-20,11.95-30.01
	C88.07,722.57,88.54,720.91,90.42,720.36z"/>
<path class="st18" d="M337.41,957.22c10,0.09,20,0.25,30,0.27c21.31,0.04,42.61,0.02,63.92,0.01c1.41,0,2.82-0.09,4.22-0.13
	c1.58,1.08,1.5,2.01-0.35,2.56c-0.71,0.21-1.53,0.06-2.3,0.06c-44.64,0-89.28,0.02-133.92-0.05c-1.36,0-4.7,1.26-2.78-2.6
	C309.94,957.23,323.68,957.42,337.41,957.22z"/>
<path class="st19" d="M283.52,704.26c13.53-3.96,22.98,0.26,28.29,12.89c0.71,1.68,1.82,1.87,3.11,2.28
	c6.89,2.21,11.33,6.82,13.1,13.82c0.48,1.89,1.25,4.01-0.48,5.81c-1.89,0.18-1.48-1.23-1.6-2.3c-1.03-8.8-6.3-14.22-15.09-15.41
	c-1.69-0.23-3.48-0.05-1.82-2.58c0.77-1.18-0.17-2.21-0.65-3.2c-5.68-11.77-21-13.8-30.18-3.75c3.32,1.11,6.57,2.16,9.24,4.38
	c4.8,3.99,7.58,9,7.82,15.3c0.03,0.85,0.28,2.01-0.98,2.17c-1.53,0.19-1.49-1.04-1.53-2.07c-0.61-13.25-15.78-22.05-27.87-14.51
	c-0.88,0.55-1.94,1.37-2.69,0.22c-0.94-1.44,0.55-1.98,1.47-2.57c0.75-0.48,1.57-1.13,2.4-1.19
	C273.26,713,278.03,707.97,283.52,704.26z"/>
<path class="st20" d="M241.12,729.64c-2.2-4.5-5.35-7.81-10.18-9.76c-5.66-2.28-11.07-5.17-17.12-8.04
	c0.09,5.78-0.57,11.13-1.54,16.45c-6.89,4.23-21.25-1.64-22.89-9.39c-0.09-0.42,0.31-0.94,0.48-1.41c0.22-0.32,0.5-0.39,0.83-0.16
	c1.19,0.51,1.48,1.71,2.06,2.68c1.58,2.62,3.83,4.46,6.66,5.58c8.78,3.48,11.13,1.91,11.58-7.36c0.45-9.27-1.88-17.77-6.51-25.73
	c-0.75-1.29-2.04-2.44-1.18-4.18c1.67-0.38,2.22,0.87,2.89,1.96c2.83,4.62,5.12,9.5,6.18,14.83c0.49,2.48,1.53,4.03,3.94,5.06
	c4.59,1.96,8.99,4.38,13.56,6.39c5.09,2.24,10.06,4.52,12.59,9.99c0.57,1.24,1.63,1.96,3.12,1.77c1.92,0.67,3.83,1.35,5.75,2.02
	c0.84,0.29,1.97,0.52,1.73,1.64c-0.3,1.38-1.51,1.08-2.52,0.84c-1.12-0.26-2.23-0.56-3.35-0.84
	C244.91,731.9,242.32,732.6,241.12,729.64z"/>
<path class="st16" d="M292.33,666.79c-0.25-0.04-0.51-0.08-0.76-0.13c-1.71-0.31-3.99,0.12-4.7-1.83c-0.63-1.73,2.16-1.9,2.61-3.76
	c-11-2.77-21.35-1.53-31.06,4.28c-2.19,1.31-4.09,3.11-6.26,4.48c-2.43,1.54-1.51,3.24-0.32,4.81c1.56,2.07,2.34-0.35,3.17-0.91
	c6.12-4.1,12.45-7.69,19.79-9.13c0.75-0.15,1.52-0.33,2.28-0.34c0.97-0.01,2.31-0.42,2.57,0.96c0.3,1.54-1.17,1.44-2.09,1.59
	c-10.54,1.66-19.13,7.02-26.87,14.02c-1.2,0.55-3.02,0.28-2.42-0.93c1.73-3.5-0.59-6.3-0.85-9.42c0,0-0.17-0.03-0.17-0.03
	c0.49-0.86,0.72-2.03,2.13-1.81c9.97-8.77,21.64-12.37,34.81-11.46c2.85,0.59,5.72,1.12,8.55,1.81c1.02,0.25,2.91,1.21,1.59,2.1
	C291.91,662.7,292.58,664.77,292.33,666.79z"/>
<path class="st21" d="M121.13,951.64c13.48,0,26.95,0,40.37,0c0.56,1.64-1.33,3.41,0.59,4.74c-0.43,0.29-0.86,0.57-1.29,0.86
	c-5,0.07-9.99,0.13-14.99,0.2c-2.31,0.03-3.68-1.71-5.23-2.95c-1.78-1.43-3.26-2.01-4.78,0.17c-1.73,2.49-4.17,2.85-7.04,2.84
	c-17.96-0.04-35.92,0.07-53.88,0.13c1.11-1.33,2.63-0.75,3.96-0.75c11.53-0.05,23.07-0.19,34.6,0.06
	C117.63,957.04,120.73,956.56,121.13,951.64z"/>
<path class="st22" d="M387.13,914.42c-1.48-0.67-1.37-1.99-1.36-3.29c0.01-2.96-0.3-5.95,0.05-8.86c0.83-6.74-1.62-12.57-4.37-18.42
	c-0.75-1.6-1.4-2.06-3.16-1.33c-3.22,1.35-6.66,1.93-10.16,2.01c-1.28,0.03-2.68,0.24-2.89-1.64c0.91-1.3,2.34-0.7,3.54-0.97
	c3.86-0.85,8.16-0.25,11.11-4c0.83-1.05,2.91-0.21,4.42-1.31c7.69-5.58,12.45-12.85,13.72-22.31c0.14-1.02,0.24-2.04,0.37-3.07
	c0.12-0.99,0-2.4,1.44-2.21c1.27,0.17,1.09,1.5,1.11,2.54c0.03,2.6-0.49,5.12-1.16,7.6c-2.29,8.42-7.11,15.09-14.43,19.77
	c-2.16,1.38-2.52,2.59-1.23,4.55c5.86,8.94,4.19,19.01,4.36,28.8C388.48,913.35,387.97,913.96,387.13,914.42z"/>
<path class="st23" d="M151.27,865.75c-1.96,0.5-1.52,2.04-1.47,3.4c0.12,3.78,1.71,7.12,3.14,10.5c-4.64-0.01-9.28-0.02-13.92-0.03
	c0.82-9.02,1.64-18.05,2.45-27.07c1.06-0.02,1.57,0.77,2.04,1.49c1.96,2.97,3.97,5.87,6.96,7.93c0.62,0.43,1.02,1.12,0.9,1.97
	C151.33,864.54,151.3,865.15,151.27,865.75z"/>
<path class="st22" d="M202.13,740.99c5.64-2.35,11.48-2.53,17.42-1.63c1.36,0.21,2.67,0.66,4.04-0.39c7.5-5.75,15.17-5.24,22.9-0.29
	c0.89-2.04,1.76-4.02,2.62-6.01c2.68-2.26,5.36-4.48,9.28-3.44c1.82,0.48,3.27,1.48,4.34,3c0.37,0.53,0.51,1.21,0.02,1.77
	c-0.51,0.59-1.25,0.56-1.7,0.06c-2.31-2.54-4.9-3.24-7.86-1.26c-2.97,1.98-3.81,5.01-3.88,8.37c-0.02,1.07,0.93,2.46-0.52,3.1
	c-1.78,0.78-2.01-1.13-2.75-2c-4.82-5.68-13.86-6.57-20.22-1.61c-1.94,1.52-3.56,1.91-5.89,1.42c-4.44-0.93-8.95-1.04-13.39,0.13
	c-3.85,1.01-6.99,3.14-9.38,6.36c-0.61,0.81-1.13,2.5-2.58,1.31c-1.27-1.04-0.08-2.1,0.55-2.99
	C196.93,744.33,199.37,742.46,202.13,740.99z"/>
<path class="st24" d="M173.96,642.02c-10.84,1.9-20.22,6.71-28.22,14.24c-0.59,0.45-1.2,0.89-1.78,1.35
	c-0.65,0.52-1.35,0.74-2.03,0.15c-0.99-0.85,0-1.56,0.25-2.32c8.22-7.46,17.69-12.77,28.3-16.25c-8.84-0.25-17.28,0.94-25.15,4.99
	c-0.68,0.35-1.3,0.9-2.02,1.11c-1.39,0.41-2.81,3.21-4.07,0.92c-1.04-1.89,1.7-2.46,2.96-3.26c8.44-5.33,18.09-6.25,27.67-7.12
	c2.49-0.23,3.97,2.53,5.72,4.16C175.45,641,174.73,641.53,173.96,642.02z"/>
<path class="st25" d="M264.17,692.7c7.01-8.5,15.01-15.81,25.27-20.22c-0.6-1.38-1.46-1.1-2.37-0.85
	c-9.07,2.55-17.98,5.41-24.95,12.24c-0.69,0.67-1.49,1.77-2.57,0.7c-1.13-1.13,0.12-1.85,0.76-2.51c3.47-3.52,7.54-6.22,12.07-8.13
	c5.55-2.34,11.17-4.53,17.21-5.3c0.52,0.36,1.06,0.7,1.56,1.09c1.06,0.83,3.01,0.93,3.04,2.58c0.03,1.74-2.2,1.42-3.05,2.5
	c-9.35,3.84-17.08,9.77-23.09,17.9c-0.5,0.54-1.01,1.08-1.5,1.63c-0.57,0.65-1.09,1.51-2.14,0.97
	C263.05,694.6,264.04,693.59,264.17,692.7z"/>
<path class="st22" d="M253.32,558.62c-2.53-1.82-5.05-3.64-7.58-5.46c-3.22-3.36-6.31-6.82-6.96-11.67
	c-0.17-1.27-0.92-3.3,0.96-3.61c1.89-0.31,1.31,1.79,1.54,2.89c1.74,8.15,8.09,12.09,14.46,16.04c1.19,0.74,1.91-0.23,2.7-0.78
	c2.41-1.69,4.99-3.22,7.14-5.21c3.56-3.29,7.36-4.27,11.89-2.44c2.72,1.1,4.15,0.73,3.88-2.8c-0.16-2.08-1.33-5.95,0.97-6.03
	c2.46-0.08,0.85,3.79,1.48,5.83c0.07,0.24,0.2,0.46,0.3,0.69c-0.26,6.51-0.35,6.8-6.66,4.97c-4.22-1.22-7.51-0.75-10.71,2.24
	c-2.03,1.89-4.43,3.39-6.67,5.07c-0.26,0.19-0.51,0.39-0.77,0.58C257.2,560.71,255.25,559.82,253.32,558.62z"/>
<path class="st26" d="M201.62,744.51c3.32,2.94,5.51,6.52,6.24,10.93c-0.28,1.01,0.15,2.64-1.61,2.49
	c-1.39-0.12-1.08-1.53-1.27-2.48c-1.32-6.54-4.4-9.57-11.19-10.89c-0.99-0.19-2.34-0.02-2.14-1.49c0.18-1.37,1.54-1.23,2.49-1.02
	c3.62,0.79,3.01-1.15,2.34-3.36c-2.37-7.88-9.06-13.51-17.23-14.44c-1.12-0.13-2.34,0.13-3.33-0.69c-0.18-2.92,1.97-2.18,3.44-2
	c8.84,1.1,14.95,6.03,18.97,13.8c0.53,2.33,1.15,4.65,1.54,7.01C200.07,743.52,200.51,744.22,201.62,744.51z"/>
<path class="st27" d="M335.49,853.04c-1.02-0.35-3.16,0.75-3.15-1.4c0-1.82,1.94-1.17,3.11-1.23c16.81-0.82,30.19-13.62,31.57-30.2
	c0.1-1.17-0.45-3.05,1.42-2.98c1.91,0.07,1.23,1.89,1.15,3.06C368.41,838.06,353.38,852.56,335.49,853.04z"/>
<path class="st28" d="M196.56,860.63c-10.04-0.39-19.72-5.36-26.73-15.3c-0.65-0.92-2.2-2.08-0.54-3.21
	c1.42-0.96,1.91,0.7,2.56,1.55c11.04,14.48,26.75,18.27,43.07,10.35c1.02-0.49,2.25-1.63,3.02-0.29c0.95,1.64-0.91,2.11-1.93,2.67
	C210.6,859.39,204.78,860.75,196.56,860.63z"/>
<path class="st29" d="M144.98,799.7c0.08-14.23,8.68-27.29,21.42-32.43c1.05-0.42,2.52-1.75,3.35-0.12c0.92,1.82-1.1,1.92-2.13,2.41
	c-16.17,7.73-23.05,22.59-18.56,40.16c0.26,1.02,1.32,2.37-0.5,2.82c-1.64,0.4-1.64-1.2-2-2.24
	C145.37,806.87,144.94,803.32,144.98,799.7z"/>
<path class="st30" d="M151.37,863.94c-4.14-3.07-7.39-6.92-9.91-11.39c0.08-1.22-1.95-2.83,0.24-3.59c1.73-0.6,1.82,1.41,2.34,2.45
	c5.71,11.31,18,16.82,30.16,13.46c0.12-0.03,0.25-0.07,0.37-0.1c1.27-0.35,3.06-1.62,3.54,0.38c0.42,1.78-1.79,1.8-3.03,2.16
	c-6.12,1.78-12.2,1.59-18.15-0.75C155.03,865.8,153.22,864.82,151.37,863.94z"/>
<path class="st30" d="M38.27,960.04c-6.56,0-13.11,0.01-19.67-0.01c-1.1,0-2.71,0.35-2.78-1.23c-0.08-1.65,1.55-1.36,2.64-1.36
	c13.24-0.02,26.48-0.02,39.72,0.01c1.06,0,2.75-0.43,2.75,1.21c0,1.94-1.83,1.35-2.99,1.36C51.38,960.07,44.83,960.04,38.27,960.04z
	"/>
<path class="st31" d="M141.08,835.72c-10.72-0.36-20.54-9.94-21.05-20.49c-0.05-1.1-0.39-2.6,1.32-2.63
	c1.39-0.02,1.2,1.35,1.35,2.34c1.6,10.6,8.31,17.14,18.69,18.27c1.11,0.12,3.09-0.58,2.83,1.46
	C144,836.45,142.15,835.54,141.08,835.72z"/>
<path class="st32" d="M137.52,691.78c7.79-0.62,14.53,1.37,19.34,7.95c2.16,2.95,3.69,6.16,3.67,9.93c-2.26,0.29-2.58-1.21-3.1-2.96
	c-2.76-9.24-12.18-14.32-21.45-11.85c-0.93,0.25-2.37,2.03-3.15-0.11c-0.85-2.3,1.47-1.81,2.49-2.39
	C135.95,691.98,136.77,691.95,137.52,691.78z"/>
<path class="st33" d="M85.73,702.24c-0.44,0.64-1.13,0.42-1.74,0.54c-4.56,0.9-7.53,4.11-7.7,8.32c-0.18,4.44,2.64,8.03,7.17,9.22
	c1.08,0.29,3.13-0.38,2.79,1.63c-0.29,1.73-2.12,1.03-3.27,0.87c-5.78-0.81-10.03-6.7-9.22-12.66c0.85-6.3,5.75-10.3,11.86-9.67
	C86.11,701.05,86.03,701.64,85.73,702.24z"/>
<path class="st34" d="M128.13,793.79c-6.71-0.17-13.75-7.32-13.7-13.88c0.01-0.93,0.02-2,1.08-2.19c1.43-0.25,1.58,0.96,1.7,2.01
	c0.8,6.63,4.56,10.33,11.12,11.31c0.98,0.15,2.31,0.02,2.19,1.51C130.4,793.96,129.16,793.81,128.13,793.79z"/>
<path class="st35" d="M190.04,884.99c-0.94,0.89-1.98,0.44-2.99,0.2c-3.83-2.03-7.79-3.85-10.83-7.1c-1.5-1.6-2.72-3.37-3.56-5.4
	c-0.3-0.72-0.13-1.23,0.38-1.68c0.59-0.53,1.32-0.47,1.63,0.17c3.01,6.37,8.77,9.35,14.73,12.12
	C190.07,883.61,189.98,884.37,190.04,884.99z"/>
<path class="st7" d="M337.41,957.22c-13.73,0.39-27.47,0.39-41.2,0.13c8.4-0.9,16.81-0.33,25.21-0.3c3.45,0.01,4.94-0.81,4.52-4.44
	c-0.25-2.14,0.05-4.34,0.09-6.51c3.33,0.07,3.18,2.56,2.95,4.69c-0.21,1.98-0.98,3.91-1.53,5.94
	C330.78,956.89,334.1,957.06,337.41,957.22z"/>
<path class="st36" d="M117.97,684.56c1.36-0.09,2.51-0.16,2.58,1.29c0.06,1.2-0.95,1.32-1.88,1.4c-5.86,0.51-9.71,3.62-11.63,9.12
	c-0.45,1.29-1.3,2.16-2.51,1.67c-1.01-0.4-0.33-1.6-0.12-2.41C106.03,689.68,112.29,684.7,117.97,684.56z"/>
<path class="st37" d="M85.73,702.24c-0.04-0.58-0.07-1.16-0.11-1.74c2.02-0.18,1.26-1.92,1.56-2.97c1.57-5.35,6.55-9.54,11.64-9.61
	c0.99-0.01,2.26-0.3,2.33,1.2c0.05,1.15-0.97,1.23-1.91,1.36c-5.61,0.81-9.17,3.96-9.7,9.65C89.25,703.31,86.92,701.43,85.73,702.24
	z"/>
<path class="st38" d="M134.3,643.68c1.68-0.42,2.82,0.35,2.17,1.91c-1.49,3.58,0.33,4.03,3.21,4.17c1.7,0.08,3.18,0.79,1.53,2.89
	c-0.38-0.04-0.75-0.07-1.13-0.12C130.44,651.2,131.83,653.05,134.3,643.68z"/>
<path class="st29" d="M254.22,682.81c1.4-0.46,2.88-0.52,2.42,1.47c-0.86,3.73,1,4.01,3.88,3.64c1.59-0.2,3.42-0.18,2.08,2.38
	c-0.25,0.01-0.51,0.02-0.76,0.03C253.67,690.72,253.67,690.72,254.22,682.81z"/>
<path class="st7" d="M326.7,923.7c2.2-0.34,2.91,1.36,2.8,2.79c-0.28,3.75-1.01,7.48-1.55,11.21c-0.41-0.01-0.82-0.02-1.24-0.02
	c0-4.44,0-8.89,0-13.33C326.66,924.13,326.66,923.91,326.7,923.7z"/>
<path class="st39" d="M246.49,735.04c-2.63-0.86-5.69-0.61-7.76-2.95c0.91-0.7,1.14-2.07,2.4-2.44c2.03,0.78,4.06,1.56,6.09,2.33
	C246.06,732.78,246.56,733.98,246.49,735.04z"/>
<path class="st40" d="M233.9,879.63c-1.17,0.08-2.37-0.02-3.43,0.64c0.1-0.76,0.29-1.52,0.27-2.28c-0.11-3.84,1.62-4.71,4.93-3.13
	C234.02,876.06,234,877.86,233.9,879.63z"/>
<path class="st7" d="M326.09,943.01c0.13-0.01,0.25-0.05,0.38-0.04c1.28,0.1,2.07-2.34,3.62-0.7c0.38,0.4,0.4,1-0.08,1.32
	c-1.18,0.81-2.22,2.3-3.94,0.98C326.06,944.05,326.08,943.53,326.09,943.01z"/>
<path class="st7" d="M326.62,921.37c1.67-0.96,0.86-2.88,1.61-4.2c0.03,0.38-0.1,0.93,0.1,1.13c2.89,2.78,0.58,3.68-1.63,4.64
	C326.68,922.42,326.65,921.89,326.62,921.37z"/>
<path class="st6" d="M254.34,631.02c3.84-12.12,6.6-24.46,7.67-37.14c0.04-0.51,0.01-1.03,0.06-1.54c0.11-1.07-0.35-2.66,1.33-2.69
	c1.66-0.03,1.5,1.55,1.4,2.63c-0.39,3.95-0.73,7.91-1.39,11.82c-1.94,11.51-4.53,22.86-8.39,33.9c-0.46,1.31-1.2,2.53-1.81,3.78
	c-2.2-0.37-1.68-1.84-1.19-3.17C252.93,636.12,253.98,633.67,254.34,631.02z"/>
<path class="st41" d="M204.74,579.14c0.31,0.51,0.62,1.01,0.94,1.52c-1.11,4.96-2.24,9.91-3.33,14.87
	c-0.26,1.18-0.71,2.61-1.96,2.39c-1.53-0.27-0.95-1.69-0.69-2.83c0.96-4.2,1.79-8.44,2.78-12.64
	C202.79,581.12,203.15,579.67,204.74,579.14z"/>
<path class="st41" d="M248.66,590.23c0.56-0.32,1.13-0.65,1.69-0.97c1.26,1.64,0.67,3.41,0.37,5.16c-0.45,2.65-0.78,5.33-1.43,7.93
	c-0.27,1.07-0.11,3.14-1.86,2.84c-1.75-0.3-0.98-2.05-0.79-3.24C247.28,598.03,247.98,594.13,248.66,590.23z"/>
<path class="st42" d="M249.37,668.64c-0.64,0.68-1.07,1.62-2.13,1.81c0.04-1.6-0.54-3.28,0.68-4.7
	C248.41,666.71,248.89,667.67,249.37,668.64z"/>
<path class="st43" d="M256.53,539.41c-0.14,3.19,1.11,5.99,3.6,8.3c0.71,0.66,1.88,1.44,0.89,2.52c-1.14,1.23-2.08,0.04-2.88-0.71
	c-2.96-2.79-4.45-6.21-4.12-10.31c0.1-1.22-0.05-3.01,1.73-2.83C257.42,536.54,256.75,538.1,256.53,539.41z"/>
<path class="st44" d="M281,527.12c1.97,0.2,3.1,1.14,3.12,2.96c0.02,1.8-1.02,2.95-2.84,2.99c-1.99,0.04-3.19-1.06-3.14-3.09
	C278.17,528.12,279.47,527.35,281,527.12z"/>
<path class="st45" d="M174.4,902.83c0.62,1.19,0.61,2.34,0.23,3.67c-2.34,8.08-4.56,16.2-6.85,24.3c-0.23,0.83-0.01,2.41-1.74,1.29
	c2.59-8.96,4.99-17.97,6.94-27.1C173.18,904.03,173.56,903.3,174.4,902.83z"/>
<path class="st7" d="M352.25,890.96c3.16,4.81,0.66,9.34-0.84,13.82c-5.16,15.49-10.28,30.98-12.57,47.23
	c-0.05,0.36-0.31,0.7-0.47,1.05c-2.86-2.23-2.58-4.52-1.1-7.7c1.36-2.93,2.82-6.19,1.44-9.92c-0.57-1.54-2.17-4.62,1.77-5.22
	c0.47-0.07,0.73-0.79,0.44-1.29c-1.38-2.41,0.41-4.43,0.92-6.52c0.52-2.12-0.13-3.5-1.92-3.87c-2.02-0.41-3.12,1.21-3.04,3.06
	c0.13,3.16-0.39,6.01-2.06,8.77c-0.58,0.96-0.6,2.65-0.19,3.74c1.69,4.52,0.27,9.11,0.61,13.64c0.11,1.47-0.17,2.87-2.19,2.83
	c0.99-6.18,1.1-12.31,0.04-18.46c-0.23-1.32-0.63-2.45-1.62-3.37c-0.58-0.55-1.12-1.76-0.55-2c5.33-2.17,1.35-6.75,2.6-10.05
	c1.56-4.11-1.8-6.59-5.16-8.44c0.06-5.91,0.03-11.82,0.23-17.73c0.08-2.31-0.43-4.18-1.85-6.04c-2.79-3.65-5.37-7.46-8.41-11.74
	c4.3,1.21,7.98,2.3,11.85,2.28c0.99-0.01,1.69,0.57,2.4,1.1C339.14,881.06,345.7,886.01,352.25,890.96z"/>
<path class="st46" d="M103.48,734.46c2.2,0.24,3.64,1.36,3.62,3.67c-0.02,2.06-1.24,3.4-3.35,3.51c-2.28,0.12-3.77-1.15-3.85-3.39
	C99.81,736.02,101.21,734.74,103.48,734.46z"/>
<path class="st15" d="M190.71,717.33c-0.28,0.05-0.55,0.11-0.83,0.16c-2.83-1.41-5.67-2.81-8.49-4.25c-4.65-2.37-7.24-5.9-6.69-9.11
	c0.82-4.83,3.17-6.72,9.4-7.63c0.45-0.07,0.86-0.46,1.29-0.7c0.49,0.26,0.97,0.51,1.45,0.77c2.79,2.92,1.48,6.8,2.38,10.16
	C190.09,710.22,189.49,713.91,190.71,717.33z"/>
<path class="st47" d="M189.22,706.75c-2.39-1.37-1.21-3.81-1.67-5.74c-0.34-1.45-0.48-2.94-0.71-4.41c-0.03-1.4-0.1-2.79-0.09-4.19
	c0.01-0.67,0.31-1.31,1.09-1.26c0.43,0.03,1.17,0.39,1.21,0.68c0.61,4.75,1.7,9.47,1.08,14.3
	C190.09,706.36,189.53,706.54,189.22,706.75z"/>
<path class="st7" d="M204.69,956.15c-0.35,1.28-1.37,1.32-2.41,1.3c-4.8-0.07-9.6-0.15-14.41-0.23c0.92-4.16,1.48-8.46,4.45-11.85
	c1.76,0.26,2.1-0.91,2.43-2.27c3.28-13.62,6.64-27.22,9.87-40.85c0.92-3.88-1.38-7.23-2.4-10.75c-0.76-2.64-0.93-3.79,2.45-4
	c9.47-0.59,17-5.3,24-12.89c-2.44,12.34-2.65,24.03-7.5,34.89c-3.5,7.85-6.24,16.05-9.26,24.11c-0.46,1.23-1.5,2.53-0.25,3.92
	C209.57,943.8,207.4,950.07,204.69,956.15z"/>
<path class="st48" d="M192.33,945.37c-1.05,3.37-2.17,6.73-3.1,10.14c-0.24,0.87-0.73,1.28-1.35,1.72c-3.22,0.37-6.44,0.38-9.66,0
	c-0.52-2.29,1.73-3.72,1.8-5.83c0.98-0.63,2.1-0.8,3.25-0.96c-0.39-0.81-1.86-0.36-1.82-1.6c-0.07-1.63,0.29-3.12,1.49-4.31
	c1.08,0.65,1.59,1.51,1.34,2.06c1.57-4.12,1.37-9.68,4.86-13.94c4.13-10.88,8.27-21.77,12.61-33.19c0.73,1.32,0.44,2.08,0.25,2.86
	c-3.17,12.97-6.33,25.95-9.46,38.93C192.21,942.58,191.56,943.96,192.33,945.37z"/>
<path class="st49" d="M189.13,932.64c-1.46,5.06-2.93,10.12-4.7,16.23c-0.74-2.15-1.13-3.25-1.51-4.36
	c1.37-3.86,2.74-7.72,4.11-11.58C187.74,932.84,188.44,932.74,189.13,932.64z"/>
<path class="st50" d="M181.44,948.83c1.48,0.71,4.5-0.91,4.42,1.34c-0.09,2.51-3.06,0.93-4.72,1.32c-0.35,0.08-0.75-0.07-1.12-0.11
	C180.33,950.44,180.55,949.45,181.44,948.83z"/>
<g>
	<g>
		<path class="st51" d="M2273.79,615.23c0,0,2.95-35.53-47.96-32.44c0,0-12.51-26.91-34.11-26.05c0,0,6.68-55.36-45.77-59.82
			c-52.45-4.46-53.82,49.19-53.82,49.19l2.44-19.79c0,0-15.98-27.35-55.58-10.04c-39.59,17.31-39.77,40.97-39.77,40.97
			s-28.62-7.88-41.48,37.71c-12.86,45.59,11.66,34.45,11.66,34.45L2087,674.83l115.81-16.11l56.28,3.49l22.36-11.37l4.07-28.8
			L2273.79,615.23z"/>
		<path class="st52" d="M2199.61,745.97c1.92,4.98,7.95,7.32,8.46,13.19c-2.47,2.55-5.73,2.23-8.8,2.23
			c-55.35,0.06-110.7,0.06-166.05,0c-3.07,0-6.33,0.32-8.81-2.21c2.81-6.84,9.01-10.65,14.74-15.92
			c-27.97-13.57-49.84-33-64.37-60.14c1.71-2.28,4.23-2.26,6.68-2.27c54.05-0.05,108.1-0.02,162.15,0.06
			c0.89,0.16,0.1,1.11,0.2,0.24c0.03-0.25-0.71-0.34-1.18-0.34c-53.84-0.02-107.68,0.02-161.51-0.04c-3.47,0-7.25,0.9-10.1-2.19
			c0.73-3.5-2.44-5.71-2.94-8.8c0.82-1.88,2.62-2.35,4.3-2.79c18.37-4.82,34.2-14.6,49.53-25.33c1.99-1.39,3.78-3.18,6.47-3.06
			c11.96,6.41,24.49,10.07,38.29,9.58c8.43-0.3,16.52-1.75,23.91-5.38c4.83-2.37,7.36-1.53,10.51,2.36
			c11.69,14.44,28.76,18.56,45.52,11.19c9.88-4.34,16.68-11.83,20.43-21.83c1.26-3.35,2.53-4.05,5.7-2.65
			c10.25,4.51,20.74,4.73,31.12,0.65c5.11-2.01,5.64,2.32,7.28,4.7c9.84,14.35,26.82,19.63,42.91,13.48
			c13.48-5.15,23.75-21.83,21.4-30.62c1.12-1.54,1.45-4.52,4.54-2.47c2.43,4.49,1.22,9.29,0.51,13.77
			c-1.78,11.24-3.93,22.45-7.93,33.19c-0.93,2.24-2.05,4.35-3.87,6.02c-3.24,3.52-3.03,9.11-7.23,12.07
			c-2.27-2.62-5.35-1.81-8.17-1.82c-23.9-0.07-47.8-0.02-71.7-0.02c23.65,0.04,47.29,0,70.94,0.05c3.08,0.01,6.31-0.53,8.98,1.73
			c-1.25,6.81-5.93,11.8-9.63,17.17c-13.6,19.7-32.32,33.25-53.68,43.47c-2.79,2.56-6.29,1.96-9.56,1.97
			c-22.78,0.07-45.55,0.02-68.33,0.06c-2.4,0-4.84-0.35-7.2,0.77C2141.96,746.28,2170.78,746.88,2199.61,745.97z"/>
		<path class="st53" d="M2024.41,759.17c33.29,0.09,66.58,0.24,99.87,0.25c27.93,0,55.86-0.17,83.79-0.26
			c38.19,0.09,76.38,0.19,114.57,0.28c4.91,0.01,9.83-0.08,14.74,0.02c2.07,0.04,5.26-0.65,5.11,2.6c-0.15,3.09-3.3,2.13-5.37,2.34
			c-0.88,0.09-1.79,0.01-2.68,0.01c-132.91,0-265.82,0.01-398.73-0.09c-3,0-8.56,1.83-8.53-2.19c0.04-4.89,5.7-2.54,8.8-2.57
			C1965.45,759.27,1994.93,759.26,2024.41,759.17z"/>
		<path class="st54" d="M1957.23,618.44c4.58-0.41,8.07,0.81,11.63,4.35c13.05,12.97,28.46,16.04,45.55,8.74
			c5.22-2.23,6.82,2.49,9.88,4.46c0.45,2.2-1.23,3.25-2.58,4.24c-15.28,11.16-31.25,21.01-50,25.33c-2.31,0.53-4.72,1.57-7-0.23
			c-1.73-4.96-6.32-9.32-3.24-15.29c8.16-2.99,16.76-0.17,26.51-2.04c-10.11-1.85-19.05,0.52-27.67-1.71
			c-6.75-6.74-5.75-15.68-6.82-24.04C1954.01,620.27,1955.2,618.94,1957.23,618.44z"/>
		<path class="st55" d="M2003.44,553.94c6,1.87,11.51,3.04,16.16,6.29c3.18,2.22,3.69-0.91,4.93-2.42
			c8.14-9.84,20.38-13.7,31.83-9.77c2.06,0.71,5.76,0.9,4.6,4.29c-1.15,3.38-3.86,0.65-5.65,0.12c-10.4-3.05-20.85,0.07-27.13,8.08
			c-2.11,2.69-2.32,4.42,0.3,7.18c6.64,7.01,10.41,15.49,10.78,25.28c0.07,1.9,0.74,4.77-2,4.85c-2.7,0.08-2.12-2.8-2.35-4.71
			c-2.16-17.56-13.59-30.55-29.65-33.76c-16.35-3.26-32.17,4.04-40.31,18.51c-2.68,4.77-3.9,9.93-4.67,15.25
			c-0.27,1.87,0.44,4.92-2.3,4.7c-3.07-0.25-2.1-3.39-2.01-5.48c0.77-18.77,16.72-35.78,36.29-37.88c4.98-0.53,6.99-2.57,9.17-6.66
			c12.27-22.94,31.42-35.88,57.49-38.26c0.67-0.06,1.36-0.22,2-0.11c1.95,0.33,5.22-1.23,5.18,2.27c-0.03,2.78-2.96,2-4.83,2.1
			c-11.14,0.59-21.52,3.68-31.04,9.48C2018.25,530.58,2009.35,540.6,2003.44,553.94z"/>
		<path class="st20" d="M1957.23,618.44c-0.83,0.87-1.65,1.75-2.48,2.62c-2.73,1.31-4.62-0.89-6.78-1.72
			c-9.65-3.68-17.5,0.61-19.4,10.73c-3.34,17.79,8.31,32.56,26.4,33.53c3.51,0.19,7.18-0.65,10.46,1.36
			c22.64-3.53,41.13-15.48,58.86-28.96c1.36,0.87,2.73,1.73,4.1,2.6c-18.01,14.45-37.53,25.97-60.31,31.18
			c-24.07,4.86-43.55-7.98-46.42-30.58c-0.43-3.35-0.13-6.62,0.51-9.93c1.54-7.91,4.98-14.69,13.14-16.93
			C1943.48,610.07,1951.11,612.13,1957.23,618.44z"/>
		<path class="st56" d="M2195.17,545.03c-0.2,1.65,0.99,4.77-2.3,4.81c-2.78,0.03-2.02-2.9-2.19-4.78
			c-2.2-25.36-21.81-44.39-46.41-45c-25.44-0.64-45.64,16.8-49.51,42.44c-0.38,2.5,1.33,7.44-2.49,7.18
			c-4.26-0.3-2.2-5.14-1.93-7.78c2.84-26.94,26.71-47.4,54.01-46.57C2171.3,496.13,2194.06,518.25,2195.17,545.03z"/>
		<path class="st16" d="M1971.01,678.57c58.1-0.01,116.2-0.03,174.3-0.04c1.12,0,2.24-0.04,3.35,0.05c1.41,0.11,2.86,0.56,2.72,2.24
			c-0.13,1.56-1.53,2.02-2.99,2.03c-1.79,0.01-3.58,0.03-5.36,0.03c-53.63,0-107.26,0-160.9,0.01c-2.45,0-4.9,0.14-7.35,0.22
			C1972.52,682.44,1967.9,683.71,1971.01,678.57z"/>
		<path class="st57" d="M2278.88,617.55c-0.97,1.07-1.54,2.68-3.42,2.52c-1.65-1.24-1.48-3.07-1.67-4.84
			c-1.76-16.52-13.35-28.29-29.7-30.3c-1.99-0.24-5.36,0.77-5.05-2.6c0.29-3.14,3.44-1.93,5.46-1.8
			c14.95,1.01,27.36,11.29,32.43,26.76c0.79,2.43,0.87,5.02,4.98,4.36c12.64-2.03,21.88,8.2,22.71,21.45
			c1.09,17.41-10.06,32.15-27.33,36.14c-2.81,0.65-5.72,0.9-8.58,1.33c-0.02-2.11,0.82-3.87,2.21-5.4c2.88-2.28,6.49-2.85,9.78-4.16
			c11.12-4.43,16.87-12.88,17.57-24.56C2299.01,624.32,2292.78,618.51,2278.88,617.55z"/>
		<path class="st58" d="M2199.61,745.97c-1.46,2.16-3.67,2.17-5.95,2.16c-27.21-0.03-54.43,0-81.64-0.08
			c-2.17-0.01-5.77,1.1-5.58-2.69c0.15-3.13,3.44-2.1,5.46-2.1c28.77-0.06,57.55-0.04,86.32-0.04
			C2198.68,744.13,2199.15,745.05,2199.61,745.97z"/>
		<path class="st31" d="M2191.7,554.12c20.15,0.8,38.37,18.98,39.03,38.6c0.06,1.91,0.78,4.79-1.79,5.08
			c-3.4,0.38-2.49-3.01-2.8-4.94c-3.16-20.05-14.6-31.48-34.43-34.29c-1.84-0.26-4.83,0.6-4.79-2.19
			C2186.98,553.04,2190.14,554.37,2191.7,554.12z"/>
		<path class="st59" d="M2143.59,581.42c-1.22,3.22-3.48,1.73-5.58,1.38c-13.01-2.18-24.25,1.42-33.66,10.63
			c-4.22,4.12-7.07,9.14-8.91,14.72c-0.52,1.58-1.13,3.31-2.98,2.88c-2.44-0.58-1.69-2.57-1.28-4.37
			c4.28-19.03,30.56-34.05,49.21-28.06C2141.84,579.06,2143.44,579.45,2143.59,581.42z"/>
		<path class="st60" d="M2220.77,605.34c8.55,0.42,16.08,3.2,21.86,9.85c1.12,1.29,2.89,2.77,0.97,4.51
			c-1.92,1.74-3.12-0.23-4.41-1.39c-10.52-9.45-19-10.68-31.02-4.48c-1.7,0.88-3.61,2.91-5.02,0.2c-1.33-2.55,1.45-3.37,2.98-4.36
			C2210.54,606.79,2215.54,605.74,2220.77,605.34z"/>
		<path class="st61" d="M2162.26,615.03c0.01,1-0.46,1.69-1.38,2.03c-1.93,0.72-2.83-0.77-3.87-1.88
			c-6.71-7.09-14.85-9.66-24.3-7.29c-2.74,0.69-5.26,2.33-7.83,3.62c-1.27,0.64-2.59,1.2-3.63-0.02c-1.02-1.21-0.39-2.41,0.6-3.52
			c8.41-9.46,35.21-5.56,39.93,5.83C2161.94,614.21,2162.1,614.62,2162.26,615.03z"/>
		<path class="st35" d="M2001.64,589.48c-10.94-0.03-19.83,6.49-23.72,17.29c-0.67,1.86-0.27,5.4-3.52,4.39
			c-2.9-0.9-1.3-3.9-0.79-5.85c3.06-11.72,14.94-20.49,27.59-20.35c2.43,0.03,6.46-0.9,6.4,2.71
			C2007.55,591.36,2003.79,589.16,2001.64,589.48z"/>
		<path class="st26" d="M2129.04,540.51c9.81,0.03,16.91,3.23,22.63,9.46c1.18,1.29,2.74,2.89,1.09,4.63
			c-1.91,2.02-3.03-0.2-4.27-1.3c-11-9.76-18.38-10.79-31.52-4.27c-1.64,0.81-3.28,2.18-4.61,0.1c-1.41-2.21,0.84-3.16,2.2-4.05
			C2119.34,541.95,2124.59,540.31,2129.04,540.51z"/>
		<path class="st62" d="M2119.67,666.77c-36.16,0-72.32,0-108.48-0.01c-1.78,0-3.57-0.02-5.35-0.14c-1.28-0.09-2.06-1.02-2.06-2.19
			c0.01-1.22,0.92-2.01,2.17-2.1c1.56-0.11,3.12-0.13,4.68-0.13c72.77,0,145.53,0,218.3,0.01c1.34,0,2.68-0.02,4.02,0.06
			c1.34,0.09,2.89,0.25,3.02,1.94c0.16,2.1-1.47,2.46-3.13,2.51c-1.78,0.05-3.57,0.04-5.36,0.04
			C2191.54,666.77,2155.61,666.77,2119.67,666.77z"/>
		<path class="st51" d="M2278.88,617.55c9.1-3.61,17.47,0.96,20.25,11.06c3.69,13.4-3.4,27.85-16.6,33.61
			c-3.68,1.61-7.52,2.81-11.61,2.96c3.59-14.02,8-27.86,8.53-42.51C2279.52,620.86,2279.61,619.2,2278.88,617.55z"/>
		<path class="st63" d="M2156.51,694.78c28.78,0,57.57,0,86.35,0c1.56,0,3.12,0.01,4.69,0.02c1.41,0.01,2.93,0.27,3.08,1.87
			c0.21,2.14-1.54,2.35-3.16,2.41c-1.11,0.04-2.23,0.01-3.35,0.01c-58.68,0-117.37,0-176.05,0c-0.45,0-0.9,0.04-1.34-0.01
			c-2.06-0.24-5.42,0.87-5.38-2.19c0.04-3.02,3.4-2.07,5.46-2.08C2096.71,694.76,2126.61,694.78,2156.51,694.78z"/>
		<path class="st22" d="M2098.1,727.14c22.79,0,45.58,0,68.38,0c1.56,0,3.13,0.03,4.69,0.03c1.5,0,2.81,0.62,2.96,2.11
			c0.17,1.72-1.34,2.09-2.73,2.17c-1.34,0.08-2.68,0.05-4.02,0.05c-46.26,0.01-92.51,0.01-138.77,0.02c-1.12,0-2.24,0.05-3.35-0.04
			c-1.49-0.11-3.48,0.2-3.55-2.01c-0.07-2.11,1.69-2.3,3.33-2.32c2.01-0.02,4.02-0.02,6.03-0.02
			C2053.41,727.14,2075.75,727.14,2098.1,727.14z"/>
		<path class="st64" d="M2175.2,715.38c-18.1,0-36.2,0.04-54.3-0.05c-2.01-0.01-5.41,1.14-5.56-1.92c-0.19-3.85,3.54-2.45,5.64-2.46
			c36.42-0.08,72.84-0.07,109.27-0.02c2.05,0,5.46-1.01,5.59,1.93c0.17,3.77-3.56,2.44-5.68,2.45
			C2211.84,715.43,2193.52,715.38,2175.2,715.38z"/>
		<path class="st25" d="M2261.54,682.58c-27.89,0.1-55.79,0.2-83.68,0.28c-1.71,0-4.2,0.41-4.25-1.99c-0.07-3.03,2.75-2.29,4.58-2.3
			c26.11-0.05,52.23-0.03,78.34-0.07c2.94,0,5.53,0.1,4.97,4.14C2261.49,682.64,2261.54,682.58,2261.54,682.58z"/>
		<path class="st65" d="M2010.49,699.08c-6.23,0-12.45,0.01-18.68-0.01c-1.59,0-3.46-0.11-3.53-2.13c-0.08-2.14,1.86-2.14,3.42-2.15
			c12.68-0.02,25.35-0.04,38.03-0.01c1.7,0,3.99-0.28,3.79,2.38c-0.16,2.06-2.15,1.89-3.68,1.89
			C2023.39,699.1,2016.94,699.08,2010.49,699.08z"/>
		<path class="st66" d="M1965.42,664.95c-7.14,1.12-14.17,0.96-21-1.68c-13.67-5.29-21.41-20.61-17.62-34.84
			c2.96-11.1,11.44-15.13,22.04-10.42c2.02,0.9,3.94,2.03,5.91,3.06c1.2,8.28,1.97,16.65,5.15,24.52c0.84,1.65,0.85,3.52,1.36,5.26
			C1962.65,655.55,1964.03,660.25,1965.42,664.95z"/>
		<path class="st67" d="M1961.26,650.84c-3.88-0.87-4.01-2.71-1.35-5.26c9.13,0.07,18.26,0.09,27.39,0.27
			c2,0.04,5.17-0.77,4.91,2.69c-0.21,2.75-3.01,2.01-4.89,2.04C1978.62,650.71,1969.94,650.76,1961.26,650.84z"/>
	</g>
	<g>
		<path class="st51" d="M1811.43,658.29c0,0,2.2-26.46-35.72-24.16c0,0-9.32-20.04-25.4-19.4c0,0,4.98-41.23-34.09-44.55
			c-39.06-3.32-40.09,36.64-40.09,36.64l1.82-14.74c0,0-11.9-20.37-41.39-7.48s-29.62,30.51-29.62,30.51s-21.32-5.87-30.89,28.09
			s8.68,25.66,8.68,25.66l87.57,33.83l86.25-12l41.92,2.6l16.65-8.47l3.03-21.45L1811.43,658.29z"/>
		<path class="st52" d="M1756.17,755.66c1.43,3.71,5.92,5.45,6.3,9.82c-1.84,1.9-4.27,1.66-6.56,1.66
			c-41.22,0.05-82.45,0.05-123.67,0c-2.29,0-4.71,0.24-6.56-1.65c2.09-5.09,6.71-7.93,10.98-11.86
			c-20.83-10.11-37.12-24.58-47.94-44.79c1.27-1.7,3.15-1.69,4.98-1.69c40.25-0.04,80.51-0.01,120.76,0.04
			c0.66,0.12,0.08,0.83,0.15,0.18c0.02-0.18-0.53-0.26-0.88-0.26c-40.1-0.01-80.2,0.01-120.29-0.03c-2.59,0-5.4,0.67-7.52-1.63
			c0.54-2.61-1.82-4.25-2.19-6.55c0.61-1.4,1.95-1.75,3.2-2.08c13.68-3.59,25.47-10.87,36.89-18.87c1.48-1.04,2.81-2.37,4.82-2.28
			c8.91,4.77,18.24,7.5,28.52,7.13c6.28-0.22,12.31-1.31,17.81-4.01c3.6-1.76,5.48-1.14,7.83,1.76c8.71,10.75,21.42,13.82,33.9,8.34
			c7.36-3.23,12.42-8.81,15.22-16.26c0.94-2.5,1.88-3.02,4.25-1.98c7.64,3.36,15.45,3.52,23.18,0.48c3.8-1.49,4.2,1.73,5.42,3.5
			c7.33,10.69,19.98,14.62,31.96,10.04c10.04-3.84,17.69-16.26,15.94-22.8c0.84-1.14,1.08-3.37,3.38-1.84
			c1.81,3.35,0.91,6.92,0.38,10.26c-1.33,8.37-2.93,16.72-5.91,24.72c-0.69,1.66-1.53,3.24-2.88,4.48
			c-2.42,2.62-2.26,6.79-5.38,8.99c-1.69-1.95-3.99-1.35-6.08-1.35c-17.8-0.05-35.6-0.01-53.4-0.02c17.61,0.03,35.22,0,52.83,0.04
			c2.29,0,4.7-0.39,6.69,1.29c-0.93,5.07-4.41,8.79-7.17,12.79c-10.13,14.67-24.07,24.77-39.98,32.37
			c-2.08,1.91-4.68,1.46-7.12,1.47c-16.96,0.05-33.93,0.02-50.89,0.04c-1.79,0-3.6-0.26-5.36,0.57
			C1713.24,755.89,1734.7,756.34,1756.17,755.66z"/>
		<path class="st53" d="M1625.69,765.49c24.8,0.07,49.59,0.18,74.39,0.18c20.8,0,41.6-0.13,62.4-0.2
			c28.44,0.07,56.88,0.14,85.33,0.21c3.66,0.01,7.32-0.06,10.98,0.02c1.54,0.03,3.92-0.49,3.81,1.93c-0.11,2.3-2.46,1.59-4,1.74
			c-0.66,0.06-1.33,0.01-2,0.01c-98.99,0-197.98,0.01-296.97-0.07c-2.24,0-6.38,1.36-6.35-1.63c0.03-3.65,4.24-1.9,6.55-1.92
			C1581.78,765.57,1603.73,765.56,1625.69,765.49z"/>
		<path class="st54" d="M1575.65,660.68c3.41-0.31,6.01,0.6,8.66,3.24c9.72,9.66,21.2,11.95,33.92,6.51
			c3.89-1.66,5.08,1.86,7.36,3.32c0.33,1.64-0.92,2.42-1.92,3.16c-11.38,8.31-23.28,15.64-37.24,18.86
			c-1.72,0.4-3.52,1.17-5.22-0.17c-1.29-3.69-4.7-6.94-2.41-11.39c6.08-2.22,12.48-0.12,19.74-1.52c-7.53-1.38-14.19,0.39-20.6-1.28
			c-5.03-5.02-4.28-11.68-5.08-17.91C1573.25,662.04,1574.14,661.05,1575.65,660.68z"/>
		<path class="st55" d="M1610.07,612.64c4.47,1.39,8.57,2.26,12.04,4.69c2.37,1.65,2.75-0.68,3.67-1.8
			c6.06-7.33,15.18-10.2,23.7-7.27c1.53,0.53,4.29,0.67,3.43,3.19c-0.86,2.52-2.87,0.48-4.21,0.09c-7.74-2.27-15.53,0.06-20.21,6.02
			c-1.57,2-1.72,3.29,0.22,5.35c4.95,5.22,7.75,11.54,8.03,18.83c0.05,1.42,0.55,3.55-1.49,3.61c-2.01,0.06-1.58-2.09-1.75-3.51
			c-1.61-13.08-10.12-22.76-22.08-25.14c-12.17-2.43-23.96,3.01-30.02,13.79c-2,3.55-2.9,7.4-3.48,11.36
			c-0.2,1.39,0.33,3.67-1.71,3.5c-2.29-0.18-1.56-2.52-1.5-4.08c0.58-13.98,12.45-26.65,27.03-28.21c3.71-0.4,5.2-1.91,6.83-4.96
			c9.13-17.09,23.4-26.73,42.82-28.49c0.5-0.05,1.01-0.16,1.49-0.08c1.45,0.24,3.89-0.92,3.86,1.69c-0.02,2.07-2.2,1.49-3.6,1.56
			c-8.3,0.44-16.03,2.74-23.12,7.06C1621.1,595.24,1614.47,602.7,1610.07,612.64z"/>
		<path class="st20" d="M1575.65,660.68c-0.62,0.65-1.23,1.3-1.85,1.95c-2.03,0.98-3.44-0.67-5.05-1.28
			c-7.19-2.74-13.03,0.45-14.45,7.99c-2.49,13.25,6.19,24.25,19.66,24.97c2.62,0.14,5.35-0.49,7.79,1.01
			c16.86-2.63,30.63-11.53,43.84-21.57c1.02,0.65,2.03,1.29,3.05,1.94c-13.41,10.76-27.95,19.34-44.92,23.22
			c-17.92,3.62-32.43-5.94-34.58-22.78c-0.32-2.49-0.1-4.93,0.38-7.4c1.15-5.89,3.71-10.94,9.79-12.61
			C1565.41,654.44,1571.1,655.98,1575.65,660.68z"/>
		<path class="st56" d="M1752.87,606c-0.15,1.23,0.74,3.56-1.71,3.58c-2.07,0.02-1.51-2.16-1.63-3.56
			c-1.64-18.89-16.25-33.06-34.57-33.52c-18.95-0.48-33.99,12.51-36.87,31.61c-0.28,1.86,0.99,5.54-1.85,5.34
			c-3.17-0.22-1.64-3.83-1.43-5.8c2.11-20.06,19.89-35.3,40.23-34.69C1735.09,569.58,1752.04,586.06,1752.87,606z"/>
		<path class="st16" d="M1585.92,705.47c43.27-0.01,86.55-0.02,129.82-0.03c0.83,0,1.67-0.03,2.5,0.04
			c1.05,0.08,2.13,0.42,2.02,1.67c-0.1,1.16-1.14,1.5-2.22,1.51c-1.33,0.01-2.66,0.02-3.99,0.02c-39.94,0-79.89,0-119.83,0.01
			c-1.83,0-3.65,0.11-5.48,0.17C1587.04,708.34,1583.6,709.29,1585.92,705.47z"/>
		<path class="st57" d="M1815.22,660.01c-0.72,0.8-1.15,2-2.55,1.88c-1.23-0.92-1.1-2.28-1.24-3.6
			c-1.31-12.3-9.95-21.07-22.12-22.57c-1.48-0.18-3.99,0.57-3.76-1.93c0.21-2.34,2.56-1.44,4.07-1.34
			c11.14,0.75,20.38,8.41,24.15,19.93c0.59,1.81,0.65,3.74,3.71,3.25c9.41-1.51,16.3,6.11,16.91,15.97
			c0.81,12.97-7.49,23.94-20.36,26.92c-2.09,0.48-4.26,0.67-6.39,0.99c-0.02-1.57,0.61-2.88,1.65-4.02c2.14-1.7,4.83-2.12,7.29-3.1
			c8.28-3.3,12.57-9.6,13.09-18.29C1830.21,665.06,1825.56,660.73,1815.22,660.01z"/>
		<path class="st58" d="M1756.17,755.66c-1.09,1.61-2.73,1.61-4.43,1.61c-20.27-0.02-40.54,0-60.81-0.06c-1.62,0-4.29,0.82-4.15-2
			c0.11-2.33,2.56-1.56,4.07-1.56c21.43-0.05,42.86-0.03,64.29-0.03C1755.48,754.29,1755.83,754.97,1756.17,755.66z"/>
		<path class="st31" d="M1750.28,612.77c15.01,0.59,28.58,14.14,29.07,28.75c0.05,1.42,0.58,3.57-1.33,3.78
			c-2.53,0.28-1.86-2.24-2.08-3.68c-2.36-14.94-10.87-23.45-25.64-25.54c-1.37-0.19-3.6,0.45-3.57-1.63
			C1746.77,611.97,1749.12,612.96,1750.28,612.77z"/>
		<path class="st59" d="M1714.45,633.11c-0.91,2.4-2.59,1.29-4.16,1.03c-9.69-1.62-18.06,1.06-25.07,7.91
			c-3.14,3.07-5.26,6.81-6.63,10.96c-0.39,1.18-0.84,2.47-2.22,2.14c-1.82-0.43-1.26-1.92-0.96-3.26
			c3.19-14.17,22.76-25.36,36.65-20.9C1713.15,631.35,1714.34,631.64,1714.45,633.11z"/>
		<path class="st60" d="M1771.93,650.92c6.37,0.31,11.98,2.38,16.28,7.34c0.84,0.96,2.15,2.07,0.73,3.36
			c-1.43,1.29-2.32-0.17-3.28-1.04c-7.84-7.04-14.15-7.95-23.1-3.34c-1.27,0.65-2.69,2.17-3.74,0.15c-0.99-1.9,1.08-2.51,2.22-3.25
			C1764.32,652,1768.04,651.22,1771.93,650.92z"/>
		<path class="st61" d="M1728.35,658.14c0.01,0.74-0.34,1.26-1.03,1.51c-1.43,0.53-2.1-0.58-2.88-1.4
			c-4.99-5.28-11.06-7.19-18.1-5.43c-2.04,0.51-3.91,1.74-5.83,2.7c-0.94,0.47-1.93,0.89-2.7-0.02c-0.76-0.9-0.29-1.8,0.45-2.62
			c6.26-7.05,26.22-4.14,29.74,4.34C1728.12,657.53,1728.24,657.83,1728.35,658.14z"/>
		<path class="st35" d="M1608.73,639.11c-8.15-0.02-14.77,4.84-17.67,12.88c-0.5,1.39-0.2,4.02-2.62,3.27
			c-2.16-0.67-0.97-2.9-0.59-4.35c2.28-8.73,11.13-15.26,20.55-15.16c1.81,0.02,4.81-0.67,4.77,2.02
			C1613.13,640.51,1610.33,638.87,1608.73,639.11z"/>
		<path class="st26" d="M1703.61,602.64c7.31,0.02,12.59,2.4,16.86,7.04c0.88,0.96,2.04,2.15,0.81,3.45
			c-1.42,1.5-2.26-0.15-3.18-0.97c-8.19-7.27-13.69-8.04-23.47-3.18c-1.22,0.61-2.45,1.62-3.43,0.07c-1.05-1.65,0.63-2.35,1.64-3.02
			C1696.39,603.71,1700.3,602.49,1703.61,602.64z"/>
		<path class="st62" d="M1696.64,696.67c-26.93,0-53.86,0-80.79,0c-1.33,0-2.66-0.02-3.98-0.11c-0.95-0.07-1.54-0.76-1.53-1.63
			c0.01-0.91,0.69-1.5,1.62-1.56c1.16-0.08,2.32-0.09,3.49-0.09c54.19,0,108.39,0,162.58,0c1,0,2-0.02,2.99,0.05
			c1,0.06,2.15,0.19,2.25,1.45c0.12,1.56-1.1,1.83-2.33,1.87c-1.33,0.04-2.66,0.03-3.99,0.03
			C1750.17,696.67,1723.4,696.67,1696.64,696.67z"/>
		<path class="st51" d="M1815.22,660.01c6.78-2.69,13.01,0.71,15.08,8.24c2.75,9.98-2.53,20.74-12.36,25.03
			c-2.74,1.2-5.6,2.09-8.64,2.2c2.68-10.44,5.96-20.75,6.35-31.66C1815.69,662.48,1815.76,661.24,1815.22,660.01z"/>
		<path class="st63" d="M1724.07,717.53c21.44,0,42.88,0,64.31,0c1.16,0,2.33,0,3.49,0.01c1.05,0.01,2.18,0.2,2.3,1.39
			c0.16,1.6-1.15,1.75-2.36,1.8c-0.83,0.03-1.66,0.01-2.49,0.01c-43.71,0-87.41,0-131.12,0c-0.33,0-0.67,0.03-1-0.01
			c-1.53-0.18-4.04,0.65-4.01-1.63c0.03-2.25,2.53-1.54,4.06-1.55C1679.53,717.52,1701.8,717.53,1724.07,717.53z"/>
		<path class="st22" d="M1680.57,741.64c16.98,0,33.95,0,50.93,0c1.16,0,2.33,0.02,3.49,0.02c1.12,0,2.09,0.46,2.2,1.57
			c0.13,1.28-1,1.55-2.04,1.62c-1,0.06-2,0.04-2.99,0.04c-34.45,0-68.9,0.01-103.35,0.01c-0.83,0-1.67,0.04-2.5-0.03
			c-1.11-0.08-2.59,0.15-2.65-1.5c-0.05-1.57,1.26-1.72,2.48-1.73c1.5-0.01,3-0.01,4.49-0.01
			C1647.28,741.64,1663.93,741.64,1680.57,741.64z"/>
		<path class="st64" d="M1737.99,732.88c-13.48,0-26.96,0.03-40.44-0.04c-1.5-0.01-4.03,0.85-4.14-1.43
			c-0.14-2.87,2.64-1.83,4.2-1.83c27.13-0.06,54.25-0.05,81.38-0.01c1.53,0,4.07-0.75,4.17,1.44c0.13,2.81-2.65,1.81-4.23,1.82
			C1765.29,732.91,1751.64,732.88,1737.99,732.88z"/>
		<path class="st25" d="M1802.3,708.45c-20.77,0.07-41.55,0.15-62.32,0.21c-1.27,0-3.13,0.31-3.17-1.49
			c-0.05-2.25,2.05-1.71,3.41-1.71c19.45-0.04,38.9-0.02,58.35-0.05c2.19,0,4.12,0.08,3.7,3.09
			C1802.26,708.5,1802.3,708.45,1802.3,708.45z"/>
		<path class="st65" d="M1615.32,720.74c-4.64,0-9.28,0.01-13.91-0.01c-1.18,0-2.58-0.08-2.63-1.59c-0.06-1.6,1.39-1.6,2.54-1.6
			c9.44-0.02,18.88-0.03,28.32,0c1.27,0,2.97-0.21,2.82,1.78c-0.12,1.53-1.6,1.41-2.74,1.41
			C1624.93,720.75,1620.12,720.74,1615.32,720.74z"/>
		<path class="st66" d="M1581.76,695.32c-5.31,0.83-10.55,0.72-15.64-1.25c-10.18-3.94-15.95-15.35-13.12-25.95
			c2.2-8.26,8.52-11.27,16.42-7.76c1.51,0.67,2.93,1.51,4.4,2.28c0.89,6.17,1.47,12.4,3.84,18.26c0.63,1.23,0.63,2.62,1.01,3.92
			C1579.69,688.31,1580.72,691.82,1581.76,695.32z"/>
		<path class="st67" d="M1578.65,684.81c-2.89-0.65-2.99-2.02-1.01-3.92c6.8,0.06,13.6,0.07,20.4,0.2c1.49,0.03,3.85-0.57,3.65,2
			c-0.16,2.05-2.25,1.5-3.65,1.52C1591.58,684.71,1585.12,684.75,1578.65,684.81z"/>
	</g>
	<g>
		<path class="st1" d="M1753.33,640.09l-2.38,3.64c0,0,3.93,24.46,11.74,25.56c7.81,1.1,23.86,11.82,23.86,11.82l18.01-8.34
			l17.88-0.95l26.25-10.13l5.73-8.92h3.23c0,0,27.42,4.66,51.74,4.68c24.32,0.02,53.69-6.39,53.69-6.39l4.18-0.93l22.3,5.03
			l25.55,15.4l34.87-7.15c0,0,15.18-11.89,20.27-21.62s4.2-30.82,4.2-30.82s19.8-12.2,22.86-37.5c3.06-25.3-18.21-45.55-18.21-45.55
			l-2.89-10.89c0,0-6.13-34.21-28.26-40.85c-22.13-6.64-33.87-12.09-39.83-8.17c-5.96,3.91-1.42-1.2-1.42-1.2l-1.52,0.91
			l-25.15,3.43c0,0-2.89-10.64-8.34-12.34c-5.45-1.7-12.6-4.26-12.6-4.26s-5.97-16.72-13.62-17.36c-7.65-0.64-9.19-5.93-31.83,8.1
			c0,0-15.49,3.65-21.62,8.41c-6.13,4.77-11.26,17-11.26,17l-1.34,17.72v-3.23l-1.4-2.43l-1.55-2.02l-12.62-4.94l-12.47,2.8
			l-5.59,1.57l-10.54,2.2l-8.74-1.64l-10.24,6.4l-4.6-12.36l-3.91-6.28l-13.81-8.98l-14.44-16.28l-19.63-10.15l-8.96-10.39
			l-11.06-2.55l-7.1-0.56c0,0-11.21-8.81-22.65-7.96c-11.44,0.85-13.31,7.08-13.31,7.08s-6.12-2.82-12.09-2.83
			s-12.75,12.04-12.94,14.16s-10.52,2.34-10.52,2.34s-5.98,2.53-5.9,9.62c0.08,7.08,6.72,15.07,6.72,15.07s9.7,2.06,11.57,1.04
			s4.6-2.31,4.6-2.31l13.4,9.7l18.46-2.37l14.1-11.62l-3.87,19.2l-11.97,24.16l-5.96,15.32c0,0-1.7,27.74,16,38.3
			c17.7,10.55,24.51-4.94,24.51-4.94l-19.23,1.58c0,0-15.39,27.04-4.45,42.18"/>
		<path class="st7" d="M1979.28,747.57c0.01-0.66,0.02-1.32,0.03-1.97c0.88-0.65,2.19-0.45,2.92-1.54c-0.94-0.36-2.1,0.57-2.88-0.48
			c0.2-8.04-0.9-16.13,0.81-24.12c2.73,3.87,0.77,8.2,1.28,11.93c-0.33-4.03,2.74-8.72-1.29-12.76c-0.07-0.33-0.07-0.65,0-0.98
			c3.41-2.49,0.67-5.53,0.72-8.33c0.09-3.45-0.68-6.97,0.76-10.31c3.74-0.8,8.51,2.52,8.58,6.95c0.08,5.5,1.36,11.28-1.77,16.48
			c-0.57,0.94-0.52,1.85-0.18,2.85c2.67,8.07,1.93,16.39,1.91,23.44c-0.1-5.35,0.78-11.96-0.71-18.5c-0.3-1.32-0.41-2.72,0.21-3.92
			c1.63-3.18,2.17-6.55,2.41-10.08c0.21-3.09,1.78-5.77,5.35-5.12c3.49,0.64,4.34,3.59,3.27,6.61c-1.4,3.96,0.02,8.76-3.68,12.04
			c-0.57,0.51-0.43,1.62-0.19,2.41c1.79,5.95,0.17,11.39-2.41,16.7c-1.49,3.07,0.41,5.42,1.7,7.89c0.75,2.39,2.41,3.34,4.87,3.35
			c12.58,0.03,25.16-0.04,37.73,0.03c3.72,0.02,3.91-1.62,3.14-4.71c-2.02-8.01-5.11-15.73-6.51-23.91c0.71-3.19,0.01-6.25-0.87-9.3
			c-3.74-12.91-7.48-25.81-11.15-38.74c-0.73-2.58-2.28-4.31-4.33-5.84c-7.73-5.74-15.65-11.22-23.19-17.2
			c-1.63-1.29-4.62-2.21-3.25-5.29c0.96-2.14,6.14-2.61,8.55-0.59c3.72,3.11,7.75,5.68,11.96,8c5.57,1.42,10.8,4.59,16.91,3.31
			c4.67,0.8,9.22,0.26,13.75-1.02c6.27-1.77,6.82-1.15,9.84,4.75c3.28,6.42,4.44,13.03,4.09,20.14c-0.28,5.61-0.33,11.27,0.6,16.86
			c-1.88,17.88,2.9,34.81,7.25,51.82c0.78,3.04,2.6,3.2,5.11,3.18c15.12-0.07,30.24-0.05,45.36-0.01c1.62,0,3.33-0.48,4.86,0.5
			c-1.1,1.92-3.01,1.88-4.82,1.88c-40.15-0.08-80.3,0.29-120.44-0.16c-3.53-1.18-7.2-1-10.84-0.96c-3.64,0.05-5.18-1.2-4.03-5.08
			C1981.74,754.29,1982.44,750.61,1979.28,747.57z"/>
		<path class="st7" d="M1674.77,455.82c0.96-0.62,1.92-1.25,2.89-1.87c2.25,0.05,2.85,2.07,3.94,3.42
			c9.8,12.08,23.99,11.96,33.18-0.6c2.51-3.43,5.26-4.84,9.45-5.23c10.75-1.01,21.55-1.28,32.26-2.67c0.66-0.09,1.33-0.13,1.99-0.11
			c2.7,0.06,5.8-0.01,6.33,3.42c0.59,3.79-2.77,4.02-5.29,4.54c-6.19,1.27-12.46,2.11-18.69,3.2c-6.03,1.05-12.08,1.92-18.06,3.27
			c6.43-0.18,12.6-2.16,18.97-2.75c1.16-0.11,2.29-0.43,3.46-0.42c1.17,0.01,2.56-0.01,3.08,1.16c0.67,1.51-0.61,2.49-1.65,3.26
			c-6.53,4.86-13.96,6.8-22.52,6.7c2.39,1.01,4.95,0.01,6.52,1.98c0.32,1.11,0.55,2.25,0.99,3.31c1.15,2.81,1.02,4.08-2.71,4.85
			c-7.19,1.5-11.28,6.69-12.24,13.9c-0.34,2.52-1.11,3.64-3.5,4.49c-7.77,2.77-10.68,7.72-9.85,16.02
			c-7.05,0.5-13.41,3.6-20.12,5.39c-2.44,0.65-3.64,2.75-4.73,4.85c-1.09,2.09-2.4,4-4.61,5.06c-1.22,0.59-2.6,1.13-3.75,0.16
			c-1.44-1.22-0.2-2.47,0.46-3.49c2.88-4.49,5.06-9.31,6.81-14.36c-2.44,4.15-4.01,8.79-6.95,12.65c-1.84,2.41-3.13,5.97-7.31,4.15
			c-3.12-1.36-4.95-6.04-4.09-9.85c0.75-3.31,3.09-5.84,4.3-8.9c-0.35-0.29-0.54-0.15-0.84,0.16c-1.39,1.44-1.87,4.6-4.64,3.55
			c-2.49-0.95-2.41-3.72-2.49-6.06c-0.1-3.07,0.99-5.85,2.08-8.65C1663.21,485.5,1669.83,470.99,1674.77,455.82z"/>
		<path class="st8" d="M1832.06,737.16c-3.49-1.41-2.23-3.98-1.39-6.27c4.62-12.48,9.37-24.9,14.17-37.3
			c4.2-10.85,3.98-22.54,6.8-34.53c-8.53,8.04-17.66,13.24-28.83,14.09c-2.28,0.17-2.91,1.79-2.02,3.54
			c5.36,10.58,1.58,20.83-1.04,31.09c-2.83,11.12-5.21,22.35-8.15,33.44c-0.68,2.57-0.91,5.88-4.91,5.82
			c-3.06-2.04-1.47-4.8-0.9-7.2c3.84-15.9,7.3-31.89,11.33-45.75c-4.14,11.24-8.23,24.55-14.68,36.94
			c-1.02,0.49-2.02,0.49-3.01-0.07c-2.13-2.78-0.52-5.42,0.46-7.97c4.74-12.24,9.58-24.43,14.09-36.76c2.6-7.1,1.59-9.81-4.52-14.12
			c-0.84-0.59-1.5-1.32-1.26-2.48c1.13-1.92,2.89-1.15,4.48-1.04c25.67,1.79,45.45-15.11,47.74-40.8c0.13-1.45-0.22-3.65,1.68-3.59
			c2.38,0.07,1.69,2.46,1.63,3.98c-0.29,7.98-2.99,15.24-7.23,22.59c34.92,6.61,69.26,7.52,103.43-2.11
			c0.2-1.94-1.52-2.08-2.34-2.95c-0.9-0.95-2.32-1.85-1.07-3.29c1.31-1.5,2.38-0.05,3.36,0.71c6.18,4.75,13.02,7.88,20.83,8.84
			c13.76,1.68,25.57-2.37,35.55-11.91c0.36-0.34,0.66-0.76,1.06-1.05c1.07-0.79,1.89-3.06,3.53-1.5c1.8,1.7-0.25,2.96-1.29,4.08
			c-3.54,3.8-7.68,6.84-12.32,9.2c-1.32,0.67-2.64,1.33-4.37,2.2c2.5,2.4,4.9,4.3,7.6,5.86c1.4,0.81,3.08,1.55,2.53,3.73
			c-4.82,0.74-7.74-2.74-10.52-5.48c-3.4-3.36-6.49-2.89-10.56-1.07c9.45,7.03,18.57,13.89,27.78,20.62c2.51,1.83,4.15,3.88,5,7
			c3.79,13.89,7.85,27.71,11.79,41.55c0.53,1.85,1.67,3.77-0.33,5.49c-3.49,0.07-3.72-2.84-4.38-5.08
			c-3.57-12.11-7.16-24.21-10.37-36.41c-1.36-5.15-3.95-9.03-8.52-11.64c-6.59-4.78-13.15-9.63-19.56-14.66
			c-4.4-3.45-8.85-6.37-14.7-6.53c-1.96-0.05-3.94-0.58-5.92-1.38c0.28,1.06,0.88,1.83,1.5,2.4c11.68,10.82,9.52,24.89,9.14,38.55
			c-0.03,1.03-0.45,1.93-1.11,2.72c-0.31,3.84-0.73,7.68-0.17,11.53c-1.17,1.63,0.97,4.52-2.08,5.42c-2.43-1.13-1.75-3.34-1.7-5.23
			c0.25-11.29,0.48-22.57,0.92-33.85c0.11-2.85-0.75-5-2.33-7.3c-3.94-5.71-8.7-10.89-11.68-17.21c-0.65-1.38-1.18-1.26-2.14-0.95
			c-33.14,10.4-66.79,9.38-100.61,4.44c-5.8-0.13-5.05,4.43-5.69,7.98c-1.23,20.22-8.33,38.8-15.82,57.29"/>
		<path class="st7" d="M1808.23,669.65c0.23,0.83,0.65,1.52,1.5,1.83c6.1,2.22,8.4,6.88,6.1,13.09c-5,13.47-10.17,26.88-15.25,40.32
			c-0.68,1.81-1.88,3.58-0.94,5.68c1.2,3.69-1.12,6.61-2.23,9.77c-0.59,1.69-1.4,3.32-2.05,5c-0.97,1.91-1.62,3.93-2.13,6
			c-0.5,1.33-1.19,2.59-1.6,3.96c-1.72,2.66-1.26,6.54-4.62,8.3c-6.95,0.51-13.89,1-20.81-0.29c-1.92-1.45-0.25-2.38,0.5-3.44
			c1.56-1.2,1.96-3.01,2.47-4.75c5.45-18.76,10.55-37.63,15.9-56.42c0.9-3.16,0.92-6.14-0.24-9.21c-1.17-3.1-1.97-6.32-2.76-9.54
			c-0.56-2.29-0.39-4.33,2.33-5.18c5.78-0.18,11-1.79,15.25-5.91c1.24-0.79,2.53-0.89,3.86-0.26
			C1805.09,668.95,1806.66,669.3,1808.23,669.65z"/>
		<path class="st9" d="M2008.31,466.77c10.09-1.28,20.12-0.13,29.64,3.5c19.28,7.36,33.72,19.69,39.47,40.37
			c0.27,0.96,0.72,1.99,0.57,2.91c-1.29,8.13,3.09,13.36,7.97,19.34c14.34,17.57,17.21,37.62,8.02,58.41
			c-9.26,20.93-26.08,32.07-48.93,33.98c-0.83,0.07-1.66,0.08-2.49,0.04c-1.06-0.05-2.08-0.4-2.1-1.62
			c-0.02-1.18,0.92-1.64,1.99-1.74c2.97-0.29,5.99-0.32,8.92-0.87c27.13-5.12,45.44-28.34,44.02-55.72
			c-1.37-26.54-22.74-48.04-49.84-50.25c-1.79-0.15-5.1,0.92-4.93-1.67c0.19-2.88,3.52-1.5,5.45-1.47
			c5.19,0.07,10.19,1.38,15.08,3.06c4.69,1.61,9.01,4.03,13.72,7.02c0.78-8.52-1.49-15.61-5.35-22.28
			c-11.68-20.17-37.72-32.69-61.24-29.69c-2.42,0.31-3.39,1.57-4.33,3.43c-3.67,7.25-7.4,14.48-11.16,21.68
			c-0.63,1.21-0.92,3.34-2.95,2.67c-2.21-0.73-0.47-2.52-0.57-3.83c5.29-10.09,8.21-15.97,13.64-25.99"/>
		<path class="st13" d="M1772.51,729.46c3.08-3.59,3.1-8.25,4.3-12.48c2.38-8.39,5.05-16.7,6.5-25.33
			c-0.31-1.11-0.66-2.21-0.93-3.33c-1.68-7.04-3.74-13.09-12.6-14.7c-6.32-1.15-10.34-6.87-14.21-11.92
			c-4.02-3.57-4.99-8.38-5.26-13.38c-0.11-2.08,0.04-4.44,3.11-4.59c1.52,0.98,1.19,2.56,1.38,4.02
			c1.85,14.2,10.94,23.32,25.17,25.35c1.59,0.23,3.41-0.09,4.44,1.66c-1.63,1.68-2.11,3.46-0.99,5.72
			c4.53,9.17,3.68,18.16,0.53,27.8c-5.16,15.77-9.08,31.95-13.6,47.93c-0.5,1.77-0.25,4.2-2.95,4.65c-2.9-1.32-1.87-3.25-1.24-5.07"
			/>
		<path class="st13" d="M1769.52,746.88c0.9-4.52,2.4-8.92,3.81-13.96"/>
		<path class="st14" d="M1730.65,473.11c-2.32-0.08-4.65-0.1-6.97-0.27c-1.45-0.11-3.48-0.1-3.32-2.1c0.17-2.17,2.17-1.44,3.58-1.36
			c9.95,0.58,16.76-1.62,24.95-8.64c-4.73,0.72-8.3,1.25-11.86,1.81c-3.61,0.57-7.2,1.38-10.83,1.71c-2.49,0.22-6.52,2.83-7.14-0.7
			c-0.47-2.64,4.2-2.03,6.62-2.46c11.77-2.11,23.57-4.04,35.36-6.02c1.43-0.24,3.26-0.01,3.05-2.29c-0.21-2.28-1.57-2.91-3.8-2.73
			c-13.25,1.1-26.5,2.11-39.76,3.1c-1.47,0.11-2.29,0.67-3.14,1.93c-11.82,17.51-28.82,16.99-39.74-1.15
			c-0.33-2.29-0.69-4.57-0.99-6.86c-0.14-1.08,0.21-2.12,1.37-2.29c1.16-0.17,1.72,0.64,1.84,1.81c0.12,1.15,0.31,2.3,0.56,3.43
			c1.92,8.72,9.46,14.45,18.52,14.1c8.31-0.32,15.28-6.64,16.72-15.06c0.26-1.51-0.46-3.93,1.71-4.14c2.55-0.25,1.66,2.16,1.96,3.66
			c0.49,2.39,2.43,1.16,3.64,1.08c12.42-0.88,24.83-1.76,37.22-2.94c3.8-0.36,6.14,0.69,7.05,4.41c0.94,3.83-0.27,6.37-4.25,7.6
			c-6.02,1.86-11.71,4.35-16.7,8.43C1741.84,470.85,1736.12,471.77,1730.65,473.11z"/>
		<path class="st17" d="M1674.77,455.82c2.27,1.93,0.25,3.76-0.38,5.37c-5.43,13.93-11.03,27.79-16.57,41.67
			c-1.58,3.96-2.16,7.87,0.49,11.83c2.02-1.27,2.55-3.3,3.72-4.83c0.78-1.02,1.47-2.65,3.05-1.51c1.47,1.06,0.43,2.36-0.28,3.49
			c-1.14,1.83-2.23,3.7-3.42,5.5c-1.15,1.75-1.62,3.7-1.4,5.7c0.32,2.93,1.5,5.87,4.39,6.75c2.84,0.86,3.6-2.38,4.83-4.12
			c2.9-4.09,4.79-8.72,6.64-13.36c0.47-1.17,0.97-2.87,2.73-2.07c1.69,0.77,0.82,2.2,0.34,3.44c-2.26,5.92-4.94,11.6-9.02,17.11
			c4.42-0.14,6.44-2.79,7.75-6.01c1.24-3.06,3.3-4.64,6.47-5.46c5.14-1.33,10.19-3.03,15.25-4.66c1.61-0.52,3.16-1.38,3.96,1
			c-0.28,1.98-2.02,1.9-3.37,2.33c-3.94,1.28-7.85,2.71-11.86,3.71c-3.89,0.96-6.64,2.63-8.52,6.55c-2.63,5.49-8.27,7.52-13.84,5.98
			c-5.71-1.58-9.09-6.04-9.19-12.08c-0.02-1.45,0.55-2.94-0.44-4.34c-4.27-5.98-3.28-12-0.63-18.37
			c5.34-12.85,10.32-25.85,15.44-38.78C1671.73,458.68,1672.34,456.54,1674.77,455.82z"/>
		<path class="st18" d="M1993.98,761.95c12.93,0.12,25.85,0.32,38.78,0.34c27.54,0.05,55.07,0.02,82.61,0.01
			c1.82,0,3.64-0.11,5.46-0.17c2.04,1.4,1.93,2.6-0.45,3.31c-0.92,0.27-1.98,0.08-2.98,0.08c-57.69,0-115.38,0.02-173.07-0.06
			c-1.76,0-6.07,1.63-3.59-3.36C1958.49,761.96,1976.23,762.2,1993.98,761.95z"/>
		<path class="st18" d="M1783.32,761.95c12.93,0.12,25.85,0.32,38.78,0.34c27.54,0.05,55.07,0.02,82.61,0.01
			c1.82,0,3.64-0.11,5.46-0.17c2.04,1.4,1.93,2.6-0.45,3.31c-0.92,0.27-1.98,0.08-2.98,0.08c-57.69,0-115.38,0.02-173.07-0.06
			c-1.76,0-6.07,1.63-3.59-3.36C1747.83,761.96,1765.58,762.2,1783.32,761.95z"/>
		<path class="st19" d="M1924.33,435.02c17.48-5.12,29.7,0.34,36.57,16.66c0.92,2.18,2.35,2.41,4.02,2.95
			c8.91,2.86,14.64,8.82,16.94,17.86c0.62,2.44,1.62,5.19-0.63,7.51c-2.44,0.23-1.91-1.59-2.07-2.97
			c-1.33-11.37-8.15-18.38-19.5-19.92c-2.19-0.3-4.5-0.06-2.36-3.34c0.99-1.52-0.23-2.85-0.85-4.14c-7.33-15.21-27.15-17.84-39-4.84
			c4.29,1.44,8.49,2.79,11.94,5.66c6.21,5.16,9.8,11.63,10.11,19.77c0.04,1.09,0.36,2.59-1.27,2.8c-1.98,0.25-1.92-1.35-1.98-2.68
			c-0.78-17.13-20.39-28.5-36.02-18.76c-1.13,0.71-2.5,1.77-3.47,0.29c-1.22-1.86,0.71-2.56,1.91-3.32c0.97-0.62,2.03-1.46,3.1-1.54
			C1911.07,446.31,1917.24,439.82,1924.33,435.02z"/>
		<path class="st21" d="M1766.64,754.74c0.72,2.12-1.72,4.41,0.76,6.13c-0.56,0.37-1.11,0.74-1.67,1.11"/>
		<path class="st22" d="M2058.24,706.63c-1.92-0.87-1.77-2.58-1.76-4.26c0.02-3.82-0.39-7.69,0.07-11.45
			c1.07-8.71-2.1-16.25-5.65-23.8c-0.97-2.06-1.81-2.67-4.09-1.71c-4.16,1.74-8.6,2.5-13.13,2.59c-1.66,0.04-3.47,0.31-3.74-2.12
			c1.18-1.68,3.02-0.91,4.57-1.25c4.99-1.09,10.54-0.32,14.36-5.17c1.07-1.36,3.76-0.27,5.71-1.69c9.94-7.22,16.09-16.6,17.73-28.84
			c0.18-1.32,0.31-2.64,0.47-3.96c0.15-1.28,0-3.1,1.86-2.85c1.64,0.22,1.41,1.94,1.43,3.28c0.04,3.36-0.63,6.62-1.5,9.82
			c-2.96,10.88-9.18,19.5-18.66,25.55c-2.79,1.78-3.25,3.35-1.59,5.88c7.58,11.55,5.42,24.56,5.63,37.22
			C2059.99,705.25,2059.33,706.03,2058.24,706.63z"/>
		<path class="st22" d="M1819.15,482.5c7.29-3.04,14.83-3.27,22.52-2.11c1.76,0.27,3.45,0.85,5.22-0.5
			c9.7-7.43,19.6-6.78,29.59-0.38c1.15-2.64,2.27-5.2,3.39-7.76c3.46-2.92,6.93-5.79,11.99-4.44c2.35,0.62,4.22,1.92,5.61,3.88
			c0.48,0.68,0.66,1.56,0.03,2.29c-0.67,0.77-1.61,0.73-2.2,0.08c-2.98-3.29-6.33-4.18-10.16-1.63c-3.83,2.56-4.92,6.48-5.02,10.81
			c-0.03,1.39,1.2,3.18-0.68,4.01c-2.29,1.01-2.6-1.46-3.55-2.59c-6.22-7.34-17.91-8.49-26.13-2.08c-2.51,1.96-4.61,2.47-7.61,1.84
			c-5.73-1.2-11.57-1.34-17.3,0.16c-4.97,1.31-9.03,4.06-12.13,8.22c-0.78,1.05-1.46,3.23-3.33,1.7c-1.64-1.34-0.1-2.71,0.71-3.87
			C1812.43,486.8,1815.58,484.4,1819.15,482.5z"/>
		<path class="st26" d="M1818.49,487.04c4.29,3.79,7.12,8.43,8.06,14.13c-0.37,1.3,0.19,3.41-2.08,3.22
			c-1.79-0.15-1.39-1.98-1.64-3.2c-1.7-8.45-5.69-12.37-14.46-14.07c-1.28-0.25-3.02-0.02-2.77-1.93c0.24-1.77,1.99-1.59,3.22-1.32
			c4.68,1.02,3.89-1.49,3.03-4.35c-3.06-10.18-11.71-17.46-22.26-18.66c-1.45-0.17-3.03,0.16-4.3-0.9
			c-0.23-3.78,2.55-2.82,4.44-2.59c11.43,1.42,19.32,7.79,24.51,17.83c0.68,3.01,1.49,6.01,1.99,9.05
			C1816.49,485.77,1817.05,486.67,1818.49,487.04z"/>
		<path class="st27" d="M1991.5,627.31c-1.32-0.45-4.08,0.97-4.08-1.81c0-2.35,2.51-1.52,4.01-1.59
			c21.73-1.06,39.02-17.6,40.8-39.03c0.12-1.51-0.58-3.94,1.84-3.85c2.47,0.09,1.59,2.44,1.49,3.95
			C2034.05,607.95,2014.62,626.68,1991.5,627.31z"/>
		<path class="st28" d="M1811.94,637.11c-12.97-0.5-25.49-6.93-34.55-19.77c-0.84-1.19-2.85-2.69-0.7-4.14
			c1.83-1.24,2.47,0.91,3.31,2.01c14.26,18.71,34.58,23.61,55.66,13.37c1.31-0.64,2.91-2.1,3.9-0.38c1.22,2.12-1.18,2.72-2.49,3.45
			C1830.1,635.51,1822.57,637.26,1811.94,637.11z"/>
		<path class="st29" d="M1745.28,558.37c0.11-18.39,11.22-35.27,27.69-41.92c1.35-0.55,3.26-2.26,4.33-0.15
			c1.19,2.35-1.42,2.48-2.75,3.12c-20.9,9.99-29.79,29.2-23.99,51.9c0.34,1.31,1.71,3.07-0.65,3.64c-2.11,0.52-2.12-1.56-2.58-2.89
			C1745.79,567.63,1745.23,563.05,1745.28,558.37z"/>
		<path class="st30" d="M1753.54,641.39c-5.35-3.97-9.55-8.94-12.8-14.73c0.11-1.58-2.52-3.65,0.31-4.64
			c2.23-0.78,2.35,1.83,3.03,3.17c7.38,14.62,23.27,21.74,38.98,17.4c0.16-0.04,0.32-0.08,0.48-0.13c1.64-0.45,3.96-2.09,4.58,0.49
			c0.55,2.3-2.31,2.32-3.92,2.79c-7.91,2.31-15.77,2.06-23.45-0.97C1758.27,643.8,1755.94,642.53,1753.54,641.39z"/>
		<path class="st31" d="M1740.25,604.91c-13.86-0.46-26.55-12.85-27.2-26.48c-0.07-1.42-0.51-3.36,1.7-3.4
			c1.8-0.03,1.56,1.74,1.75,3.02c2.06,13.71,10.74,22.15,24.16,23.62c1.44,0.16,3.99-0.75,3.65,1.89
			C1744.02,605.86,1741.63,604.68,1740.25,604.91z"/>
		<path class="st32" d="M1735.64,418.89c10.07-0.8,18.77,1.77,24.99,10.27c2.79,3.81,4.76,7.96,4.74,12.83
			c-2.92,0.37-3.33-1.56-4.01-3.82c-3.56-11.94-15.74-18.5-27.72-15.32c-1.21,0.32-3.06,2.62-4.08-0.14
			c-1.1-2.97,1.91-2.34,3.22-3.08C1733.61,419.15,1734.68,419.12,1735.64,418.89z"/>
		<path class="st33" d="M1668.71,432.41c-0.56,0.83-1.46,0.55-2.24,0.7c-5.89,1.16-9.73,5.31-9.95,10.75
			c-0.24,5.74,3.41,10.38,9.27,11.92c1.4,0.37,4.05-0.49,3.6,2.11c-0.38,2.24-2.74,1.33-4.22,1.12
			c-7.48-1.05-12.96-8.66-11.92-16.36c1.1-8.15,7.43-13.31,15.33-12.5C1669.2,430.88,1669.1,431.64,1668.71,432.41z"/>
		<path class="st34" d="M1723.5,550.74c-8.67-0.22-17.77-9.46-17.71-17.94c0.01-1.21,0.03-2.59,1.4-2.83
			c1.85-0.33,2.04,1.24,2.2,2.59c1.03,8.56,5.9,13.36,14.37,14.62c1.26,0.19,2.99,0.03,2.83,1.96
			C1726.44,550.95,1724.84,550.76,1723.5,550.74z"/>
		<path class="st35" d="M1803.52,668.6c-1.22,1.16-2.55,0.57-3.87,0.26c-4.95-2.62-10.07-4.98-14-9.18
			c-1.94-2.07-3.51-4.35-4.6-6.98c-0.39-0.94-0.17-1.58,0.5-2.18c0.76-0.68,1.71-0.6,2.1,0.22c3.89,8.23,11.34,12.09,19.04,15.66
			C1803.56,666.81,1803.44,667.79,1803.52,668.6z"/>
		<path class="st7" d="M1993.98,761.95c-17.75,0.5-35.5,0.51-53.25,0.16c10.85-1.16,21.73-0.43,32.59-0.39
			c4.45,0.02,6.38-1.05,5.84-5.74c-0.32-2.76,0.06-5.6,0.12-8.41c4.3,0.09,4.1,3.31,3.82,6.06c-0.27,2.56-1.27,5.05-1.98,7.67
			C1985.42,761.52,1989.7,761.74,1993.98,761.95z"/>
		<path class="st36" d="M1710.38,409.56c1.75-0.11,3.24-0.2,3.33,1.67c0.08,1.56-1.22,1.7-2.44,1.81
			c-7.57,0.66-12.54,4.67-15.03,11.78c-0.58,1.66-1.68,2.79-3.25,2.16c-1.3-0.52-0.43-2.07-0.15-3.11
			C1694.95,416.18,1703.04,409.74,1710.38,409.56z"/>
		<path class="st37" d="M1668.71,432.41c-0.05-0.75-0.09-1.5-0.14-2.25c2.62-0.23,1.62-2.49,2.02-3.84
			c2.03-6.92,8.47-12.33,15.05-12.42c1.28-0.02,2.92-0.39,3.01,1.55c0.06,1.48-1.25,1.58-2.47,1.76
			c-7.25,1.05-11.85,5.11-12.53,12.48C1673.26,433.79,1670.24,431.37,1668.71,432.41z"/>
		<path class="st7" d="M1980.15,718.62c2.85-0.44,3.76,1.76,3.62,3.61c-0.37,4.85-1.3,9.66-2.01,14.49
			c-0.53-0.01-1.06-0.02-1.6-0.03c0-5.74,0-11.49,0-17.23C1980.09,719.18,1980.09,718.9,1980.15,718.62z"/>
		<path class="st7" d="M1979.35,743.58c0.16-0.02,0.33-0.07,0.49-0.05c1.65,0.13,2.68-3.02,4.68-0.91c0.49,0.52,0.51,1.29-0.11,1.71
			c-1.52,1.04-2.88,2.97-5.1,1.27C1979.32,744.93,1979.33,744.25,1979.35,743.58z"/>
		<path class="st7" d="M1980.04,715.62c2.15-1.25,1.11-3.72,2.08-5.42c0.04,0.49-0.13,1.2,0.14,1.46c3.74,3.59,0.75,4.76-2.11,6
			C1980.11,716.97,1980.08,716.29,1980.04,715.62z"/>
		<path class="st7" d="M2013.17,676.31c4.09,6.21,0.85,12.07-1.08,17.86c-6.67,20.02-13.29,40.04-16.25,61.04
			c-0.07,0.47-0.4,0.91-0.6,1.36c-3.7-2.88-3.33-5.84-1.42-9.96c1.76-3.79,3.64-8,1.85-12.82c-0.74-1.99-2.8-5.97,2.29-6.74
			c0.61-0.09,0.94-1.02,0.56-1.67c-1.79-3.11,0.53-5.72,1.19-8.43c0.67-2.75-0.17-4.53-2.48-5c-2.61-0.53-4.03,1.56-3.93,3.95
			c0.17,4.08-0.5,7.77-2.66,11.33c-0.75,1.24-0.78,3.42-0.25,4.84c2.18,5.84,0.35,11.77,0.79,17.63c0.14,1.9-0.22,3.71-2.84,3.66
			c1.29-7.99,1.42-15.91,0.05-23.86c-0.3-1.71-0.82-3.16-2.09-4.36c-0.75-0.71-1.45-2.28-0.71-2.58c6.89-2.8,1.74-8.73,3.36-12.99
			c2.01-5.31-2.33-8.51-6.66-10.91c0.08-7.64,0.04-15.28,0.3-22.91c0.1-2.98-0.55-5.41-2.39-7.8c-3.61-4.72-6.94-9.64-10.87-15.17
			c5.56,1.56,10.32,2.97,15.31,2.94c1.28-0.01,2.18,0.73,3.1,1.42C1996.23,663.52,2004.69,669.92,2013.17,676.31z"/>
		<path class="st46" d="M1691.64,474.05c2.85,0.31,4.71,1.76,4.68,4.74c-0.03,2.66-1.6,4.4-4.32,4.54
			c-2.94,0.15-4.87-1.49-4.98-4.38C1686.91,476.07,1688.71,474.42,1691.64,474.05z"/>
		<path class="st7" d="M1822.46,760.56c-0.45,1.65-1.77,1.7-3.12,1.68c-6.21-0.1-12.41-0.2-18.62-0.29
			c1.19-5.38,1.91-10.94,5.76-15.32c2.28,0.33,2.72-1.17,3.14-2.94c4.24-17.6,8.58-35.18,12.76-52.8c1.19-5.01-1.79-9.35-3.1-13.9
			c-0.98-3.42-1.2-4.9,3.17-5.17c12.24-0.76,21.97-6.85,31.02-16.66c-3.16,15.95-3.42,31.05-9.69,45.09
			c-4.53,10.15-8.06,20.74-11.96,31.16c-0.6,1.59-1.94,3.27-0.32,5.06C1828.76,744.61,1825.95,752.71,1822.46,760.56z"/>
	</g>
</g>
</svg>
