<?xml version="1.0" encoding="utf-8"?>
<!-- Generator: Adobe Illustrator 24.3.0, SVG Export Plug-In . SVG Version: 6.00 Build 0)  -->
<svg version="1.1" id="Layer_1" xmlns="http://www.w3.org/2000/svg" xmlns:xlink="http://www.w3.org/1999/xlink" x="0px" y="0px"
	 viewBox="0 0 676 659" style="enable-background:new 0 0 676 659;" xml:space="preserve">
<style type="text/css">
	.st0{fill:#D3C6BE;}
	.st1{fill:#DED9D5;}
	.st2{fill:#BDE454;}
	.st3{fill:#F0E6DD;}
	.st4{fill:#50A3C9;}
	.st5{fill:#C8BBB1;}
	.st6{fill:#F8BA6E;}
	.st7{fill:#A0591E;}
	.st8{fill:#B87A4A;}
	.st9{fill:#666640;}
	.st10{fill:#7E370F;}
	.st11{fill:#A7C832;}
	.st12{fill:#7F380F;}
	.st13{fill:#F6B56A;}
	.st14{fill:#53423C;}
	.st15{fill:#65663E;}
	.st16{fill:#574741;}
	.st17{fill:#EFA260;}
	.st18{fill:#53A5C7;}
	.st19{fill:#F3BB82;}
	.st20{fill:#52413B;}
	.st21{fill:#6A6A44;}
	.st22{fill:#A8C934;}
	.st23{fill:#55443E;}
	.st24{fill:#A7C932;}
	.st25{fill:#A15A1E;}
	.st26{fill:#A1591E;}
	.st27{fill:#603410;}
	.st28{fill:#5E3210;}
	.st29{fill:#FDFCFB;}
	.st30{fill:#E6EAE8;}
</style>
<path class="st0" d="M483.08,504.48c0.05-2.7,1.15-4.76,3.66-5.94c2.5-1.89,1.17-4.99,2.29-7.31c-0.79-1.98-1.39-3.3,1.87-3.92
	c8.11-1.54,11.17-5.77,10.41-15.92c-0.12-1.58-0.1-2.34,1.36-3.15c6.01-3.35,8.21-9.16,9.04-15.46c0.67-5.05,0.74-10.23-1.47-15.07
	c-0.67-1.48-0.32-2,1.2-2.59c2.71-1.05,4.85-2.73,4.81-6.14c-0.04-3.81,0.41-7.83-4.05-9.63c-2.31-0.93-1.21-2.29-0.78-3.53
	c1.73-4.94,1.94-9.89,0.74-15.01c-1.85-7.9-7.51-11.3-14.75-12.74c-2.47-0.49-3.57-0.83-2.74-3.84c1.2-4.39-1.41-8.82-6.41-11.51
	c-2.94-1.58-4.97-3.14-5.64-6.96c-1.2-6.85-6.63-10.29-12.77-12.31c-9.15-3.01-18.35-3.54-27.35,0.77
	c-0.93,0.44-1.76,0.83-2.54-0.28c-2.45-3.48-5.72-5.56-10.03-5.92c-0.7-0.06-0.9-0.74-1.1-1.32c-3.85,0.42-6.83-1.37-10.01-3.34
	c-8.81-5.47-18.42-8.19-28.91-6.97c-2.01,0.38-2.9,2.08-4.01,3.49c-4.28,5.44-8.58,10.87-13.54,15.73
	c-1.54,1.51-3.04,2.31-5.15,1.73c-5.64,4.6-11.73,8.74-15.22,15.5c-0.98,1.89-2.27,3.73-4.9,4.71c-0.14-2.55,1.34-4.14,2.13-5.94
	c0.34-0.78,0.86-1.48,1.14-2.29c0.24-0.69,0.61-1.51-0.02-2.06c-0.82-0.71-1.64-0.15-2.26,0.46c-2.28,2.23-4.74,4.23-7.34,6.06
	c-1.13,0.8-2.61,2.53-3.77,1.26c-1.45-1.6,0.75-2.69,1.71-3.77c1.62-1.83,3.5-3.41,5.09-5.26c0.54-0.63,1.34-1.4,0.75-2.24
	c-0.73-1.04-1.79-0.43-2.63,0c-2.18,1.11-4.02,2.8-6.22,3.86c-1.67,0.81-4.11,2.91-5.16,1.33c-1.34-2.01,1.84-2.79,3.14-3.98
	c1.8-1.64,3.95-2.87,5.96-4.26c0.63-0.43,1.16-1.08,0.82-1.85c-0.46-1.04-1.42-0.86-2.2-0.46c-2.52,1.29-5.19,2.15-7.88,2.95
	c-0.92,0.27-2.16,0.71-2.65-0.36c-0.66-1.44,0.82-1.92,1.74-2.25c5.07-1.8,9.94-4.08,14.89-6.15c0.68-0.28,1.39-0.49,2.02-0.86
	c0.64-0.38,1.35-0.83,1.2-1.66c-0.2-1.11-1.23-1.12-2.05-1.02c-2.31,0.26-4.6,0.74-6.91,0.1c-0.91-0.25-2.26-0.44-2.14-1.6
	c0.14-1.3,1.48-0.86,2.41-0.91c2.01-0.12,4.35,1.38,5.9-1.15c-0.88-1.41-2.35-1.75-3.8-1.82c-5.1-0.24-10.25-0.71-15.1,1.47
	c-1.81,0.81-3.48,0.72-5.24-0.17c-5.53-2.79-11.52-3.79-17.6-4.36c-1.21-0.11-2.59,0.1-3.44-0.89c-4.66-5.41-11.05-6.15-17.55-6.64
	c-3.07,0.59-4.44-0.48-5.07-3.77c-1.46-7.6-6.79-11.97-13.7-14.69c-2.44,0.71-3.91-1.57-5.97-1.93c-2.97-0.53-2.8-2.73-3.03-4.89
	c-0.08-0.75-0.8-1.43-1.23-2.15c-1.03-1.81-2.82-1.69-4.5-1.67c-3.89,0.06-7.74-0.14-11.58-0.8c-1.2-0.21-2.4-0.39-3.51-0.89
	c-3.35-1.5-3.54-3.93-0.68-6.38c1.73-1.48,4.63-1.86,4.81-4.88c-2.6-2.73-5.79-4.48-9.44-5.22c-4.11-0.83-7.05-3.57-10.34-5.79
	c-2.45-1.66-5.18-0.88-7.81-0.8c-0.83,0.02-1.75,0.32-1.92,1.36c-0.17,1.02,0.58,1.58,1.29,2.02c2.93,1.78,5.66,3.79,8.15,6.17
	c4.29,4.11,6.21,9.17,6.66,15c1.41,18.31-7.53,30.62-22.65,39.38c-5.2,3.01-10.7,5.34-16.64,6.44c-2.18,0.41-3.45,1.54-3.71,3.75
	c-0.03,2.08,0.1,4.17-0.12,6.22c-0.58,5.48,1.89,9.45,6.15,12.44c1.38,0.97,2.02,1.65,1.48,3.48c-0.77,2.59,0.42,4.77,2.43,6.46
	c1.35,1.14,1.8,2.18,0.93,4.05c-4.93,10.65-5.79,21.08,2.36,30.76c1.01,1.2,0.44,2.18,0,3.35c-1.27,3.36-1.74,6.7,1.57,9.26
	c1.73,1.34,0.74,2.36-0.02,3.69c-4.97,8.7-3.91,18.42,2.61,24.48c2.01,1.86,4.36,3.18,7.07,3.55c1.69,0.23,1.9,1,1.74,2.47
	c-0.86,7.74,2.25,12.37,9.61,14.42c1.52,0.42,3.05,0.99,4.61,1.08c2.66,0.16,3.68,1.13,3.69,3.99c0.01,2.96,3.77,4.97,8.58,5.21
	c0.88,0.79,1.97,1.05,3.07,0.91c3.65-0.45,5.94,1.35,7.79,4.25c1.92,2.99,4.57,5.36,7.12,7.81c5.5,5.27,12.16,5.52,19.14,4.38
	c0.24-0.02,0.51-0.01,0.72-0.11c4.37-2.17,7.09-1.46,9.71,3.32c2.48,4.52,7.98,5.17,12.77,4.32c5.09-0.9,9.78-1.18,14.46,1.44
	c1.94,1.09,4.28,1.02,6.38,0c2.2-1.07,4.17-0.59,6.29,0.35c4.59,2.04,9.32,3.61,14.44,3.6c5.25-0.06,9.94-1.96,14.35-4.59
	c1.7-1.01,3.22-1.4,5.09-0.47c3.1,1.54,6.47-0.26,9.65,0.61c3.24,2.18,6.51,4.32,10.23,5.61c6.24,2.16,12.29,0.48,18.34-0.99
	c0.35-0.09,0.71-0.2,1.03-0.36c5.09-2.61,10.28-3.33,15.73-1.05c1.47,0.61,3.27,0.72,4.55-0.39c1.27-1.1,2.23,0.01,3.32,0.02
	c1.09-1.49,2.35-1.81,4.1-0.98c10.84,5.09,21.28,4.31,31.25-2.34c1.47-0.98,2.88-1.12,4.47-0.36c1.7,0.81,3.5,1.01,5.36,0.72
	c1.08-0.21,2.15-0.51,3.2-0.83c0.82-0.29,1.83-0.73,1.98-1.49c0.78-3.98,3.64-4.44,6.95-4.64c1.67-0.1,3.27-0.99,4.67-1.98
	C481.02,504.32,481.96,504.06,483.08,504.48z"/>
<path class="st1" d="M232.54,609.95c-6.82-0.62-13.57,0.52-20.35,0.87c-7.14,0.37-14.26,1.26-21.37,2.06
	c-5.78,0.66-11.58,1.36-17.16,3.12c-1.28,0.4-3.3,0.63-3.28,2.4c0.02,1.6,1.91,1.57,3.12,2.02c5.99,2.21,12.34,2.72,18.59,3.35
	c14.74,1.47,29.52,2.57,44.29,3.68c5.34,0.4,10.72,0.52,16.05,0.6c10.37,0.15,20.72,0.68,31.07,1.06
	c23.56,0.87,47.11,0.56,70.67,0.63c24.99,0.08,50,0.31,74.98-0.17c14.97-0.29,29.95-0.86,44.93-1.39
	c12.63-0.45,25.28-1.11,37.87-2.22c13.16-1.16,26.4-1.89,39.31-5.02c1.81-0.44,4.66-0.4,4.66-2.63c0-2.1-2.81-2.47-4.64-2.87
	c-7.47-1.63-15.05-2.67-22.67-3.3c-12.34-1.01-24.69-2.13-37.05-2.8c-5.47-0.29-10.94-0.9-16.4-0.8c-6.6,0.12-13.13-0.87-19.71-0.89
	c-2.06,1.52-0.01,4.45-2.06,5.96c-5.09,0.86-10.21,0.28-15.3,0.34c-2.07,0.02-2.82-1.05-2.24-3.09c0.35-1.23,1.28-2.46,0.24-3.8
	c-1.29-1.18-2.9-1.17-4.48-1.21c-2.68-0.07-5.36-0.1-8.04-0.01c-15.23,0.5-30.42-1.11-45.64-0.76c-3.08,0.07-6.06-0.03-8.33,2.72
	c-1.1,1.33-2.94,0.95-4.5,0.95c-10.35,0.03-20.71,0-31.06,0.03c-1.81,0.01-3.68-0.23-5.31,0.89c0.08,2.63,2.23,2.02,3.62,2.06
	c6.34,0.2,12.68,0.06,19.02,0.09c5.48,0.02,10.96-0.07,16.58,0.06c-0.49,0.73-1.1,0.55-1.59,0.55c-13.9,0.04-27.8,0.04-41.7,0
	c-2.03-0.01-4.38,0.29-4.6-2.8c-0.08-2.87-1.91-3.72-4.38-3.75c-8.4-0.09-16.82-0.47-25.18,0.14c-6.21,0.45-12.39,0.44-18.59,0.53
	c-6.19,0.09-12.37,0.45-18.49,1.37c-0.68,0.38-1.15,1.03-1.16,1.74c-0.05,4.12-2.65,4.56-5.92,4.35c-2.3-0.15-4.63-0.24-6.91,0.02
	C235.98,614.41,233.57,613.44,232.54,609.95z"/>
<path class="st2" d="M367.4,357.64c1.63,1.64,2.87,1.23,4.48-0.33c5.94-5.75,11.12-12.12,16.07-18.71c0.43-0.57,0.99-1.03,1.5-1.53
	c1.08-0.8,2-1.75,2.77-2.87c10.78-15.64,20.28-31.99,27.54-49.59c3.82-8.77,6.85-17.79,8.35-27.27c0.76-8.37,2.5-16.63,2.68-25.06
	c0.36-17-1.48-33.57-8.63-49.27c-2.47-5.42-6.84-7.97-12.31-9.34c-5.97-1.51-12.05-1.63-18.15-1.73c-2.42,2.95-2.4,6.65-2.58,10.08
	c-0.58,11.1-0.16,22.18,1.76,33.17c0.25,1.42,0.29,2.95,1.51,4.01c2.64-1.01,1-3.18,1.37-4.67c0.19,0.47,0.11,1.56,0.91,1.56
	c1.61,0,1.59-1.48,2.05-2.86c-0.86,7.92-0.87,15.62-1.39,23.3c-1.08,14.43-3.95,28.49-8.39,42.27
	c-5.46,16.97-14.5,31.94-25.16,46.04c-3.16,4.18-6.37,8.34-9.81,12.31c-1.63,1.88-2.98,3.96-1.67,6.64
	C355.49,349.04,360.27,354.8,367.4,357.64z"/>
<path class="st3" d="M181.19,353.33c0.74-1.67,2.07-2.52,3.83-2.86c13.05-2.56,23.74-9.25,32.35-19.17c5-5.76,7.36-12.82,7.74-20.41
	c0.24-4.96,0.45-9.99-1.43-14.79c-2.39-6.1-7.09-10.06-12.38-13.48c-0.9-0.58-2.09-0.75-2.83-2.16c3.16-0.93,6.3-0.24,9.36-0.44
	c-0.59-8.06-4.4-14.78-9.05-21.07c-1.8-2.43-3.75-2.12-4.9,0.73c-1.13,2.81-1.75,6-1.22,8.88c0.53,2.88,0.02,5.84,1.08,8.65
	c0.48,1.28,0.33,2.74-1.72,2.79c-11.64,0.29-23.12,3.33-34.74,2.74c-7.57-0.38-14.99-0.5-22.41,0.93
	c-3.97,0.77-7.68,2.13-10.62,5.08c1.57,1.51,3.42,0.87,5.2,0.65c1.66-0.2,3.32-0.66,5.31,0.34c-2.64,2.24-5.68,2.12-8.42,2.33
	c-3.35,0.26-4.87,1.74-5.01,4.96c-0.14,3.18-2.07,6.32-0.25,9.56c0.04,0.08,0,0.27-0.07,0.33c-0.08,0.07-0.23,0.05-0.35,0.07
	c0.12,4.04,2.09,6.89,5.73,8.5c8.58,3.8,16.43,8.79,24.08,14.18c4.57,3.22,7.63,7.77,11.23,11.82c2.51,2.82,5.04,5.6,7.8,8.14
	C180.69,350.75,181.35,351.76,181.19,353.33z"/>
<path class="st2" d="M263.28,314.61c0.34,1.81,2.08,1.94,3.29,2.55c5.51,2.8,8.94,7.34,9.76,13.26c0.56,4.04,2.17,4.37,5.28,3.16
	c4.63-1.63,7.75-5.36,11.31-8.4c9.91-8.47,18.95-17.83,27.29-27.87c4.7-5.66,8.45-11.9,11.9-18.35c0.41-0.76,0.61-1.59,0.59-2.46
	c2.18-7.98,2.62-16.07,1.51-24.25c-0.63-4.67-2.76-8.81-4.69-13.02c-0.06-0.12-1.44-0.56-0.04-0.77c3.11-0.48,2.23-2.83,1.89-4.53
	c-1.25-6.22-1.68-12.51-1.76-17.29c-0.34,11.78,3.65,24.32,7.04,36.97c0.5,1.88,1,3.77,1.41,5.68c2.24,6.51,3.62,13.27,5.54,19.86
	c0.52,1.79,0.56,3.93,2.8,4.73c2.79-1.63,2.87-4.46,2.7-7.07c-0.29-4.5-0.93-8.98-2.18-13.35c-5.19-18.11-8.08-36.72-11.82-55.14
	c-0.97-4.76-0.69-9.72,0.15-14.58c0.22-1.27,0.9-2.61-0.28-3.79c-3.83,2.66-6.19,6.29-7.96,10.61c-5.8,14.23-9.12,29.28-14.62,43.6
	c-5.34,13.89-11.34,27.45-18.73,40.39C286.31,297.38,275.17,306.36,263.28,314.61z"/>
<path class="st4" d="M334.96,189.93c-2.34,8.72-1.32,17.33,0.42,26.03c3.61,18.03,7.35,36.02,11.73,53.88
	c1.12,4.58,2.45,9.6-0.95,14.06c-1.08,1.69-0.23,3.34,0.27,4.9c1.56,4.88,2.83,9.85,4.44,14.69c2.03,6.11,1.85,12.25,1.07,18.43
	c-0.81,6.41-2.35,12.7-3.89,18.97c-0.32,1.3-0.76,2.59-0.22,3.93c1.69,1.4,2.55,0.36,3.27-1.11c-1.86-2.88,0.52-4.6,1.95-6.35
	c5.01-6.15,9.9-12.38,14.55-18.82c16.43-22.72,25.02-48.33,28.24-75.95c0.22-1.93,0.13-3.9,0.18-5.85
	c-0.4-5.92-0.55-11.88-3.03-17.44c-3.11-14.61-4.18-29.3-1.78-44.13c0.17-1.08,0.33-2.16,0.5-3.24c-2.22,0.12-4.44,0.24-6.66,0.36
	c-4.15,4.32-4.34,9.95-4.72,15.36c-0.72,10.17,1.07,20.19,2.47,30.22c1.43,10.28,3.22,20.5,4.9,30.73c0.93,5.66,0.93,5.59-4.66,6.26
	c-8.24,0.98-16.46,2.08-24.7,3.05c-2.82,0.33-3.94-0.62-4.64-3.19c-3.84-14.01-7.26-28.13-10.69-42.24
	c-1.6-6.6-2.29-13.45-1.15-20.34c0.37-2.21,0.79-4.63-0.87-6.66C338.97,186.96,336.97,188.44,334.96,189.93z"/>
<path class="st2" d="M340.98,185.48c0.24,5.85-0.82,11.65-0.45,17.54c0.66,10.47,4.3,20.24,6.58,30.32
	c1.8,7.96,4.13,15.79,6.06,23.72c0.48,1.96,1.2,2.54,3.21,2.28c9.9-1.28,19.82-2.48,29.74-3.58c2.76-0.3,3.9-0.97,3.29-4.2
	c-3.21-17.12-6.01-34.32-7.86-51.63c-1.01-9.4-0.55-18.79,3.5-27.64c-1.24-0.01-2.48-0.02-3.73-0.04
	c-4.11,7.17-9.99,12.09-17.86,14.84c-7.76,2.72-15.03,2.66-21.83-2.45C341.41,184.93,341.2,185.2,340.98,185.48z"/>
<path class="st5" d="M270.68,505.18c-0.76-0.86-1.63-0.19-2.38-0.07c-9.75,1.56-16.55-3.51-21.5-10.77
	c-3.42-5.02-7.22-7.04-12.94-6.1c1.42,3.45,0.94,7.17,1.41,10.75c1.4,10.65,2.39,21.36,3.59,32.03c0.67,6,1.78,11.99,1.79,18.07
	c0.81,2.91-0.25,5.94,0.6,8.85c0,4.35,0,8.7,0,13.05c-0.85,2.41,0.21,4.97-0.59,7.39c-0.3,7.93-2.18,15.63-3.35,23.43
	c-0.22,1.44-0.31,2.9-0.47,4.34c0.45,0.65,1.14,1,1.87,1c4.74,0.03,9.43,0.76,14.16,0.8c1.22-0.89,1.22-2.33,1.54-3.6
	c3.02-11.83,5.1-23.87,7.57-35.82c1.33-6.43,1.25-12.87-0.17-19.26c-0.92-4.15-0.74-8.15,0.4-12.27c2.57-9.29,4.9-18.65,8.38-27.67
	C271.09,508.01,271.75,506.6,270.68,505.18z"/>
<path class="st5" d="M454.42,614.91c2.13-2.17,0.39-4.88,1.02-7.26c1.23-11.39,4.12-22.43,7.25-33.41
	c1.73-6.05,3.34-12.12,4.63-18.3c0.71-3.4,0.31-6.3-1.35-9.06c-2.62-4.33-4.07-9.02-4.81-13.97c-0.49-3.16-0.47-6.33-0.01-9.5
	c0.23-1.6,0.47-3.2,1.57-4.5c1.16-1.78,1.85-3.62,0.87-5.72c-1.45-0.12-3.24,0.25-4.29-0.46c-2.97-1.99-5.13-0.93-7.75,0.77
	c-9.52,6.16-19.45,6.18-29.5,1.27c-2.44-1.19-4.28-1.59-4.13,2.11c-1.41,4.52,0.5,8.66,1.91,12.65
	c3.54,10.03,9.98,17.79,19.66,22.55c8.93,4.39,10.2,11.17,7.89,18.29c-3.23,9.97-6.29,19.98-10.08,29.75
	c-0.89,2.3-2.22,4.76,0.01,7.13c3.62,0.29,7.24-0.14,10.86,0.09c4.63,0.29,4.93,0.58,5.46,5.18
	C453.72,613.4,453.83,614.24,454.42,614.91z"/>
<path class="st6" d="M310.24,130.53c2.46,4.26,2.86,9.17,4.36,13.73c0.9,2.72,1.87,5.42,2.81,8.13c3.07,2.18,6.01,1.45,8.8-0.5
	c5.35-3.73,11.25-5.59,17.76-5.83c3.54-0.13,6.94-0.99,10.12-2.73c7.41-4.06,11.09-10.03,9.78-18.61
	c-0.89-5.83-0.93-11.6,0.52-17.38c0.83-3.28,0.25-6.53-1.26-9.59c-1.21-2.04-2.49-0.95-3.54,0.07c-2.19,2.13-4.48,4.14-6.96,5.92
	c-10.28,6.74-21.41,10.4-33.84,9.59c-2.11-0.14-4.07-0.68-6.04-1.33c-1.95-0.64-3.27-0.24-2.69,2.16c0.86,3.56,0.69,6.97-0.72,10.38
	C308.5,126.62,309.56,128.59,310.24,130.53z"/>
<path class="st7" d="M362.32,97.43c1.67,4.63,1.47,9.18,0.18,13.93c-0.99,3.64-0.61,7.54-0.01,11.26
	c2.07,12.75-4.8,21.65-17.82,22.33c-7.14,0.38-13.7,2.06-19.38,6.45c-2.52,1.95-5.2,1.05-7.87,0.98
	c3.86,10.8,8.86,20.85,18.39,27.92c3.09,0.56,5.75,2.42,9.07,2.5c6.15,0.15,11.41-1.87,15.44-6.29
	c6.32-6.93,11.12-14.78,12.77-24.28c1.02-5.84-0.29-11.39-1.58-16.97c-2.66-3.56-2.01-7.97-3.03-11.96
	c-1.91-2.95-1.65-6.24-1.26-9.47c0.34-2.76,0.49-5.55,0.9-8.3c0.37-2.51-0.38-4.84-1.85-6.85
	C365.33,97.41,364.16,96.22,362.32,97.43z"/>
<path class="st7" d="M310.24,130.53c-1.23-5.97,3.81-11.8,0.03-18.02c16.14,4.7,30.17,0.57,43.23-8.42c2.35-2.5,4.38-5.1,3.93-8.89
	c-0.16-1.37,0.96-2.12,2.1-2.68c1.74-0.85,3.44-1.79,5.16-2.68c4.78-2.44,5.75-4.81,4.27-10.07c-13.18-5.8-26.49-6.24-40.24-1.07
	c1.94,1.34,4.04,0.68,6.16,1.55c-7.49,1.56-14.88,2-21.74,4.79c-2.86,5.06-2.17,8.01,2.71,11c5.72,3.51,12.03,2.57,18.19,2.1
	c5.96-0.45,11.83-1.63,17.59-3.27c0.54-0.15,1.14-0.46,1.88,0.27c-2.15,2.57-4.89,4.29-7.97,5.37c-12.03,4.24-24.37,5.84-37.04,3.67
	c-4.27-0.73-7.86-2.6-9.52-7.03c-0.32-0.85-0.61-1.93-1.92-1.85C295.59,109.23,297.73,121.82,310.24,130.53z"/>
<path class="st4" d="M418.77,284.59c-7.31,17.77-17,34.21-27.9,49.98c-0.55,0.79-1.37,1.42-1.41,2.5
	c12.35-0.71,23.5,2.51,33.33,10.13c2.06,1.6,4.09,0.39,6.05-0.5c3.71-20.6,1.11-41.11-0.95-61.62
	C424.87,284.55,421.86,283.87,418.77,284.59z"/>
<path class="st3" d="M237.6,291.02c-1.44,2.07-3.81,2.93-5.77,4.29c-1.56,1.08-2.39,2.25-2.29,4.19c0.1,2.09,1.45,3.06,3.1,3.62
	c4.28,1.46,8.74,1.77,13.24,1.83c2.4,0.03,4.88-0.56,7.17,0.68c1.91-2.28,4.76-1.54,7.16-2.1c6.27-1.46,12.09-3.67,16.74-8.26
	c3.48-3.45,3.07-6.45-1.49-7.99c-11.52-3.89-22.99-4.93-33.82,2.28C240.39,290.39,239.15,291.11,237.6,291.02z"/>
<path class="st8" d="M297.07,95.28c2.75,10.01,11.21,10.46,19.16,10.82c9.87,0.44,19.63-1.03,29.03-4.32
	c3.26-1.14,6.05-3.11,8.7-5.26c0.8-0.65,2.07-1.46,1.43-2.67c-0.77-1.47-2.08-0.51-3.2-0.2c-9.18,2.53-18.48,4.18-28.05,3.8
	c-3.09-0.12-5.89-0.95-8.55-2.71c-3.17-2.1-4.24-4.55-2.39-7.98c0.36-0.66,0.08-1.16-0.05-1.73c-0.64-0.08-1.19,0.07-1.6,0.6
	c-3.49,1.83-7.07,3.44-10.86,4.53C297.99,90.81,297.36,92.93,297.07,95.28z"/>
<path class="st9" d="M483.08,504.48c-0.65-0.48-0.11-2.77-2.2-1.11c-2.78,2.22-6.14,3.29-9.76,3.13c-1.71-0.07-2.94,0.32-2.65,2.34
	c0.25,1.75-0.87,2.63-1.95,3.59c-1.43,1.93-1.9,3.77,0.53,5.32c2.06-2.2,2.42-5.21,3.7-7.78c0.42-0.84,0.56-1.99,1.99-1.23
	c1.18,0.63,1.21,1.49,0.52,2.4c-4.46,5.87-4.35,11.85-0.65,18.04c0.59,0.99,0.61,2.35,0.84,3.54c1.28,6.63,4.2,9.33,10.9,10.32
	c2.51,0.37,3.43-0.03,3.04-2.96C485.79,528.24,484.49,516.35,483.08,504.48z"/>
<path class="st10" d="M368.97,79.76c1.1,7.76-4.94,9.58-10.12,11.96c-1.78,0.82-2.95,1.69-2.42,3.71c0.94,3.57-2.06,5.74-2.93,8.65
	c2.5-1.51,4.52-3.57,6.57-5.6c0.58-0.58,0.94-1.92,2.25-1.05c3.46,0.85,5.53,4.47,4.89,8.33c-0.94,5.69-1.84,11.37-0.61,17.15
	c0.43,2.02,0.88,0.42,1.36,0.16c2.28-3.29,5.91-4.93,8.91-7.34c0.55-10.23-0.21-20.32-3.67-30.05
	C372.39,83.35,371.84,80.68,368.97,79.76z"/>
<path class="st11" d="M341.63,184.65c2.12,3.88,5.98,4.66,9.8,5.11c10.78,1.26,24.51-6.03,29.8-15.51c0.42-0.76,0.45-1.31,0.1-1.99
	c-2.16-0.82-4.33-1.64-6.49-2.45c-2.93-0.8-4.68,1.65-7.01,2.53c-2.17,1.63-3.3,4.16-5.25,6.01c-5.34,5.04-11.19,8.14-18.78,5.67
	c-0.67-0.22-1.41-0.48-2.05,0.15C341.66,184.31,341.62,184.48,341.63,184.65z"/>
<path class="st12" d="M341.75,184.16c9.75,4.47,17.62-0.43,23.75-7.73c0.93-1.11,1.74-2.31,2.61-3.46c2.63-2.42,4.29-5.32,4.52-8.95
	c1.44-6.63,3.4-13.19,2.29-20.12c-0.31-1.95-0.82-3.79-1.77-5.52c-0.25-1.34-0.6-2.59-2.29-2.73c-0.48,2.31,0.7,4.42,1.11,6.55
	c1.82,9.41-1.21,17.47-5.99,25.17c-3.47,5.59-7.12,10.95-13.84,13.35c-4.39,1.57-8.52,1.43-12.77-0.13
	c-1.14-0.42-2.27-1.79-3.58-0.26C337.5,182.04,339.69,183,341.75,184.16z"/>
<path class="st13" d="M370.86,135.63c0.76,0.91,1.53,1.82,2.29,2.73c7.38-3.48,8-9.96,7.42-16.91c-0.21-2.47-1.02-4.74-3.69-5.72
	c-3.82,1.42-7.67,2.79-8.91,7.34C368.14,127.44,367.49,132,370.86,135.63z"/>
<path class="st14" d="M252.86,607.87c-5.16-2.3-10.62-1.77-16.03-1.72c-1.98,0.64-3.11,2.25-4.29,3.8c-0.5,4.93-0.5,4.93,4.5,4.93
	c3.91,0,7.83-0.2,11.72,0.07c3.1,0.21,4.68-0.54,4.11-3.95c-0.14-0.82,0.09-1.69,0.14-2.54c0.18-0.19,0.22-0.34,0.11-0.45
	C253.04,607.92,252.95,607.87,252.86,607.87z"/>
<path class="st15" d="M489.03,491.23c-1.28,2.27-1.94,4.74-2.29,7.31c1.7,13.89,3.38,27.79,5.14,41.68
	c0.12,0.95-0.65,2.73,1.56,2.55c2.15-0.17,1.65-1.7,1.49-2.96c-1.56-13.05-3.15-26.1-4.73-39.15
	C489.82,497.51,489.42,494.37,489.03,491.23z"/>
<path class="st11" d="M418.77,284.59c3,0.86,6.02,1.46,9.11,0.49c0.58-9.24,0.35-18.49,0.23-27.74c-2.42,3.24-1.99,7.37-3.37,10.97
	C422.68,273.7,421.18,279.31,418.77,284.59z"/>
<path class="st16" d="M130.65,307.01c0.59,0.42,1.18,0.83,2.42,1.7c-4.11-5.11-0.66-9.63-0.34-14.21c0.11-1.53,1.63-1.14,2.65-1.28
	c3.01-0.4,6.1-0.42,8.99-1.51c1.03-0.39,2.28-0.93,2.07-2.21c-0.22-1.36-1.66-1.26-2.69-1.23c-3.17,0.09-6.33,0.32-9.49,0.49
	c-2.33,0.9-2.48,3.17-3,5.08C130.08,298.16,128.89,302.53,130.65,307.01z"/>
<path class="st17" d="M372.62,164.01c-1.51,2.98-3.01,5.97-4.52,8.95c2.24-1.05,4.49-2.1,6.73-3.16
	C373.88,167.95,374.08,165.66,372.62,164.01z"/>
<path class="st18" d="M467.03,517.75c-0.98-1.69-0.34-3.54-0.53-5.31c-1.06-0.08-2.05,0.13-2.92,0.78
	c-0.15,1.93-1.39,3.69-0.87,5.72C464.26,518.94,466.02,519.71,467.03,517.75z"/>
<path class="st7" d="M300.68,90.15c4.09-0.38,7.72-1.86,10.86-4.52C307.74,86.68,304.13,88.23,300.68,90.15z"/>
<path class="st0" d="M461.14,523.43c-1.07,3.17-1.08,6.33,0.01,9.5C461.15,529.76,461.14,526.6,461.14,523.43z"/>
<path class="st0" d="M241.25,557.94c-0.21-2.95,0.72-5.98-0.6-8.85C240.79,552.05,239.99,555.06,241.25,557.94z"/>
<path class="st0" d="M240.65,578.38c1.29-2.37,0.41-4.92,0.59-7.39C240,573.37,240.78,575.91,240.65,578.38z"/>
<path class="st4" d="M371.12,584.97c3.07-0.36,3.52-1.85,2.94-4.86c-3.98-20.7-6.63-41.59-8.67-62.56
	c-0.14-1.45-0.12-2.92-0.17-4.38c-1.05-1.19-2.22-0.46-3.39-0.24c-2.17,0.41-4.6,0.96-6.38-0.46c-2.32-1.84-3.71-0.75-5.65,0.54
	c-4.22,2.79-8.91,4.46-14.06,4.56c1.54,22.29,4.16,44.44,9.04,66.27c0.38,1.68,0.24,3.73,2.03,4.88c1.51,0.7,3.05,0.36,4.58,0.14
	c1.53-0.39,3.07-0.65,4.65-0.7c3.79-0.66,7.6-1.16,11.38-1.87C368.74,586.04,370.09,585.95,371.12,584.97z"/>
<path class="st19" d="M348.27,345.06c-1.17,0.27-2.34,0.54-3.51,0.8c-2.19,0.16-4.34,0.22-6.53-0.35c-1.48-0.38-3.17,0.22-3.5,1.83
	c-0.27,1.33,1.18,1.89,2.35,2.36c3.27,1.33,6.6,0.45,10.07,0.73c-5.17,2.18-10.34,4.36-15.51,6.53c-1.23,0.51-2.53,0.88-3.71,1.48
	c-1.05,0.53-2.5,1.18-1.97,2.63c0.56,1.54,2.03,2.13,3.64,1.55c3.38-1.23,6.99-1.85,10.36-3.45c-3,2.24-6,4.48-9.02,6.71
	c-1.24,0.92-3.21,1.7-2.12,3.62c1.04,1.83,2.6,1.09,4.4,0.38c3.89-1.52,6.82-4.62,11.12-5.66c-2.57,2.6-5.13,5.21-7.72,7.79
	c-1.09,1.09-2.19,2.3-1.07,3.8c1.28,1.72,2.72,0.8,4.13-0.15c3.59-2.43,6.93-5.15,10.5-7.89c-1.32,2.52-2.74,4.99-3.9,7.58
	c-0.43,0.95-1.48,2.28,0.04,3.26c1.4,0.9,2.25-0.24,3.11-1.09c0.7-0.68,1.49-1.32,2-2.13c3.59-5.69,7.28-11.24,13.3-14.78
	c1.09-0.64,1.79-1.96,2.66-2.96c-5.82-4.18-11.24-8.85-16.29-13.93C350.16,344.16,349.22,344.61,348.27,345.06z"/>
<path class="st20" d="M437.01,606.96c-0.27,0.24-0.54,0.49-0.8,0.73c-0.1,0.22-0.18,0.45-0.29,0.66c-3.03,5.54-2.47,6.53,3.68,6.54
	c4.94,0,9.89,0.02,14.83,0.03c0.73-9.27,1.23-7.55-6.59-8.63C444.25,605.79,440.54,605.55,437.01,606.96z"/>
<path class="st21" d="M328.39,610.03c-3.12,0.01-6.24,0.02-9.36,0.03c-0.62,2.47,0.1,3.45,2.88,3.44
	c15.25-0.05,30.51,0.11,45.76,0.12c1.2,0,3.37,0.97,3.26-1.55c-0.1-2.43-2.23-1.37-3.43-1.38c-11.83-0.18-23.67-0.22-35.51-0.33
	C330.79,610.35,329.59,610.15,328.39,610.03z"/>
<path class="st22" d="M393,219.3c0.47,5.91,1.52,11.72,3.03,17.44c0.19-0.3,0.56-0.61,0.55-0.91c-0.3-8.75,1.33-17.45,0.75-26.6
	c-2.41,1.77-0.46,4.75-2.54,6.16c-0.71-0.64-0.02-2.28-1.78-2.96C393,214.83,393,217.07,393,219.3z"/>
<path class="st23" d="M193.47,299.05c-1.22,0.12-2.52-0.13-2.67,1.43c-0.16,1.66,4.24,4.37,6.99,4.34c1.1-0.02,2.72-0.19,2.24-1.57
	C198.98,300.24,196.07,299.63,193.47,299.05z"/>
<path class="st24" d="M332.02,277c2.95-5.52,5.39-11.25,6.89-17.34c-0.58-6.23-3.12-11.96-4.46-18.01
	c-2.07-9.34-4.6-18.59-4.88-28.25c-0.17,6.96-0.94,13.92,0.91,20.79c0.32,1.17,0.69,2.57-0.16,3.5c-0.86,0.94-1.55-0.86-2.65-0.63
	c1.48,5.08,4.69,9.47,5.39,14.85c0.98,7.55,1.17,15.02-1.01,22.4C331.78,275.22,331.09,276.09,332.02,277z"/>
<path class="st25" d="M348.3,112.1c-2.42-0.15-4.6,0.53-6.65,1.64c-1.05,0.56-1.59,1.47-1.35,2.71c0.27,1.35,1.31,1.72,2.45,1.63
	c3.61-0.27,7.23-0.5,10.8-1.03c2.1-0.31,1.61-1.8,0.63-2.94C352.64,112.3,350.52,111.91,348.3,112.1z"/>
<path class="st26" d="M321.93,118.74c-3.95,0.03-9.21,3.53-10.04,6.52c-0.26,0.94-0.56,1.96,0.36,2.69c0.83,0.65,1.59,0,2.34-0.38
	c2.82-1.41,5.64-2.81,8.46-4.21c1.17-0.58,2.06-1.4,1.76-2.83C324.45,118.82,323.03,118.78,321.93,118.74z"/>
<path class="st27" d="M347.02,122.35c-1.76,0.37-2.41,1.62-2.25,3.2c0.19,1.9,0.96,3.73,3.19,3.73c1.79,0,2.4-1.56,2.26-3.12
	C350.06,124.24,349.23,122.68,347.02,122.35z"/>
<path class="st28" d="M318.13,132.88c0.17,1.81,0.88,3.51,3.17,3.53c1.68,0.01,2.17-1.38,2.15-2.84c-0.03-2-0.74-3.75-2.99-3.9
	C318.54,129.54,318.15,131.08,318.13,132.88z"/>
<path class="st29" d="M337.28,160.08c6.7,0.01,11.44-5.05,11.2-11.76c-0.07-1.87-0.6-2.28-2.37-1.77c-5.38,1.53-10.8,2.95-16.21,4.4
	c-0.85,0.23-1.96,0.44-1.39,1.56c1.06,2.1,2.19,4.22,3.67,6.03C333.39,160.01,335.44,160.01,337.28,160.08z"/>
<path class="st9" d="M351.24,587.98c-1.47,0.24-2.94,0.49-4.41,0.73c2.5,1.49,5.02,2.97,7.5,4.48c0.66,0.4,1.72,0.66,1,1.88
	c-0.62,1.05-1.51,1.46-2.36,0.55c-5.68-6.06-12.31-5.23-19.24-2.87c-0.89,0.3-1.94,0.17-2.91,0.2c-6.46,0.24-10.88,4.63-11.41,11.05
	c-0.22,2.67,1.64,1.59,2.64,1.61c13.19,0.21,26.38,0.35,39.56,0.46c9.48,0.08,9.48,0.06,9.5-9.38c0.01-3.91,0.01-7.82,0.02-11.72
	c-5.31,0.17-10.45,1.52-15.68,2.29c0,1.34,1.39,1.51,2.23,2.67C355.21,589.66,353.39,588.19,351.24,587.98z"/>
<path class="st30" d="M351.24,587.98c1.91,1.04,3.83,2.07,5.74,3.13c0.8,0.45,1.52,0.83,2.08-0.32c0.58-1.2,0.03-1.77-1.04-2.21
	c-0.89-0.36-1.71-0.87-2.57-1.32C354.04,587.51,352.64,587.74,351.24,587.98z"/>
</svg>
